
<svg xmlns="http://www.w3.org/2000/svg" version="1.1" xmlns:xlink="http://www.w3.org/1999/xlink" preserveAspectRatio="none" x="0px" y="0px" width="445px" height="272px" viewBox="0 0 445 272">
<defs>
<g id="Bovine_0_Layer0_0_FILL">
<path fill="#102953" stroke="none" d="
M 1001.2 93.95
Q 1001.45 88.1 1001.2 83.05
L 1001.25 82.5
Q 1002.2 74.35 1001.15 68.05 1002.9 72 1003.45 76.45 1003.9 80.35 1003.35 86.25 1003 89.85 1001.8 97.5 1000.1 108.15 999.85 113.65 998 120.45 999.2 124.9 999.75 126.9 1001.9 131.6 1003.6 135.9 1002.5 138.4 1009.05 134.25 1007.45 128.3 1006.95 126.25 1005.1 122.95 1002.45 118.15 1002.05 117.25 1002.05 111.2 1004.1 97.85 1005.3 89.8 1005.65 86.35 1006.25 80.3 1005.75 76.2 1004.6 66.5 998.3 59.5 994.95 53.4 987.8 50.4 982.6 48.2 973.3 47.05 966.65 46.25 942.65 49.5 921.4 52.45 913.65 49.5 904.65 46.05 892.85 48.4 886.7 49.6 877.5 53.25 874.45 54.5 868.7 53.5 865 52.9 857.8 50.75 861 48.7 862 44.4
L 862.35 40.5
Q 860.65 40.65 858.55 41.05 854.35 41.85 852.55 42.95 850.5 44.15 849.15 48.4
L 848.6 48.25 847.75 48.25
Q 846.2 45.3 843.35 44.6 841.2 44.05 837.9 43.85 835.1 43.65 833.95 43.15 832.5 42.55 831.3 40.05
L 830.4 37.7 830.5 41.15
Q 830.95 44.75 832.4 45.8 833 46.25 836 47.5 838.4 48.55 839.2 49.8 837.55 50.55 836.6 51.25 836.45 51.35 828.5 58.7 822.85 63.9 818.4 65.35 812.45 67.3 811.85 67.65 810.8 68.25 811 70.3 811.15 72.1 812.6 73.55 813.3 74.3 814 74.65
L 813.7 76.55
Q 813.7 78.55 815.3 79.1 816.6 79.55 824.5 80.3 832.5 81.65 836.05 85.2 839.65 88.8 844.55 88.7 847 88.65 848.7 87.85
L 856 93.5
Q 863.85 100.2 866.3 105.6 869.1 111.65 876.2 114.55 879.5 124.15 880.2 131.85 880.95 140.55 880.95 144.2 880.95 149 879.85 150.6 878.8 152.2 877.95 154.5 877.15 156.5 877.25 157
L 877.3 157.7 881.65 158
Q 886.15 158.2 886.9 157.65 887.4 157.25 887.3 155.25 887.15 153.35 888.25 152.85 889.5 152.3 889.1 150.85 888.45 149.4 888.45 149.15 888.3 146.75 888.4 143.35 888.6 136.65 889.85 130.55 891.3 123.25 891.3 116.4
L 892.35 116.3
Q 895.15 125.15 895.75 131.85 896.5 140.55 896.5 144.2 896.5 149 895.4 150.6 894.35 152.2 893.5 154.5 892.7 156.5 892.8 157
L 892.85 157.7 898.1 158.1
Q 903.35 158.35 903.3 157.6 902.95 156.05 902.8 155.15 902.55 153.4 903.8 152.85 905.05 152.3 904.65 150.85 904 149.4 904 149.15 903.85 146.75 903.95 143.35 904.15 136.65 905.35 130.55 906.85 123.35 906.85 114.45 915.65 121.75 930.3 123.7 946.05 125.8 963.75 120.9
L 966.8 120.55
Q 968.15 125.25 969.55 128.2 971.25 131.65 971.35 137.75 971.5 143.15 970.45 146.4 969.7 148.55 969 151.3 967.9 155.65 968.4 156.55
L 977.7 156.55
Q 977.95 156.15 977.65 152.4 977.35 148.95 978.2 148.65 979.7 148.15 979.95 146.05 980.95 132.4 979.85 127.85 978.95 124.05 981.35 115.95
L 981.95 115.6
Q 982.9 119.05 985.1 124.55 987.35 130.2 987.75 131.55 988.9 135.65 989.1 141.5 989.25 147.45 988.2 149.15 987.2 150.8 986.65 153.65 986.1 156.25 986.4 157.25
L 996.4 157.25
Q 995.6 151.95 995.6 150.85 995.6 150.25 997.15 149.65 998.75 149 998.85 148.4 998.9 148 998.15 142.45 997.25 135.85 997.05 130.55 996.85 124.8 997.35 118.4
L 997.95 113.15
Q 999.05 109.45 1000.4 102.95 1001 100 1001.2 93.95 Z"/>
</g>
</defs>

<g transform="matrix( 1, 0, 0, 1, 0.05,0) ">
<g transform="matrix( 2.2615966796875, 0, 0, 2.2615966796875, -1834.15,-85.25) ">
<use xlink:href="#Bovine_0_Layer0_0_FILL"/>
</g>
</g>
</svg>
