
<svg xmlns="http://www.w3.org/2000/svg" version="1.1" xmlns:xlink="http://www.w3.org/1999/xlink" preserveAspectRatio="none" x="0px" y="0px" width="237px" height="283px" viewBox="0 0 237 283">
<defs>
<g id="Church_0_Layer0_0_FILL">
<path fill="#202020" stroke="none" d="
M 115.65 44.7
L 112.35 44.7 112.35 50.35 105.4 50.35 105.4 53.7 112.35 53.7 112.35 65.9 101.15 65.9 101.15 90.1 87.9 98 87.9 133.25 75.45 133.25 75.45 136.6 91.2 136.6 91.2 99.85 101.15 93.95 101.15 136.6 115.65 136.6 115.65 103.55 123.55 106.85 123.55 136.6 152.5 136.6 152.5 133.25 139.05 133.25 139.05 109.7 126.85 104.6 126.85 65.9 115.65 65.9 115.65 53.7 123 53.7 123 50.35 115.65 50.35 115.65 44.7
M 115.65 81.5
L 104.45 88.15 104.45 69.2 123.55 69.2 123.55 103.25 115.65 99.95 115.65 81.5
M 104.45 92
L 112.35 87.3 112.35 133.25 104.45 133.25 104.45 92
M 126.85 108.2
L 135.75 111.9 135.75 133.25 126.85 133.25 126.85 108.2 Z"/>
</g>
</defs>

<g transform="matrix( 1, 0, 0, 1, 0,0) ">
<g transform="matrix( 3.088134765625, 0, 0, 3.088134765625, -233,-138.05) ">
<use xlink:href="#Church_0_Layer0_0_FILL"/>
</g>
</g>
</svg>
