
<svg xmlns="http://www.w3.org/2000/svg" version="1.1" xmlns:xlink="http://www.w3.org/1999/xlink" preserveAspectRatio="none" x="0px" y="0px" width="1920px" height="1080px" viewBox="0 0 1920 1080">
<defs>
<g id="gDeck_black_0_Layer0_0_FILL">
<path fill="#000000" stroke="none" d="
M 26.85 18.15
L 26.85 -57.5 -48.8 -32.75 -48.8 42.9 26.85 18.15
M 3.9 -37.55
Q 9.7 -33.8 9.7 -25.6 9.7 -25.3 9.7 -25.05
L -10.1 -17.7 -10.1 -38.05 -10.05 -38.1
Q -1.85 -41.15 3.9 -37.55
M 6.4 7.3
Q 6.05 8 5.25 8.3
L -28.5 20.05
Q -29.3 20.3 -30 19.95 -30.75 19.6 -31 18.85 -31.3 18.05 -30.95 17.3 -30.6 16.55 -29.8 16.25
L 3.95 4.5
Q 4.75 4.25 5.5 4.6 6.2 4.95 6.5 5.75 6.75 6.5 6.4 7.3
M 6.4 14.35
Q 6.05 15.05 5.25 15.35
L -28.5 27.1
Q -29.3 27.35 -30 27 -30.75 26.65 -31 25.9 -31.3 25.1 -30.95 24.35 -30.6 23.6 -29.8 23.3
L 3.95 11.55
Q 4.75 11.3 5.5 11.65 6.2 12 6.5 12.8 6.75 13.55 6.4 14.35
M -33.8 -5.5
Q -33.8 -5.75 -33.8 -6.05 -33.8 -14.25 -28.05 -22.2 -22.25 -30.1 -14.1 -33.15
L -14.1 -12.85 5.7 -20.2
Q 5.5 -12.25 -0.05 -4.6 -3.3 -0.15 -7.35 2.75 -14.05 7.2 -20.75 7.75 -24.75 7.8 -28.05 5.8 -33.65 2.25 -33.8 -5.5
M 48.85 -42.85
L 34.2 -38.1 34.2 25.5 -26.85 45.45 -26.85 57.55 48.85 32.8 48.85 -42.85 Z"/>
</g>

<g id="gDeck_black_0_Layer0_0_MEMBER_0_FILL">
<path fill="#FFFFFF" stroke="none" d="
M 465.4 164.8
Q 460.75 165.75 457.2 169.3 452.4 174.1 452.4 180.95 452.4 181.25 452.4 181.45 452.45 183.35 452.85 185.1 453.9 189.35 457.2 192.65 459.95 195.35 463.3 196.55 468.9 198.15 474.5 196.55 477.85 195.35 480.55 192.65 483.85 189.35 484.9 185.1
L 465.4 185.1 465.4 164.8 Z"/>
</g>

<g id="gDeck_black_0_Layer0_0_MEMBER_1_FILL">
<path fill="#FFFFFF" stroke="none" d="
M 491.55 173.55
Q 491.55 167.65 487.4 163.5 483.3 159.35 477.4 159.35
L 477.4 173.95 491.55 173.95
Q 491.55 173.75 491.55 173.55 Z"/>
</g>
</defs>

<g transform="matrix( 2.9635009765625, 0, 0, 2.9635009765625, 145.8,172.4) ">
<g transform="matrix( 1, 0, 0, 1, 0,0) ">
<use xlink:href="#gDeck_black_0_Layer0_0_FILL"/>
</g>

<g transform="matrix( 0.882354736328125, -0.3275146484375, 0, 0.882354736328125, -428.75,-18.6) ">
<use xlink:href="#gDeck_black_0_Layer0_0_MEMBER_0_FILL"/>
</g>

<g transform="matrix( 0.882354736328125, -0.3275146484375, 0, 0.882354736328125, -428,-19.15) ">
<use xlink:href="#gDeck_black_0_Layer0_0_MEMBER_1_FILL"/>
</g>
</g>
</svg>
