
<svg xmlns="http://www.w3.org/2000/svg" version="1.1" xmlns:xlink="http://www.w3.org/1999/xlink" preserveAspectRatio="none" x="0px" y="0px" width="303px" height="161px" viewBox="0 0 303 161">
<defs>
<g id="L_Musical_0_Layer0_0_FILL">
<path fill="#0051A4" stroke="none" d="
M 653.6 231.8
Q 659.55 229.15 660.65 229.8 661.45 230.2 663.65 236.45
L 673.2 263.15
Q 667.3 262.5 661.8 266.1 656.45 269.65 654.7 275.2 652.9 280.8 655.8 285.2 658.7 289.55 664.5 290.15 670.35 290.75 675.7 287.2 681 283.75 682.6 278.55 684.25 273.25 681.85 267.15
L 662.1 213.05
Q 659.75 206.55 659.2 206.1 657.95 205 652.5 206.9 634.15 213.25 624.4 219.7 608.1 230.55 612.45 242.8
L 629.3 290.1
Q 623.4 289.45 617.9 293.05 612.55 296.6 610.8 302.15 609 307.75 611.9 312.15 614.8 316.5 620.65 317.1 626.5 317.7 631.85 314.15 637.1 310.65 638.75 305.5 640.4 300.2 638 294.1
L 625.4 259.7
Q 622.85 252.6 623 251.45 623.2 249.85 627.8 246.6 640.35 237.75 653.6 231.8 Z"/>
</g>

<g id="L_Musical_0_Layer0_1_FILL">
<path fill="#0051A4" stroke="none" d="
M 653.6 231.8
Q 659.55 229.15 660.65 229.8 661.45 230.2 663.65 236.45
L 673.2 263.15
Q 667.3 262.5 661.8 266.1 656.45 269.65 654.7 275.2 652.9 280.8 655.8 285.2 658.7 289.55 664.5 290.15 670.35 290.75 675.7 287.2 681 283.75 682.6 278.55 684.25 273.25 681.85 267.15
L 662.1 213.05
Q 659.75 206.55 659.2 206.1 657.95 205 652.5 206.9 634.15 213.25 624.4 219.7 608.1 230.55 612.45 242.8
L 629.3 290.1
Q 623.4 289.45 617.9 293.05 612.55 296.6 610.8 302.15 609 307.75 611.9 312.15 614.8 316.5 620.65 317.1 626.5 317.7 631.85 314.15 637.1 310.65 638.75 305.5 640.4 300.2 638 294.1
L 625.4 259.7
Q 622.85 252.6 623 251.45 623.2 249.85 627.8 246.6 640.35 237.75 653.6 231.8 Z"/>
</g>

<g id="L_Musical_0_Layer0_2_FILL">
<path fill="#0051A4" stroke="none" d="
M 653.6 231.8
Q 659.55 229.15 660.65 229.8 661.45 230.2 663.65 236.45
L 673.2 263.15
Q 667.3 262.5 661.8 266.1 656.45 269.65 654.7 275.2 652.9 280.8 655.8 285.2 658.7 289.55 664.5 290.15 670.35 290.75 675.7 287.2 681 283.75 682.6 278.55 684.25 273.25 681.85 267.15
L 662.1 213.05
Q 659.75 206.55 659.2 206.1 657.95 205 652.5 206.9 634.15 213.25 624.4 219.7 608.1 230.55 612.45 242.8
L 629.3 290.1
Q 623.4 289.45 617.9 293.05 612.55 296.6 610.8 302.15 609 307.75 611.9 312.15 614.8 316.5 620.65 317.1 626.5 317.7 631.85 314.15 637.1 310.65 638.75 305.5 640.4 300.2 638 294.1
L 625.4 259.7
Q 622.85 252.6 623 251.45 623.2 249.85 627.8 246.6 640.35 237.75 653.6 231.8 Z"/>
</g>
</defs>

<g transform="matrix( 1, 0, 0, 1, 0,0) ">
<g transform="matrix( 1, 0, 0, 1, -610.1,-155.7) ">
<use xlink:href="#L_Musical_0_Layer0_0_FILL"/>
</g>

<g transform="matrix( 1, 0, 0, 1, -500.1,-205.7) ">
<use xlink:href="#L_Musical_0_Layer0_1_FILL"/>
</g>

<g transform="matrix( 1, 0, 0, 1, -380.1,-195.7) ">
<use xlink:href="#L_Musical_0_Layer0_2_FILL"/>
</g>
</g>
</svg>
