
<svg xmlns="http://www.w3.org/2000/svg" version="1.1" xmlns:xlink="http://www.w3.org/1999/xlink" preserveAspectRatio="none" x="0px" y="0px" width="895px" height="115px" viewBox="0 0 895 115">
<defs>
<filter id="Filter_1" x="-20%" y="-20%" width="140%" height="140%" color-interpolation-filters="sRGB">
<feColorMatrix in="SourceGraphic" type="matrix" values="0 0 0 0 0 0 0 0 0 0 0 0 0 0 0 0 0 0 1 0" result="result1"/>
</filter>

<g id="gDeck_0_Layer0_0_FILL">
<path fill="#FFFFFF" stroke="none" d="
M 26.85 18.15
L 26.85 -57.5 -48.8 -32.75 -48.8 42.9 26.85 18.15
M 3.9 -37.55
Q 9.7 -33.8 9.7 -25.6 9.7 -25.3 9.7 -25.05
L -10.1 -17.7 -10.1 -38.05 -10.05 -38.1
Q -1.85 -41.15 3.9 -37.55
M 6.4 7.3
Q 6.05 8 5.25 8.3
L -28.5 20.05
Q -29.3 20.3 -30 19.95 -30.75 19.6 -31 18.85 -31.3 18.05 -30.95 17.3 -30.6 16.55 -29.8 16.25
L 3.95 4.5
Q 4.75 4.25 5.5 4.6 6.2 4.95 6.5 5.75 6.75 6.5 6.4 7.3
M 6.4 14.35
Q 6.05 15.05 5.25 15.35
L -28.5 27.1
Q -29.3 27.35 -30 27 -30.75 26.65 -31 25.9 -31.3 25.1 -30.95 24.35 -30.6 23.6 -29.8 23.3
L 3.95 11.55
Q 4.75 11.3 5.5 11.65 6.2 12 6.5 12.8 6.75 13.55 6.4 14.35
M -33.8 -5.5
Q -33.8 -5.75 -33.8 -6.05 -33.8 -14.25 -28.05 -22.2 -22.25 -30.1 -14.1 -33.15
L -14.1 -12.85 5.7 -20.2
Q 5.5 -12.25 -0.05 -4.6 -3.3 -0.15 -7.35 2.75 -14.05 7.2 -20.75 7.75 -24.75 7.8 -28.05 5.8 -33.65 2.25 -33.8 -5.5
M 48.85 -42.85
L 34.2 -38.1 34.2 25.5 -26.85 45.45 -26.85 57.55 48.85 32.8 48.85 -42.85 Z"/>
</g>

<g id="gDeck_0_Layer0_0_MEMBER_0_FILL">
<path fill="#FFFFFF" stroke="none" d="
M 465.4 164.8
Q 460.75 165.75 457.2 169.3 452.4 174.1 452.4 180.95 452.4 181.25 452.4 181.45 452.45 183.35 452.85 185.1 453.9 189.35 457.2 192.65 459.95 195.35 463.3 196.55 468.9 198.15 474.5 196.55 477.85 195.35 480.55 192.65 483.85 189.35 484.9 185.1
L 465.4 185.1 465.4 164.8 Z"/>
</g>

<g id="gDeck_0_Layer0_0_MEMBER_1_FILL">
<path fill="#FFFFFF" stroke="none" d="
M 491.55 173.55
Q 491.55 167.65 487.4 163.5 483.3 159.35 477.4 159.35
L 477.4 173.95 491.55 173.95
Q 491.55 173.75 491.55 173.55 Z"/>
</g>

<g id="Layer0_0_FILL">
<path fill="#000000" stroke="none" d="
M 181.8 35.05
Q 177.55 32.6 170.05 32.6
L 130.15 32.6
Q 131.9 35.3 132.55 38.9
L 132.85 44.65 132.85 123.1 132.55 128.95
Q 132 132.4 130.15 135.15 143.65 135.15 158.55 126.8 173.4 118.4 183.1 105.75 193.45 92.3 193.45 79.35 193.45 71.5 188.7 65.35 184.35 59.6 178 57.9 182.65 56 184.95 52.8 187.3 49.5 187.3 45.35 187.3 38.3 181.8 35.05
M 180.7 36.35
Q 185.65 39.1 185.65 45.35 185.65 53.55 174.3 58.05 181.95 59.7 186.85 65.75 191.8 71.8 191.8 79.35 191.8 91.75 182.1 104.8 172.95 117.1 158 125.35 143.1 133.65 132.85 133.65
L 134.25 129.05 134.5 44.65 134.15 38.1 133 34.25 170.05 34.25
Q 176.9 34.25 180.7 36.35
M 174 98.15
Q 180.3 89.4 180.3 81 180.3 73.35 175.1 68 169.9 62.7 161.85 62.7
L 144.5 62.7 144.5 118.45
Q 151.4 117.45 159.75 111.75 168.55 105.8 174 98.15
M 178.65 81
Q 178.65 88.8 172.95 97 167.95 104.1 159.85 109.85 152.35 115.2 146.15 116.55
L 146.15 64.35 161.85 64.35
Q 169.1 64.35 173.9 69.2 178.65 74.05 178.65 81
M 174.15 47.9
Q 174.15 45.75 172.5 44.45 170.9 43.15 168 43.15
L 144.5 43.15 144.5 53.25 168 53.25
Q 170.8 53.25 172.5 51.75 174.15 50.2 174.15 47.9
M 171.3 45.6
Q 172.5 46.4 172.5 47.9 172.5 49.55 171.3 50.6 170.05 51.6 168 51.6
L 146.15 51.6 146.15 44.8 168 44.8
Q 170.05 44.8 171.3 45.6
M 258.35 44.25
L 258.9 38.2
Q 259.35 35.35 260.95 32.6
L 256.7 32.35
Q 243.7 32.35 230.1 43.95 217.4 54.85 210 72.4 202.55 89.9 202.55 107.65
L 202.55 123.1
Q 202.55 126.05 201.65 129.15 200.7 132.2 198.75 135.15
L 217.9 135.15
Q 216.25 132.05 215.7 127.35
L 215.3 104 245.1 104 245.1 123.1 244.75 128.95
Q 244.2 132.4 242.35 135.15
L 260.95 135.15
Q 259.3 132.15 258.7 128.7
L 258.35 123.1 258.35 44.25
M 256.3 34
L 258.35 34.1 257 38.75 256.7 44.25 256.7 123.1 257.05 128.5 258.35 133.5 245.1 133.5 246.45 128.65 246.7 102.35 213.7 102.35
Q 213.7 104.25 213.65 107.85
L 213.5 116.75 213.9 126.45
Q 214.25 130.45 215.35 133.5
L 201.6 133.5
Q 204.2 128.1 204.2 123.1
L 204.2 107.65
Q 204.2 90.35 211.6 73.3 218.95 56.2 231.05 45.55 244.05 34.1 256.3 34
M 246.7 92.9
L 246.7 45.2
Q 238.45 48.75 231.05 58.2 224.8 66.1 220.35 76.65 216.5 85.6 215.35 92.9
L 246.7 92.9
M 245.1 47.5
L 245.1 91.25 217.25 91.25
Q 218.65 84.45 222.05 76.55 226.1 67.2 231.6 59.9 237.95 51.35 245.1 47.5
M 329.85 40.75
Q 334.75 36.45 334.75 30.3 331.5 31.2 329.5 31.7 325.8 32.6 322.05 32.6
L 269.7 32.6 269.7 48.75
Q 276.25 45.05 281.7 45.05
L 294.15 45.05 294.15 123.1 293.8 128.95
Q 293.25 132.4 291.4 135.15
L 310 135.15
Q 308.35 132.15 307.75 128.7
L 307.4 123.05 307.4 45.05 318.35 45.05
Q 324.85 45.05 329.85 40.75
M 327.25 33.9
L 333.1 32.45
Q 332.5 37.05 328.2 40.2 323.8 43.4 318.35 43.4
L 305.75 43.4 305.75 123.05 306.1 128.65 307.3 133.5 294.3 133.5
Q 295.4 131.4 295.6 129.2
L 295.8 43.4 281.7 43.4
Q 276.5 43.4 271.3 46
L 271.3 34.25 322.05 34.25 327.25 33.9
M 373 45.05
L 383.95 45.05
Q 390.45 45.05 395.45 40.75 400.35 36.45 400.35 30.3 397.1 31.2 395.1 31.7 391.4 32.6 387.65 32.6
L 335.3 32.6 335.3 48.75
Q 341.85 45.05 347.3 45.05
L 359.75 45.05 359.75 123.1 359.4 128.95
Q 358.85 132.4 357 135.15
L 375.6 135.15
Q 373.95 132.15 373.35 128.7
L 373 123.05 373 45.05
M 383.95 43.4
L 371.35 43.4 371.35 123.05 371.7 128.65 372.9 133.5 359.9 133.5
Q 361 131.4 361.2 129.2
L 361.4 43.4 347.3 43.4
Q 342.1 43.4 336.9 46
L 336.9 34.25 387.65 34.25 392.85 33.9 398.7 32.45
Q 398.1 37.05 393.8 40.2 389.4 43.4 383.95 43.4
M 409.45 38.9
L 409.75 44.65 409.75 123.1 409.45 128.95
Q 408.9 132.4 407.05 135.15
L 460.35 135.15 460.35 118.2
Q 453.8 121.9 448.3 121.9
L 423.05 121.9 423.05 44.65
Q 423.05 39.15 426.7 32.6
L 407.05 32.6
Q 408.8 35.3 409.45 38.9
M 424 34.25
Q 421.4 39.45 421.4 44.65
L 421.4 123.55 448.3 123.55
Q 453.5 123.55 458.7 120.95
L 458.7 133.5 409.9 133.5
Q 411 131.4 411.2 129.2
L 411.4 44.65 411.05 38.1 409.9 34.25 424 34.25
M 511.85 45.85
Q 515.95 45.85 518.55 46.75
L 523.9 49.55 523.9 32.6 469.9 32.6
Q 471.65 35.3 472.3 38.9
L 472.6 44.65 472.6 123.1 472.3 128.95
Q 471.75 132.4 469.9 135.15
L 529.65 135.15 529.65 118.2 525.3 120.5
Q 522.1 121.9 517.6 121.9
L 485.9 121.9 485.9 64.6 520.05 64.6 520.05 51.35 485.9 51.35 485.9 45.85 511.85 45.85
M 517.8 44.85
L 511.85 44.25 484.25 44.25 484.25 53 518.4 53 518.4 62.95 484.25 62.95 484.25 123.55 517.6 123.55 523.4 122.9 528 120.95 528 133.5 472.6 133.5
Q 473.7 131.3 474 129
L 474.25 44.65 473.9 38.1 472.75 34.25 522.25 34.25 522.25 46.85 517.8 44.85
M 585.9 36.45
Q 580.8 33.15 576.3 31.95 571.75 30.7 565.85 30.7 557.4 30.7 552.2 35.15 546.4 40.15 546.4 49.55 546.4 55.3 549.7 60.65 552.15 64.6 557.75 69.95
L 567.8 78.75 575.6 86.2
Q 579.35 90.35 581.35 94.75 583.6 99.6 583.6 104.8 583.6 113.75 578.4 118.55 573.7 122.85 565.85 122.85 559.55 122.85 553.75 119.85 547.85 116.85 544.65 111.5
L 533.85 126.55 544.2 131.95
Q 549.5 134.25 554.6 135.5 559.65 136.65 565.85 136.65 579.35 136.65 588.5 128.3 598.1 119.55 598.1 105.6 598.1 98.35 595.45 91.65 593.1 85.85 588.65 80.1 585.25 75.75 579.75 70.5
L 566.8 58.6
Q 560.35 52.65 560.35 49 560.35 43.55 567.45 43.55 569.95 43.55 572.55 45
L 577.3 48.2 585.9 36.45
M 571.55 42.65
L 567.45 41.9
Q 562.9 41.9 560.85 43.75 558.7 45.55 558.7 49 558.7 52.9 565.3 59.15
L 578.7 71.6
Q 583.8 76.45 587.3 81 591.65 86.7 593.85 92.2 596.45 98.8 596.45 105.6 596.45 118.75 587.35 127.1 578.7 135 565.85 135 559.95 135 555.3 133.9 550.6 132.9 545.45 130.65
L 536.15 126.15 544.5 114.5
Q 547.8 119 553.75 121.75 559.65 124.5 565.85 124.5 574.35 124.5 579.55 119.75 585.25 114.55 585.25 104.8 585.25 99.35 582.9 94.25 580.95 89.9 576.9 85.4
L 568.95 77.75 559.05 69
Q 553.65 63.9 551.2 60 548.05 54.95 548.05 49.55 548.05 40.9 553.4 36.3 558.05 32.35 565.85 32.35 571.35 32.35 575.35 33.3 579.3 34.3 583.45 36.8
L 576.9 45.95 571.55 42.65
M 661.65 118.2
Q 655.1 121.9 649.6 121.9
L 624.35 121.9 624.35 44.65
Q 624.35 39.15 628 32.6
L 608.35 32.6
Q 610.1 35.3 610.75 38.9
L 611.05 44.65 611.05 123.1 610.75 128.95
Q 610.2 132.4 608.35 135.15
L 661.65 135.15 661.65 118.2
M 649.6 123.55
Q 654.8 123.55 660 120.95
L 660 133.5 611.2 133.5
Q 612.3 131.4 612.5 129.2
L 612.7 44.65 612.35 38.1 611.2 34.25 625.3 34.25
Q 622.7 39.45 622.7 44.65
L 622.7 123.55 649.6 123.55
M 673.6 38.9
L 673.9 44.65 673.9 123.1 673.6 128.95
Q 673.05 132.4 671.2 135.15
L 689.8 135.15
Q 688.15 132.15 687.5 128.7
L 687.2 123.1 687.2 44.65 687.75 38.5
Q 688.2 35.5 689.8 32.6
L 671.2 32.6
Q 672.95 35.3 673.6 38.9
M 685.95 38.35
L 685.55 44.65 685.55 123.1 685.9 128.65 687.05 133.5 674.05 133.5
Q 675.15 131.4 675.35 129.2
L 675.55 44.65 675.2 38.1 674.05 34.25 687.05 34.25 685.95 38.35
M 758.35 67.4
Q 748.95 52.8 733.95 42.85 719 32.95 704.65 31.6 706.4 34.45 707.05 38.15
L 707.35 43.9 707.35 123.1 707.05 128.95
Q 706.5 132.4 704.65 135.15
L 739.9 135.15
Q 752.85 135.15 760.75 125.85 768.6 116.55 768.6 99.9 768.6 83.4 758.35 67.4
M 734.35 45.05
Q 748.45 54.9 757.25 68.9 767 84.2 767 99.9 767 115.8 759.45 124.85 752.2 133.5 739.9 133.5
L 707.5 133.5
Q 708.6 131.4 708.8 129.2
L 708.8 38.3 707.65 33.65
Q 720.65 35.5 734.35 45.05
M 751.2 117.8
Q 756.7 111.65 756.7 100 756.7 83.8 744.55 68.5 733 54 719 49.9
L 719 123.4 737.6 123.4
Q 746.15 123.4 751.2 117.8
M 755.1 100
Q 755.1 110.75 750 116.5 745.4 121.75 737.6 121.75
L 720.65 121.75 720.65 52.1
Q 733.3 56.4 743.85 70.3 755.1 84.95 755.1 100
M 823.15 45.85
Q 827.25 45.85 829.85 46.75
L 835.2 49.55 835.2 32.6 781.2 32.6
Q 782.95 35.3 783.6 38.9
L 783.9 44.65 783.9 123.1 783.6 128.95
Q 783.05 132.4 781.2 135.15
L 840.95 135.15 840.95 118.2 836.6 120.5
Q 833.4 121.9 828.9 121.9
L 797.2 121.9 797.2 64.6 831.35 64.6 831.35 51.35 797.2 51.35 797.2 45.85 823.15 45.85
M 829.1 44.85
L 823.15 44.25 795.55 44.25 795.55 53 829.7 53 829.7 62.95 795.55 62.95 795.55 123.55 828.9 123.55 834.7 122.9 839.3 120.95 839.3 133.5 783.9 133.5
Q 785 131.3 785.3 129
L 785.55 44.65 785.2 38.1 784.05 34.25 833.55 34.25 833.55 46.85 829.1 44.85
M 898.25 46.75
Q 900.35 43.8 903.8 43.8 906.25 43.8 908.25 44.65
L 913.1 47.25 913.1 31.95 903.25 31.1
Q 893.45 31.1 887.3 37.45 881.65 43.35 881.65 51.75 881.65 56.8 883.7 65.15
L 887.4 80.6
Q 889.3 88.65 889.3 96.05 889.3 107.35 883.2 114.9 876.65 123.1 865.5 123.1
L 858.25 122.45 850.75 119.7 850.75 135.3 857.5 136.45 864.15 136.8
Q 881.3 136.8 892.85 125.6 904.35 114.3 904.35 96.85 904.35 89.5 902.35 81.2
L 898.4 65.2
Q 896.4 57.45 896.4 52.55 896.4 49.35 898.25 46.75
M 907.8 42.65
L 903.8 42.2
Q 899.6 42.2 897 45.65 894.75 48.7 894.75 52.55 894.75 57.45 896.75 65.2
L 900.7 81.3
Q 902.7 89.55 902.7 96.85 902.7 113.55 891.6 124.35 880.55 135.15 864.15 135.15
L 858.25 134.8 852.4 133.9 852.4 122.15 858.45 124.3 865.5 124.75
Q 877.45 124.75 884.5 116 890.95 108 890.95 96.05 890.95 88.95 889 80.65
L 885.25 65.1
Q 883.3 57 883.3 51.75 883.3 43.95 888.55 38.55 894.2 32.75 903.25 32.75
L 911.45 33.3 911.45 44.25 907.8 42.65 Z"/>
</g>
</defs>

<g transform="matrix( 1, 0, 0, 1, -17.25,-22.45) ">
<g transform="matrix( 1, 0, 0, 1, 66.05,79.95) ">
<g transform="matrix( 1, 0, 0, 1, 0,0) ">
<use filter="url(#Filter_1)" xlink:href="#gDeck_0_Layer0_0_FILL"/>
</g>

<g transform="matrix( 0.882354736328125, -0.3275146484375, 0, 0.882354736328125, -428.75,-18.6) ">
<use filter="url(#Filter_1)" xlink:href="#gDeck_0_Layer0_0_MEMBER_0_FILL"/>
</g>

<g transform="matrix( 0.882354736328125, -0.3275146484375, 0, 0.882354736328125, -428,-19.15) ">
<use filter="url(#Filter_1)" xlink:href="#gDeck_0_Layer0_0_MEMBER_1_FILL"/>
</g>
</g>

<g transform="matrix( 1, 0, 0, 1, 0,0) ">
<use xlink:href="#Layer0_0_FILL"/>
</g>
</g>
</svg>
