
<svg xmlns="http://www.w3.org/2000/svg" version="1.1" xmlns:xlink="http://www.w3.org/1999/xlink" preserveAspectRatio="none" x="0px" y="0px" width="476px" height="650px" viewBox="0 0 476 650">
<defs>
<g id="Magic_0_Layer0_0_MEMBER_0_FILL">
<path fill="#1A1818" stroke="none" d="
M 646.75 2626.2
L 640.25 2641.8 624.65 2648.35 640.25 2654.85 646.75 2670.45 653.3 2654.85 668.9 2648.35 653.3 2641.8 646.75 2626.2 Z"/>
</g>

<g id="Magic_0_Layer0_0_MEMBER_1_FILL">
<path fill="#1A1818" stroke="none" d="
M 682.9 2543.35
L 677.15 2557.15 663.4 2562.9 677.15 2568.65 682.9 2582.4 688.7 2568.65 702.45 2562.9 688.7 2557.15 682.9 2543.35 Z"/>
</g>

<g id="Magic_0_Layer0_0_MEMBER_2_FILL">
<path fill="#1A1818" stroke="none" d="
M 379.85 2784.65
L 372.6 2802.05 355.2 2809.35 372.6 2816.6 379.85 2834 387.15 2816.6 404.55 2809.35 387.15 2802.05 379.85 2784.65 Z"/>
</g>

<g id="Magic_0_Layer0_0_MEMBER_3_FILL">
<path fill="#1A1818" stroke="none" d="
M 313.4 2694.35
L 305.4 2713.4 286.35 2721.4 305.4 2729.35 313.4 2748.45 321.35 2729.35 340.45 2721.4 321.35 2713.4 313.4 2694.35 Z"/>
</g>

<g id="Magic_0_Layer0_0_MEMBER_4_FILL">
<path fill="#FFFFFF" stroke="none" d="
M 490.25 2419.95
Q 498.8 2419.95 504.85 2413.95 510.85 2407.9 510.85 2399.4 510.85 2390.9 504.85 2384.85 498.8 2378.85 490.25 2378.85 481.75 2378.85 475.7 2384.85 469.7 2390.9 469.7 2399.4 469.7 2407.9 475.7 2413.95 481.75 2419.95 490.25 2419.95 Z"/>
</g>

<g id="Magic_0_Layer0_0_MEMBER_5_FILL">
<path fill="#A62F76" stroke="none" d="
M 228.9 2292.35
Q 256.8 2354.95 304.75 2373.6 351.7 2391.8 416.85 2367.65 405.7 2388.45 404.25 2416.8 402.8 2445.1 411.3 2475.6 412.45 2479.8 415.2 2486.4 416.75 2490.15 419.7 2497 445.65 2501.75 476.25 2502.5 510.95 2503.35 541.05 2498.6 539.9 2491.7 539.65 2489.55 539.3 2485.95 539.65 2482.6 573.3 2474.65 592.4 2462.35 615.5 2447.4 616.15 2426.75 617.15 2394.05 578.45 2365.2 562.95 2353.65 543.35 2344.65 525.8 2336.6 509.7 2332.65 497.3 2329.6 485.65 2329.2 485.55 2256.5 453.35 2219.95 420.4 2182.55 354.6 2184.05 363.95 2235.95 392.5 2273.95 417.4 2307.1 459.25 2332.25 452.3 2334.3 446.5 2337.4 396.85 2301.25 348.1 2289.35 291.3 2275.5 228.9 2292.35
M 504.85 2413.95
Q 498.8 2419.95 490.25 2419.95 481.75 2419.95 475.7 2413.95 469.7 2407.9 469.7 2399.4 469.7 2390.9 475.7 2384.85 481.75 2378.85 490.25 2378.85 498.8 2378.85 504.85 2384.85 510.85 2390.9 510.85 2399.4 510.85 2407.9 504.85 2413.95 Z"/>
</g>

<g id="Magic_0_Layer0_0_MEMBER_6_FILL">
<path fill="#1A1818" stroke="none" d="
M 307 2574.5
L 296.95 2598.6 272.85 2608.7 296.95 2618.75 307 2642.85 317.1 2618.75 341.2 2608.7 317.1 2598.6 307 2574.5 Z"/>
</g>

<g id="Magic_0_Layer0_0_MEMBER_7_FILL">
<path fill="#1A1818" stroke="none" d="
M 590.85 2481.15
Q 570.15 2490.15 540.45 2494.85 510.05 2499.65 475.55 2499.3 443.75 2499 418.6 2494.5 404.4 2491.9 395.8 2488.65 384.15 2484.25 383.8 2479.95 383.4 2475.4 395.7 2472.2 393.2 2462.1 391.75 2450.9 386.1 2451.1 376 2452.3 365.8 2453.5 363.2 2454.3 334.45 2458.7 310.55 2466.05 269.65 2478.55 269.65 2493.35 269.65 2499.1 278.6 2505.35 287.5 2511.55 303 2516.7 338.25 2528.5 382.6 2528.5
L 364.55 2744.25
Q 363.7 2754.3 365.35 2757.05 366.9 2759.55 375.15 2762.5 394.85 2769.5 425.5 2773.25 454.65 2776.85 487.75 2776.85 520.8 2776.85 549.95 2773.25 580.6 2769.5 600.3 2762.5 608.55 2759.55 610.1 2757.05 611.75 2754.3 610.85 2744.25
L 592.8 2528.5
Q 637.2 2528.5 672.45 2516.7 687.95 2511.55 696.85 2505.35 705.8 2499.1 705.8 2493.35 705.8 2480.05 674.4 2468.85 653.9 2461.55 624 2456.3 614.05 2471.05 590.85 2481.15
M 398.35 2575.85
Q 399.05 2575.75 399.2 2577.3
L 405.2 2718.7
Q 405.4 2723.9 406.2 2725.35 406.9 2726.65 410.6 2728.85 419.7 2734 433.55 2738.8 439.65 2740.95 457.95 2746.5 442.95 2747.3 424 2745.65 406.4 2744.15 395.85 2741.5 389.95 2739.35 388.8 2737.35 387.75 2735.45 388.3 2729
L 397.4 2577.45
Q 397.65 2576 398.35 2575.85
M 532.25 2613.3
L 544.5 2608.2 549.65 2595.9 554.8 2608.2 567.05 2613.3 554.8 2618.45 549.65 2630.7 544.5 2618.45 532.25 2613.3
M 498.85 2663.2
L 511.75 2668.6 498.85 2674 493.5 2686.85 488.1 2674 475.25 2668.6 488.1 2663.2 493.5 2650.35 498.85 2663.2
M 551.05 2701.9
L 557.55 2717.5 573.15 2724.05 557.55 2730.55 551.05 2746.15 544.5 2730.55 528.9 2724.05 544.5 2717.5 551.05 2701.9 Z"/>
</g>
</defs>

<g transform="matrix( 1, 0, 0, 1, 0,0) ">
<g transform="matrix( 1, 0, 0, 1, -228.9,-2184) ">
<use xlink:href="#Magic_0_Layer0_0_MEMBER_0_FILL"/>
</g>

<g transform="matrix( 1, 0, 0, 1, -228.9,-2184) ">
<use xlink:href="#Magic_0_Layer0_0_MEMBER_1_FILL"/>
</g>

<g transform="matrix( 1, 0, 0, 1, -228.9,-2184) ">
<use xlink:href="#Magic_0_Layer0_0_MEMBER_2_FILL"/>
</g>

<g transform="matrix( 1, 0, 0, 1, -228.9,-2184) ">
<use xlink:href="#Magic_0_Layer0_0_MEMBER_3_FILL"/>
</g>

<g transform="matrix( 1, 0, 0, 1, -228.9,-2184) ">
<use xlink:href="#Magic_0_Layer0_0_MEMBER_4_FILL"/>
</g>

<g transform="matrix( 1, 0, 0, 1, -228.9,-2184) ">
<use xlink:href="#Magic_0_Layer0_0_MEMBER_5_FILL"/>
</g>

<g transform="matrix( 1, 0, 0, 1, -228.9,-2184) ">
<use xlink:href="#Magic_0_Layer0_0_MEMBER_6_FILL"/>
</g>

<g transform="matrix( 1, 0, 0, 1, -228.9,-2184) ">
<use xlink:href="#Magic_0_Layer0_0_MEMBER_7_FILL"/>
</g>
</g>
</svg>
