
<svg xmlns="http://www.w3.org/2000/svg" version="1.1" xmlns:xlink="http://www.w3.org/1999/xlink" preserveAspectRatio="none" x="0px" y="0px" width="561px" height="361px" viewBox="0 0 561 361">
<defs>
<g id="Pachydermal_0_Layer0_0_MEMBER_0_FILL">
<path fill="#0083B6" stroke="none" d="
M 1726.3 338.9
Q 1695.6 242.95 1636.3 242.95
L 1559.9 242.95
Q 1547.85 242.95 1541.9 244.25 1535.85 245.55 1533.4 248.8 1531.25 251.6 1530.85 257.55 1530.8 258.05 1530.65 271.6 1530.4 293.05 1526.3 314.2 1521.95 336.9 1514.6 351.45 1506.35 367.8 1495.95 370.25 1484.2 373.05 1470.85 357.55 1485.3 362.3 1495.9 351.45 1504.8 342.25 1510 323.05 1514.4 306.75 1515.05 288.05 1515.65 270.7 1512.9 262 1510.45 248.55 1504.7 234.65 1497.05 216 1487 207.15 1474.2 195.9 1459.1 202.3 1441 210 1420.5 242.95
L 1389.5 242.95
Q 1371.95 242.95 1353.6 252.4 1335.3 261.85 1321.85 277.7 1307.5 294.5 1302.6 314.15 1297.15 335.8 1304.25 357.1 1313.95 386.15 1312.85 407.5 1311.75 428.7 1300.3 437.35 1288.3 446.45 1267.45 439.75 1244.85 432.55 1215.2 407.75 1212.3 404.15 1206.55 405.35 1201.45 406.45 1196.4 410.7 1191.35 414.9 1189.8 419.45 1188 424.45 1191.75 427.25 1249.2 497.1 1304.3 484.05 1329.25 478.15 1352.15 455.2 1373.9 433.4 1392.55 397.55 1395.15 392.55 1397.3 396.5 1398.85 399.35 1400.65 408.3 1401.65 413.2 1403.5 422.4 1405.1 429 1406.6 428.3 1409.6 426.9 1417.95 421.75 1426.35 416.6 1430.7 414.6 1445.55 407.6 1447.85 418.55 1454.05 447.55 1470.85 493 1489.5 543.45 1501.6 557.75 1520 544.2 1542.2 538.9 1542.05 494.7 1552.75 462.15 1566.65 419.7 1594.35 419.7 1604.5 419.7 1610.25 429.4 1615.75 438.7 1616.6 455.7 1618.3 491.05 1601.1 540.85 1622.05 547.35 1638.95 561.2 1667.85 528.85 1692.55 485.95 1721.55 435.6 1721.55 407.3 1724.95 417.1 1733.8 447.2 1740.5 470.1 1744.05 477.15 1747.05 483.1 1749.1 483.05 1751.2 482.95 1750.6 476.2 1743.35 392.35 1726.3 338.9
M 1364.85 336.75
Q 1364.85 330.2 1369.3 325.55 1373.75 320.9 1380 320.9 1386.3 320.9 1390.75 325.55 1395.2 330.2 1395.2 336.75 1395.2 343.35 1390.75 348 1386.3 352.65 1380 352.65 1373.75 352.65 1369.3 348 1364.85 343.35 1364.85 336.75 Z"/>
</g>

<g id="Pachydermal_0_Layer0_0_MEMBER_1_FILL">
<path fill="#FFFFFF" stroke="none" d="
M 1369.3 325.55
Q 1364.85 330.2 1364.85 336.75 1364.85 343.35 1369.3 348 1373.75 352.65 1380 352.65 1386.3 352.65 1390.75 348 1395.2 343.35 1395.2 336.75 1395.2 330.2 1390.75 325.55 1386.3 320.9 1380 320.9 1373.75 320.9 1369.3 325.55 Z"/>
</g>
</defs>

<g transform="matrix( 1, 0, 0, 1, 0,0) ">
<g transform="matrix( 1, 0, 0, 1, -1189.2,-200) ">
<use xlink:href="#Pachydermal_0_Layer0_0_MEMBER_0_FILL"/>
</g>

<g transform="matrix( 1, 0, 0, 1, -1189.2,-200) ">
<use xlink:href="#Pachydermal_0_Layer0_0_MEMBER_1_FILL"/>
</g>
</g>
</svg>
