
<svg xmlns="http://www.w3.org/2000/svg" version="1.1" xmlns:xlink="http://www.w3.org/1999/xlink" preserveAspectRatio="none" x="0px" y="0px" width="257px" height="165px" viewBox="0 0 257 165">
<defs>
<g id="Layer0_0_FILL">
<path fill="#000000" fill-opacity="0.4980392156862745" stroke="none" d="
M 18.25 67.95
Q 2 78.75 6.3 91.1
L 23.15 138.4
Q 17.2 137.7 11.75 141.3 6.35 144.9 4.65 150.4 2.9 156.05 5.75 160.4 8.55 164.75 14.5 165.35 20.35 165.95 25.7 162.4 30.85 159.05 32.6 153.8 34.25 148.5 31.85 142.4
L 19.25 108
Q 16.65 100.75 16.85 99.7 17 98.15 21.65 94.9 34 86.1 47.45 80.1 53.35 77.4 54.5 78.1 55.25 78.5 57.5 84.7
L 67.05 111.4
Q 61.05 110.8 55.65 114.4 50.3 117.9 48.55 123.5 46.75 129.1 49.65 133.5 52.5 137.9 58.35 138.4 64.1 139.05 69.55 135.5 74.85 131.95 76.45 126.8 78.1 121.55 75.7 115.4
L 55.95 61.35
Q 53.55 54.85 53.05 54.4 51.75 53.25 46.35 55.15 28.2 61.45 18.25 67.95
M 166.4 76.8
Q 168.15 71.55 165.65 65.4
L 145.9 11.35
Q 143.6 4.85 143.05 4.4 141.8 3.3 136.3 5.15 118.15 11.45 108.25 17.95 91.9 28.85 96.3 41.1
L 113.1 88.4
Q 107.2 87.7 101.75 91.3 96.4 94.85 94.6 100.4 92.85 106.1 95.75 110.4 98.55 114.7 104.5 115.4 110.3 116 115.65 112.4 120.9 108.95 122.55 103.8 124.3 98.5 121.8 92.4
L 109.25 58
Q 106.65 50.8 106.8 49.7 107.05 48.15 111.6 44.9 124 36.1 137.4 30.1 143.35 27.4 144.5 28.1 145.25 28.5 147.5 34.7
L 157.05 61.4
Q 151.05 60.8 145.6 64.4 140.3 67.9 138.55 73.5 136.7 79 139.6 83.5 142.55 87.9 148.3 88.4 154.1 89.05 159.55 85.5 164.85 81.95 166.4 76.8
M 249.55 95.5
Q 254.85 91.95 256.4 86.8 258.15 81.55 255.65 75.4
L 235.9 21.35
Q 233.6 14.85 233.05 14.4 231.8 13.3 226.3 15.15 208.15 21.45 198.25 27.95 181.9 38.85 186.3 51.1
L 203.1 98.4
Q 197.2 97.7 191.75 101.3 186.4 104.85 184.6 110.4 182.85 116.1 185.75 120.4 188.55 124.7 194.5 125.4 200.3 126 205.65 122.4 210.9 118.95 212.55 113.8 214.3 108.5 211.8 102.4
L 199.25 68
Q 196.65 60.8 196.8 59.7 197.05 58.15 201.6 54.9 214 46.1 227.4 40.1 233.35 37.4 234.5 38.1 235.25 38.5 237.5 44.7
L 247.05 71.4
Q 241.05 70.8 235.6 74.4 230.3 77.9 228.55 83.5 226.7 89 229.6 93.5 232.55 97.9 238.3 98.4 244.1 99.05 249.55 95.5 Z"/>
</g>

<g id="Layer0_1_MEMBER_0_MEMBER_0_MEMBER_0_MEMBER_0_FILL">
<path fill="#0051A4" stroke="none" d="
M 12.9 95.75
Q 13.05 94.2 17.7 90.95 30.05 82.15 43.5 76.15 49.4 73.45 50.55 74.15 51.3 74.55 53.55 80.75
L 63.1 107.45
Q 57.1 106.85 51.7 110.45 46.35 113.95 44.6 119.55 42.8 125.15 45.7 129.55 48.55 133.95 54.4 134.45 60.15 135.1 65.6 131.55 70.9 128 72.5 122.85 74.15 117.6 71.75 111.45
L 52 57.4
Q 49.6 50.9 49.1 50.45 47.8 49.3 42.4 51.2 24.25 57.5 14.3 64 -1.95 74.8 2.35 87.15
L 19.2 134.45
Q 13.25 133.75 7.8 137.35 2.4 140.95 0.7 146.45 -1.05 152.1 1.8 156.45 4.6 160.8 10.55 161.4 16.4 162 21.75 158.45 26.9 155.1 28.65 149.85 30.3 144.55 27.9 138.45
L 15.3 104.05
Q 12.7 96.8 12.9 95.75 Z"/>
</g>

<g id="Layer0_1_MEMBER_1_MEMBER_0_MEMBER_0_MEMBER_0_FILL">
<path fill="#0051A4" stroke="none" d="
M 182.45 72.85
Q 184.2 67.6 181.7 61.45
L 161.95 7.4
Q 159.65 0.9 159.1 0.45 157.85 -0.65 152.35 1.2 134.2 7.5 124.3 14 107.95 24.9 112.35 37.15
L 129.15 84.45
Q 123.25 83.75 117.8 87.35 112.45 90.9 110.65 96.45 108.9 102.15 111.8 106.45 114.6 110.75 120.55 111.45 126.35 112.05 131.7 108.45 136.95 105 138.6 99.85 140.35 94.55 137.85 88.45
L 125.3 54.05
Q 122.7 46.85 122.85 45.75 123.1 44.2 127.65 40.95 140.05 32.15 153.45 26.15 159.4 23.45 160.55 24.15 161.3 24.55 163.55 30.75
L 173.1 57.45
Q 167.1 56.85 161.65 60.45 156.35 63.95 154.6 69.55 152.75 75.05 155.65 79.55 158.6 83.95 164.35 84.45 170.15 85.1 175.6 81.55 180.9 78 182.45 72.85 Z"/>
</g>

<g id="Layer0_1_MEMBER_2_MEMBER_0_MEMBER_0_MEMBER_0_FILL">
<path fill="#0051A4" stroke="none" d="
M 272.35 11.2
Q 254.2 17.5 244.3 24 227.95 34.9 232.35 47.15
L 249.15 94.45
Q 243.25 93.75 237.8 97.35 232.45 100.9 230.65 106.45 228.9 112.15 231.8 116.45 234.6 120.75 240.55 121.45 246.35 122.05 251.7 118.45 256.95 115 258.6 109.85 260.35 104.55 257.85 98.45
L 245.3 64.05
Q 242.7 56.85 242.85 55.75 243.1 54.2 247.65 50.95 260.05 42.15 273.45 36.15 279.4 33.45 280.55 34.15 281.3 34.55 283.55 40.75
L 293.1 67.45
Q 287.1 66.85 281.65 70.45 276.35 73.95 274.6 79.55 272.75 85.05 275.65 89.55 278.6 93.95 284.35 94.45 290.15 95.1 295.6 91.55 300.9 88 302.45 82.85 304.2 77.6 301.7 71.45
L 281.95 17.4
Q 279.65 10.9 279.1 10.45 277.85 9.35 272.35 11.2 Z"/>
</g>
</defs>

<g transform="matrix( 1, 0, 0, 1, 0,0) ">
<use xlink:href="#Layer0_0_FILL"/>
</g>

<g transform="matrix( 1, 0, 0, 1, -0.05,-0.05) ">
<use xlink:href="#Layer0_1_MEMBER_0_MEMBER_0_MEMBER_0_MEMBER_0_FILL"/>
</g>

<g transform="matrix( 1, 0, 0, 1, -20.05,-0.05) ">
<use xlink:href="#Layer0_1_MEMBER_1_MEMBER_0_MEMBER_0_MEMBER_0_FILL"/>
</g>

<g transform="matrix( 1, 0, 0, 1, -50.05,-0.05) ">
<use xlink:href="#Layer0_1_MEMBER_2_MEMBER_0_MEMBER_0_MEMBER_0_FILL"/>
</g>
</svg>
