
<svg xmlns="http://www.w3.org/2000/svg" version="1.1" xmlns:xlink="http://www.w3.org/1999/xlink" preserveAspectRatio="none" x="0px" y="0px" width="849px" height="891px" viewBox="0 0 849 891">
<defs>
<g id="Lion_0_Layer0_0_FILL">
<path fill="#141414" stroke="none" d="
M 380.45 497.2
Q 370.2 520.9 363.65 537.8 345.3 585.2 338.75 622.6 330.55 669.65 338.6 711.1
L 338.55 711.1
Q 345.4 753.7 369.1 789.75 392.85 825.8 429.35 848.9 465.8 872 508.55 878.05 551.25 884.15 592.75 872.1 540.3 827.5 501.7 770.65 463.75 714.85 441.75 650.95 419.75 587.15 415.2 519.9 410.55 451.5 424.25 384.3 417.15 411.95 397.45 458 391.95 470.8 380.45 497.2
M 243.85 278.55
Q 259.7 275.7 300.7 247.8 270.75 226.55 244.2 235.85 235.5 237.95 238.45 229.45 263.55 214.5 272.15 198.5 190.2 216.3 187.55 254.9 202.75 246.6 213.55 238.95 226.75 230.05 219.3 248.05 184.85 278.5 140.4 318.45
L 217 273.7
Q 230.45 279 243.85 278.55
M 659.65 101.9
Q 685.6 126.3 704.4 154.75 760.55 231.3 818.1 248.65 751.55 94.4 627.05 37.4 619.1 32.95 609.45 28.8 588.35 20.2 565.75 14.05 504.7 -1.55 429.2 0.15 354.95 1.8 294.9 19.45 231.1 38.2 206 68.9 177.95 103.2 205.4 145.5
L 137.5 187.25 135.25 237.05
Q 33.85 311 3.1 340.25 -6.9 350.6 15.3 373.25 13.5 425.8 17.1 430.15
L 39.15 454
Q 33.5 477.05 32.4 490.8 31.1 506.6 34.85 518.2 38.7 530.1 49 541.35 58.6 551.85 77.2 565.25 88.25 509.1 195.1 515 167.4 533.95 146.25 553.5 121.45 576.4 106.9 599.05 106 600.45 103.2 605.1
L 101.75 607.75
Q 96.75 616.8 93.45 625.6 78.55 664.65 87.05 705.7 95.65 747.25 125.6 777.4 123.7 768.8 122.5 759.1 121.7 745.4 125.3 732.1 128.8 718.95 136.25 707.5 175.4 766.95 229 813.75 282.65 860.65 346.9 891.45 312.65 860.9 290.3 813.25 267.75 765.05 266.4 718.45 265.45 684.55 273.9 651.65 282.25 619.1 299.2 590.05 314 566.75 334.75 543.4
L 336.95 541.1 335.25 542.8 338.45 539.25
Q 213.35 612.6 213.7 718.35 174.75 661 199.4 597.65 210.05 570.3 233.25 539.3 252.33515625 513.769921875 283.6 481.2 283.6255859375 481.175390625 283.65 481.15
L 283.7 481.1
Q 294.25 470.15 303.9 460.5 337.65 422.85 411.95 328.9 387.25 350.25 364.5 365.1 338.05 382.35 311.3 392.75 302.6 396.75 293.85 398.95
L 293.8 399
Q 289.6 400.05 286.35 400.55 281.8 402.3 277.25 400.45 272.75 398.55 270.7 394.1 268.7 389.65 270.3 385.05 271.9 380.4 276.25 378.15 303.1 355.65 335.7 342.2 244.4 352.3 189.1 381.65 252.55 412.1 217.9 444.2 209.05 451.65 193.1 452.2 181.15 452.6 160.3 448.85 136.05 444.05 123.7 442.1 102.25 438.8 87.6 440 76.45 421.1 78.1 390.85 108.2 394.6 119 382.95 125.95 353.9 30.2 352.1 25.5 350.4 30.75 346.25
L 157.9 249 159.35 200.55 244.15 149.9
Q 219.25 84.85 290.4 61.1 277.7 77.9 273.25 92.3 267.9 109.6 273.2 126.6 274.3 130.15 276.05 133.7 298.65 113.7 325.55 121.65 348.7 128.45 373.9 155.5 395 178.1 415.45 212.4 432.4 240.8 444.6 269.45
L 444.6 269.5
Q 449.75 281.55 452.75 290.8
L 452.55 291 454.8 297.7 454.9 297.6 457.7 307
Q 463.2 325.45 466.65 342.85 487.2 437 485.8 567.95 490.45 701.15 662.85 841.15
L 684.2 712.95
Q 567.5 607.35 551.45 476.4 547.9 461.3 537.8 415.55 529.35 377.05 523.65 354.3 506.15 283.85 485.5 239.5 459 182.6 420.25 150.4 375.7 113.3 311.3 105.3 347.5 78.85 380.6 80.2 411.05 81.45 440 106.35 465.75 128.5 491.95 170.9 513.75 206.2 539.1 261.2 553.9 293.4 583.9 364.4 613.25 433.9 628.95 467.7 654.45 522.7 676.75 558.4 703.5 601.1 729.95 623.65 747.65 565.95 781.85 501.55 722.1 458.85 667.4 364.2 613.35 218.85 564.4 165.85 489.25 75.8 379.25 64.3 407.45 50.7 442.95 54.25 475.35 57.45 509.65 74.25 541.85 90.05 569.2 114.5 596.3 138.7 611.7 165.05 702.2 338.9 823.4 435.55 857.1 397.55 847.05 323.4 774.6 304.05 711.25 224.95 601.55 62.4 468.85 33.9 501.8 27.25 537.15 34.6 569.9 41.35 602.35 59.55 632.85 76.65 659.65 101.9 Z"/>
</g>
</defs>

<g transform="matrix( 1, 0, 0, 1, 0,0) ">
<g transform="matrix( 1, 0, 0, 1, 0,0) ">
<use xlink:href="#Lion_0_Layer0_0_FILL"/>
</g>
</g>
</svg>
