
<svg xmlns="http://www.w3.org/2000/svg" version="1.1" xmlns:xlink="http://www.w3.org/1999/xlink" preserveAspectRatio="none" x="0px" y="0px" width="506px" height="600px" viewBox="0 0 506 600">
<defs>
<g id="Shark_0_Layer0_0_MEMBER_0_FILL">
<path fill="#37A0AC" stroke="none" d="
M 1484.1 2594.7
Q 1474.6896484375 2586.885546875 1465.8 2578.8 1461.55 2600.825 1461.55 2625.65 1461.5 2652.2 1466.45 2676.5 1478.1 2734 1512.1 2759.25 1515.45 2719.35 1525.1 2691.2 1535.4 2661.05 1553.15 2643.75 1516.4 2621.5 1484.1 2594.7
M 1446.1 2356.15
Q 1456.5724609375 2328.1888671875 1473.15 2303.2 1377.508984375 2317.71171875 1341.7 2356.35 1342.7 2399.05 1364.9 2446.7 1387.15 2494.35 1427.25 2539.75 1445.141015625 2560.0171875 1465.8 2578.8
L 1465.8 2578.75
Q 1433.9 2517.15 1430.65 2456.65 1427.85 2404.8 1446.1 2356.15
M 1489.2 2281.45
Q 1480.5705078125 2292.024609375 1473.15 2303.2 1485.6921875 2301.2884765625 1499.25 2299.8 1606.7 2287.95 1753.4 2304.25 1720.2 2274.2 1663.65 2256.35 1606 2238.15 1536.85 2236.65 1512.1 2253.3 1489.2 2281.45 Z"/>
</g>

<g id="Shark_0_Layer0_0_MEMBER_1_FILL">
<path fill="#26667E" stroke="none" d="
M 1246.7 2519.95
Q 1267.8 2496.4 1293.35 2477.35 1319.25 2458.05 1346.05 2446.15 1338.25 2427.95 1334 2406.9 1329.75 2385.95 1329.35 2363.4 1294.4 2390.2 1273.4 2429.45 1251.85 2469.7 1246.7 2519.95 Z"/>
</g>

<g id="Shark_0_Layer0_0_MEMBER_2_FILL">
<path fill="#26667E" stroke="none" d="
M 1571.25 2372.8
Q 1551.05 2359.15 1532.9 2335.9 1528.9 2359.4 1547.35 2381.6 1563.8 2401.45 1590.25 2412.15 1534.6 2438.1 1507.85 2471.9 1472.45 2516.65 1495.1 2568 1503.4 2579 1505.75 2580.15 1507.65 2581.05 1510.45 2580.55 1512.45 2580.2 1517.85 2578.35 1545.2 2568.8 1570.25 2570.15 1589.55 2571.2 1617.85 2580.1 1605.75 2582.3 1589 2591.7 1571.75 2601.35 1562.65 2611.5 1556.25 2618.65 1555.65 2623.7 1555.25 2627.3 1557.7 2629.55 1559.3 2631.05 1563.25 2628.85 1566.1 2627.3 1570.7 2623.45 1589.85 2607.6 1618.9 2599.1 1638.8 2593.35 1674.4 2588.7 1661.8 2577.55 1643.1 2568.9 1624.05 2560.1 1602.25 2555.65 1552.8 2545.45 1511.35 2560.2 1502 2539.8 1506.3 2520.35 1510.05 2503.5 1524.1 2487 1544 2493.5 1563.6 2503.5 1584.8 2514.3 1599.15 2526 1597.45 2503.65 1588.7 2483.8 1580.5 2465.2 1567.05 2450.8 1582.4 2440.5 1602.65 2429.8 1631.05 2415.3 1645.65 2407.75 1671.85 2394.2 1688.35 2383.8 1735.2 2354.25 1749.55 2321.55 1751.95 2316.1 1751.4 2314.05 1750.9 2311.95 1747.05 2311.75 1729.35 2335.4 1681.9 2363.55 1666.45 2372.7 1646.7 2382.95 1636.35 2388.3 1622.9 2395.1 1593.15 2387.6 1571.25 2372.8 Z"/>
</g>

<g id="Shark_0_Layer0_0_MEMBER_3_FILL">
<path fill="#37A0AC" stroke="none" d="
M 1362.35 2305.3
Q 1346.25 2324.4 1344.25 2337.95 1359 2323 1394.4 2308.45 1430.6 2293.55 1466.3 2288.3 1474.65 2267.55 1490.8 2253.4 1503.8 2242.05 1524.65 2232.9 1493.75 2229.45 1460.3 2240.2 1431 2249.65 1403.6 2268.5 1379.05 2285.45 1362.35 2305.3 Z"/>
</g>

<g id="Shark_0_Layer0_0_MEMBER_4_FILL">
<path fill="#26667E" stroke="none" d="
M 1451.95 2173.95
Q 1411.05 2157.6 1353.85 2159.45 1388.35 2184.1 1417.25 2217.8 1443.7 2248.7 1466.3 2288.3 1475.55 2269.95 1491.8 2255.4 1505.1 2243.5 1524.65 2232.9 1497.05 2191.95 1451.95 2173.95 Z"/>
</g>

<g id="Shark_0_Layer0_0_MEMBER_5_FILL">
<path fill="#26667E" stroke="none" d="
M 1465.8 2578.75
Q 1461.55 2600.8 1461.55 2625.65 1461.5 2652.2 1466.45 2676.5 1478.1 2734 1512.1 2759.25 1515.45 2719.3 1525.1 2691.2 1535.45 2661.05 1553.2 2643.75 1505.75 2615.05 1465.8 2578.75 Z"/>
</g>
</defs>

<g transform="matrix( 1, 0, 0, 1, 0,0) ">
<g transform="matrix( 1, 0, 0, 1, -1246.7,-2159.25) ">
<use xlink:href="#Shark_0_Layer0_0_MEMBER_0_FILL"/>
</g>

<g transform="matrix( 1, 0, 0, 1, -1246.7,-2159.25) ">
<use xlink:href="#Shark_0_Layer0_0_MEMBER_1_FILL"/>
</g>

<g transform="matrix( 1, 0, 0, 1, -1246.7,-2159.25) ">
<use xlink:href="#Shark_0_Layer0_0_MEMBER_2_FILL"/>
</g>

<g transform="matrix( 1, 0, 0, 1, -1246.7,-2159.25) ">
<use xlink:href="#Shark_0_Layer0_0_MEMBER_3_FILL"/>
</g>

<g transform="matrix( 1, 0, 0, 1, -1246.7,-2159.25) ">
<use xlink:href="#Shark_0_Layer0_0_MEMBER_4_FILL"/>
</g>

<g transform="matrix( 1, 0, 0, 1, -1246.7,-2159.25) ">
<use xlink:href="#Shark_0_Layer0_0_MEMBER_5_FILL"/>
</g>
</g>
</svg>
