
<svg xmlns="http://www.w3.org/2000/svg" version="1.1" xmlns:xlink="http://www.w3.org/1999/xlink" preserveAspectRatio="none" x="0px" y="0px" width="649px" height="360px" viewBox="0 0 649 360">
<defs>
<g id="Tortoise_0_Layer0_0_MEMBER_0_FILL">
<path fill="#1E387F" stroke="none" d="
M 230.35 1441.2
Q 224.4 1457.4 219.55 1477.9 206.6 1478.75 198 1486.25 190 1493.15 187.65 1503.95 185.35 1514.6 189.25 1525.45 193.4 1536.95 203.45 1545.15 196.1 1561.15 190.2 1577.05 184.6 1592.1 179.2 1610.05 174.95 1624.25 175.05 1627.25 175.2 1632.95 182.7 1640.75 207.35 1666.35 253.45 1672 294.5 1677.05 332.7 1665.1 338.75 1663.2 339.9 1659.95 340.5 1658.05 339.9 1650 339.35 1641.6 339.15 1639.5 338.75 1634.55 339.35 1634.25
L 345.8 1634.95
Q 421.55 1643.2 495.85 1636 501 1635.5 501.2 1635.6 501.65 1635.9 501.95 1640.45 503.05 1654.7 506.65 1665.9 508.35 1671.2 510.7 1673.35 512.9 1675.35 518.2 1676.6 547.75 1683.65 589.7 1677.8 633.8 1671.65 660.35 1654.9 666.6 1650.95 668.2 1648.15 669.6 1645.7 669.15 1640.1 668.2 1626.8 663.85 1613.6 661.5 1606.4 653.9 1588.4 652.8 1585.15 656.5 1585.95 693.6 1591.45 720.8 1587.4 750 1583.1 780.65 1566.15 787.45 1562.4 793.6 1557.8 801.65 1551.8 806.7 1545.6 812.4 1538.65 813.75 1532.95 815.65 1525.1 808.8 1520.85 822.7 1512.9 824.7 1502.05 826.65 1491.5 816.9 1481.1 822 1474.55 822.9 1466.35 823.8 1458.6 820.9 1451.05 818 1443.55 812.1 1438.15 805.9 1432.45 797.8 1430.4 814.35 1420.05 800.6 1408.7 795.6 1404.6 787.5 1401.1 780.75 1398.2 775.4 1397.1 765.65 1369.35 740.05 1355 716.95 1342.1 687.6 1343.2 663.1 1344.1 642.7 1354.55 621.4 1365.45 611.7 1383.4 605.85 1394.25 602.4 1411.6 600.15 1423 598 1443.55 587.1 1415.25 570.8 1392.65 541.95 1352.7 504.45 1335.65 469.45 1319.7 417.25 1319.7 358.65 1319.7 319 1338.5 274.9 1359.4 246.7 1406.55 237.35 1422.2 230.35 1441.2 Z"/>
</g>

<g id="Tortoise_0_Layer0_0_MEMBER_1_FILL">
<path fill="#FFFFFF" stroke="none" d="
M 518.55 1359.7
Q 513.9 1356.45 507.85 1352.9 489.45 1344.15 465.15 1339.55 441.85 1335.2 415.95 1335.2 403.45 1335.2 391.15 1336.25
L 388.05 1349.4 401.75 1362.5
Q 452.15 1348 518.55 1359.7
M 231 1487.25
Q 228.15 1500 237 1509.55 243.05 1516 255.8 1521.75 267.6 1491.55 281.05 1467.25
L 236.5 1463.9
Q 233.95 1473.3 231 1487.25
M 295.45 1369.3
L 313.45 1370.65
Q 323.6 1366.85 341.5 1360.4
L 319.8 1375.6 337.1 1397.7
Q 363.75 1375.25 393.5 1365.1
L 381.75 1353.9 381.5 1353.6 380.65 1352.85 380.65 1352.8 380.4 1352.6 379.65 1351.85 379.95 1350.6 379.95 1350.45 383.15 1337.05
Q 363.9 1339.15 345.9 1343.8 332.6 1347.25 319.35 1354 306.5 1360.55 295.45 1369.3
M 310.9 1379
L 288.6 1375.95
Q 270.1 1393.25 258.05 1413.35 251 1425.15 246.2 1436 241.7 1446.25 238.25 1457.75
L 285.25 1459.9
Q 295.35 1442.8 307.7 1427.7 320.7 1411.85 335.4 1399.2
L 310.9 1379 Z"/>
</g>

<g id="Tortoise_0_Layer0_0_MEMBER_2_FILL">
<path fill="#FFFFFF" stroke="none" d="
M 225.05 1518.15
Q 214.55 1506.65 216.2 1490.5 205.65 1492.85 201.25 1503.4 196.95 1513.8 202.05 1523.6 210.3 1539.55 243.25 1553.7 247.15 1542.35 250.15 1534.55 233.05 1526.95 225.05 1518.15 Z"/>
</g>

<g id="Tortoise_0_Layer0_0_MEMBER_3_FILL">
<path fill="#FFFFFF" stroke="none" d="
M 239.45 1567.9
Q 225.85 1562.15 214.65 1555.55 208.4 1569.6 202.45 1587.2 199.1 1597.05 192.3 1619.25 190.3 1625.85 190.3 1626.1 190.4 1627.6 194.5 1631.25 199.5 1635.7 206.05 1639.8 212.1 1643.6 218.15 1646.2 228.6 1602.4 239.45 1567.9 Z"/>
</g>

<g id="Tortoise_0_Layer0_0_MEMBER_4_FILL">
<path fill="#499AA4" stroke="none" d="
M 285.25 1459.9
L 286.9 1459.9
Q 295.7 1468.2 322.1 1493.6
L 308.65 1522.4
Q 309.45 1519.2 311.2 1509.25 313 1499.05 313.7 1496.05
L 283.85 1467.45 281.05 1467.25
Q 267.6 1491.55 255.8 1521.75 270.4 1528.25 305.15 1534.95 345.65 1542.7 388.3 1545.15 402.2 1545.9 417.05 1545.9
L 406.65 1501.9
Q 397.05 1501.95 379.55 1501.65 360.8 1501.35 352.45 1501.35 344.75 1494.2 333.55 1481.85 321.25 1468.05 315.25 1461.6
L 348.85 1411.5 324.7 1460.7 355.55 1493.8
Q 365.15 1494.5 383.3 1494.15 402.65 1493.75 411.05 1494.2 427.75 1479.75 436.85 1471.25
L 413.7 1417.45 444.35 1465.6 493.75 1466.8
Q 505.15 1418.75 505.9 1415.45 502.35 1408.45 495.3 1389.75
L 489 1372.4 497.8 1388.55
Q 507.25 1405.8 510.55 1411.1 519.1 1411 532.85 1410.2 552.45 1409.05 555.1 1408.95
L 513.05 1418.45 501.65 1466.55 531.55 1495.15 579.25 1500.3
Q 569.2 1503.2 554.5 1503.3 537.15 1502.9 528.5 1502.7
L 497 1473.8 444.65 1474.35 414.75 1502.95 424.9 1545.85
Q 460.1 1545.35 495.85 1540.75 532.45 1536.05 562.8 1527.9 572.85 1525.2 575.85 1524.15 582.95 1521.65 587 1518.1 597.5 1509 593.4 1488.1 586.6 1457.45 581.35 1442.25 573.2 1418.6 560.05 1400.4 542.45 1376.05 518.55 1359.7 452.15 1348 401.75 1362.5
L 417.95 1378 470.15 1385.55 414.85 1385.55
Q 400.6 1371.9 393.5 1365.1 379.25 1369.95 366.55 1376.85
L 359.65 1380.8
Q 348 1387.8 336.7 1397.2
L 343.4 1405.8 334.85 1398.75
Q 307.3 1422.5 285.25 1459.9 Z"/>
</g>

<g id="Tortoise_0_Layer0_0_MEMBER_5_FILL">
<path fill="#499AA4" stroke="none" d="
M 250.15 1534.55
Q 247.4 1541.7 243.25 1553.7 269.25 1564.9 303.25 1572.25 340.15 1580.3 383.4 1583.35 425.15 1586.3 468 1584.3 498.8 1582.9 525.4 1577.85 552.7 1572.7 572.9 1564.2 605.65 1550.4 615.75 1533.45 627.65 1513.4 608.85 1488.1 611.25 1502.8 608.3 1512.7 605.55 1522.1 597.6 1528.5 590.5 1534.2 577.6 1538.8 568.35 1542.1 549.4 1546.85
L 543.75 1548.3
Q 515.15 1555.6 479.85 1559.25 444.7 1562.85 409 1562.1 391.85 1561.7 365.6 1559.1 329.55 1555.5 300.7 1549.55 269.55 1543.15 250.15 1534.55 Z"/>
</g>

<g id="Tortoise_0_Layer0_0_MEMBER_6_FILL">
<path fill="#FBBD15" stroke="none" d="
M 617.85 1407.65
Q 614.7 1418 613.2 1433.25 613.15 1434.05 611.25 1461.05 617.2 1461.6 623.9 1455.15 627.45 1451.4 629.25 1449.6 632.4 1446.35 634.75 1444.9 653.65 1433.05 680.45 1430.1 699.6 1428 730.2 1430.2 744.2 1431.25 758.05 1429.4 773.35 1427.3 784.9 1422.1 792.4 1418.75 791.95 1417.15 791.5 1415.65 782.65 1412.7 775.9 1410.5 769.45 1409.5 766.15 1409 765.95 1408.8 765.7 1408.65 764.45 1405.45 755.7 1383.6 743.15 1373.1 729.5 1361.65 706.6 1359.3 690.7 1357.7 678.3 1359.5 664.65 1361.5 651.5 1368.1 626 1380.9 617.85 1407.65 Z"/>
</g>

<g id="Tortoise_0_Layer0_0_MEMBER_7_FILL">
<path fill="#FFFFFF" stroke="none" d="
M 619.15 1402.95
Q 615.2 1413.8 613.5 1430.25 613.25 1432.55 611.25 1461.05 617.1 1461.6 624.25 1454.8 628.1 1450.9 630.05 1449.05 633.45 1445.7 635.95 1444.15 636 1443.7 637.5 1421.15 638.3 1408.55 639.95 1400.85 644.35 1379.75 661.35 1363.8 629.1 1375.45 619.15 1402.95 Z"/>
</g>

<g id="Tortoise_0_Layer0_0_MEMBER_8_FILL">
<path fill="#FFFFFF" stroke="none" d="
M 750.8 1468
Q 748.2 1463.35 742.1 1461.15 735.95 1458.95 729.5 1460.5 725 1461.55 721.8 1464.15 718.7 1466.7 717.65 1470.05 721 1466.85 726.2 1465.6 731.2 1464.45 736.2 1465.55 741.15 1466.6 744.5 1469.5
L 750.8 1468 Z"/>
</g>

<g id="Tortoise_0_Layer0_0_MEMBER_9_FILL">
<path fill="#499AA4" stroke="none" d="
M 633.2 1466.45
Q 626.65 1471.8 619.9 1473.85 626.2 1481.95 629 1487.55 631.4 1492.3 633.6 1500.35 640.7 1526.15 625.05 1547.15 611.45 1565.35 581.85 1577.85 560.2 1587 531.25 1592.5 503.1 1597.85 470.7 1599.35 426.65 1601.4 383.8 1598.35 339.3 1595.2 301.35 1586.95 266.25 1579.3 239.45 1567.9 228.6 1602.4 218.15 1646.2 229.4 1652.5 246.55 1656 262.65 1659.25 278.4 1659 286.15 1658.8 287.6 1657.65 288.9 1656.55 291.15 1649.05 293.5 1641.25 294.6 1637.55 296.45 1631.2 297.6 1626.15 299.55 1617.85 301.4 1616.6 303.35 1615.25 311.8 1616.65 361.55 1624.9 408.9 1626 455.1 1627.1 506.25 1621.55 513.6 1620.8 513.9 1620.95 514.4 1621.3 514.6 1627.95 515 1642.7 516.7 1652.4 518.3 1661.35 520.1 1663.05 521.85 1664.7 530.95 1665.95 551.15 1668.75 582.4 1664.6 611.1 1660.75 627 1654.5 633.5 1651.95 634.3 1649 634.8 1647.05 632.7 1640.05 630.6 1632.95 627.6 1624.5 623.4 1612.45 616.6 1598.65 627.5 1591.9 634.2 1586.2 640 1581.25 649.4 1571.05 666.25 1576.35 694.35 1575.55 720.55 1574.85 738.8 1569.7 756.15 1563.85 769.8 1556.25 783.8 1548.45 796.55 1537.3 801.1 1533.1 795.85 1532.45 794.3 1532.25 787.7 1532.75 781.7 1533.15 774.85 1530.85 768.8 1528.8 764.55 1525.6 760.3 1522.4 760.6 1520.05 760.9 1517.45 766.95 1517.3 775.55 1517.1 781.3 1516.3 787.2 1515.5 792.05 1513.8 808.2 1508.2 809.85 1499.85 811.4 1491.95 799.55 1483.85 793.2 1484.7 787.2 1481.55 781.55 1478.6 777.85 1472.95 769.25 1473.35 762.75 1477.05 763.75 1489.1 755.55 1498.1 747.3 1507.1 735.05 1507.1 723.55 1507.1 715.45 1498.95 707.3 1490.8 707.3 1479.3 707.3 1473.65 709.5 1468.5 711.6 1463.5 715.45 1459.65 719.3 1455.8 724.25 1453.7 729.45 1451.5 735.05 1451.5 740.7 1451.5 745.9 1453.7 750.85 1455.8 754.7 1459.65 757.75 1462.7 759.65 1466.3 766.1 1463.2 773.75 1462.25 772.65 1455.65 773.95 1450.6 775.6 1444.35 780.75 1441 780.3 1438.7 780.1 1438 779.8 1436.9 778.8 1435.2 766.05 1440.2 754.55 1441.55 744.5 1442.7 729.1 1441.6 695.05 1439.15 673.95 1444.25 658.9 1447.85 643.8 1457.85 643.65 1457.95 633.2 1466.45 Z"/>
</g>

<g id="Tortoise_0_Layer0_0_MEMBER_10_FILL">
<path fill="#499AA4" stroke="none" d="
M 655.95 1641.15
Q 656 1640.55 655.05 1633.75 653.65 1623.55 650.6 1615.05 649.95 1613.15 643.6 1597.9 641.85 1599.25 638.45 1601.45 634.95 1603.8 633.3 1605 637.5 1613.65 641.85 1626.3 645.6 1637.3 647.9 1646.45 650.2 1645.65 651.25 1645.2 655.55 1643.45 655.95 1641.15 Z"/>
</g>

<g id="Tortoise_0_Layer0_0_MEMBER_11_FILL">
<path fill="#FFFFFF" stroke="none" d="
M 804.75 1443.7
Q 799 1440.9 792.95 1442.85 788.75 1444.2 785.8 1447.55 782.9 1450.8 781.9 1455.1 785.05 1451 789.85 1449.45 794.55 1447.95 799.25 1449.35 803.8 1450.7 806.95 1454.4
L 812.85 1452.5
Q 810.45 1446.5 804.75 1443.7 Z"/>
</g>

<g id="Tortoise_0_Layer0_0_MEMBER_12_FILL">
<path fill="#1E387F" stroke="none" d="
M 230.45 1618.2
Q 230.95 1616.2 228.35 1615.3 225.75 1614.4 224.8 1616.3
L 211.5 1645.5 222.5 1650.55 230.45 1618.2 Z"/>
</g>

<g id="Tortoise_0_Layer0_0_MEMBER_13_FILL">
<path fill="#1E387F" stroke="none" d="
M 260.85 1625.2
Q 260.8 1623.1 258.15 1622.9 255.45 1622.75 254.95 1624.7
L 248.05 1657.3 258.35 1661.3 260.85 1625.2 Z"/>
</g>

<g id="Tortoise_0_Layer0_0_MEMBER_14_FILL">
<path fill="#499AA4" stroke="none" d="
M 327.7 1650.6
Q 328.2 1649.75 327.65 1643.2 327.1 1636.9 326.15 1630.6
L 312.95 1628.65
Q 312.9 1628.9 308.95 1643.65 306.75 1651.9 304.85 1657.6 311.15 1656.4 321 1653.5 327 1651.8 327.7 1650.6 Z"/>
</g>

<g id="Tortoise_0_Layer0_0_MEMBER_15_FILL">
<path fill="#1E387F" stroke="none" d="
M 588.65 1630.5
Q 586 1631.2 586.3 1633.25
L 591.45 1666.2 602.85 1662.05 592.1 1631.8
Q 591.3 1629.85 588.65 1630.5 Z"/>
</g>

<g id="Tortoise_0_Layer0_0_MEMBER_16_FILL">
<path fill="#1E387F" stroke="none" d="
M 551.3 1673.05
L 561.9 1670 558.1 1636.9
Q 557.75 1634.9 555.05 1634.8 552.35 1634.75 552.15 1636.85
L 551.3 1673.05 Z"/>
</g>
</defs>

<g transform="matrix( -1, 0, 0, 1, 649.9,0) ">
<g transform="matrix( 1, 0, 0, 1, -175.05,-1319.7) ">
<use xlink:href="#Tortoise_0_Layer0_0_MEMBER_0_FILL"/>
</g>

<g transform="matrix( 1, 0, 0, 1, -175.05,-1319.7) ">
<use xlink:href="#Tortoise_0_Layer0_0_MEMBER_1_FILL"/>
</g>

<g transform="matrix( 1, 0, 0, 1, -175.05,-1319.7) ">
<use xlink:href="#Tortoise_0_Layer0_0_MEMBER_2_FILL"/>
</g>

<g transform="matrix( 1, 0, 0, 1, -175.05,-1319.7) ">
<use xlink:href="#Tortoise_0_Layer0_0_MEMBER_3_FILL"/>
</g>

<g transform="matrix( 1, 0, 0, 1, -175.05,-1319.7) ">
<use xlink:href="#Tortoise_0_Layer0_0_MEMBER_4_FILL"/>
</g>

<g transform="matrix( 1, 0, 0, 1, -175.05,-1319.7) ">
<use xlink:href="#Tortoise_0_Layer0_0_MEMBER_5_FILL"/>
</g>

<g transform="matrix( 1, 0, 0, 1, -175.05,-1319.7) ">
<use xlink:href="#Tortoise_0_Layer0_0_MEMBER_6_FILL"/>
</g>

<g transform="matrix( 1, 0, 0, 1, -175.05,-1319.7) ">
<use xlink:href="#Tortoise_0_Layer0_0_MEMBER_7_FILL"/>
</g>

<g transform="matrix( 1, 0, 0, 1, -175.05,-1319.7) ">
<use xlink:href="#Tortoise_0_Layer0_0_MEMBER_8_FILL"/>
</g>

<g transform="matrix( 1, 0, 0, 1, -175.05,-1319.7) ">
<use xlink:href="#Tortoise_0_Layer0_0_MEMBER_9_FILL"/>
</g>

<g transform="matrix( 1, 0, 0, 1, -175.05,-1319.7) ">
<use xlink:href="#Tortoise_0_Layer0_0_MEMBER_10_FILL"/>
</g>

<g transform="matrix( 1, 0, 0, 1, -175.05,-1319.7) ">
<use xlink:href="#Tortoise_0_Layer0_0_MEMBER_11_FILL"/>
</g>

<g transform="matrix( 1, 0, 0, 1, -175.05,-1319.7) ">
<use xlink:href="#Tortoise_0_Layer0_0_MEMBER_12_FILL"/>
</g>

<g transform="matrix( 1, 0, 0, 1, -175.05,-1319.7) ">
<use xlink:href="#Tortoise_0_Layer0_0_MEMBER_13_FILL"/>
</g>

<g transform="matrix( 1, 0, 0, 1, -175.05,-1319.7) ">
<use xlink:href="#Tortoise_0_Layer0_0_MEMBER_14_FILL"/>
</g>

<g transform="matrix( 1, 0, 0, 1, -175.05,-1319.7) ">
<use xlink:href="#Tortoise_0_Layer0_0_MEMBER_15_FILL"/>
</g>

<g transform="matrix( 1, 0, 0, 1, -175.05,-1319.7) ">
<use xlink:href="#Tortoise_0_Layer0_0_MEMBER_16_FILL"/>
</g>
</g>
</svg>
