
<svg xmlns="http://www.w3.org/2000/svg" version="1.1" xmlns:xlink="http://www.w3.org/1999/xlink" preserveAspectRatio="none" x="0px" y="0px" width="536px" height="537px" viewBox="0 0 536 537">
<defs>
<filter id="Filter_1" x="-20%" y="-20%" width="140%" height="140%" color-interpolation-filters="sRGB">
<feColorMatrix in="SourceGraphic" type="matrix" values="1 0 0 0 0 0 1 0 0 0 0 0 1 0 0 0 0 0 0.5 0" result="result1"/>
</filter>

<g id="Chili_Pepper_0_Layer0_0_MEMBER_0_MEMBER_0_FILL">
<path fill="#B40014" stroke="none" d="
M 200.2 136.9
Q 183 137.95 171.7 145.3 164.3 150.1 158.9 157.85 151.85 167.95 149.1 181.65 145.15 192.05 144.85 202.55 144.8 205.1 145.15 219.8 145.4 230.9 144.55 237.7 142 258.25 126.9 266.25
L 125.2 267.1
Q 119.75 268.55 115.45 268.55 110.2 268.55 105.75 266.5 101.3 264.5 97.8 261.35 93.7 257.65 92.7 253.7 91.95 250.75 93.15 247.95 94 246 96.3 243.2 100.15 240.5 104.05 241.55 108.3 242.65 108.9 247.55 109 248.2 109.7 248.25 110.4 248.25 110.6 247.7 111.75 244.1 110.05 241.3 108.55 238.8 105.25 237.6 103.7 236.55 102.35 236.2 101.1 235.8 99.1 235.8 97.1 235.55 95.85 236.05 91.6 236.5 87.25 240.05 83.35 243.25 81.3 247.25 77.4 254.95 78.05 265.25 78.65 275.15 83.05 282.95 89.8 294.9 107.1 297.6 112.6 299.85 119.25 300.6 125.35 301.3 131.6 300.65 143.05 299.55 156.1 294.6 166.1 290.75 178.95 283.85 200.65 272.15 212.3 257.05 217.05 250.95 220.45 242.25 221.85 238.75 225.7 226.5
L 227.35 223
Q 229.5 218.05 231.45 212.15
L 232 210.9
Q 237.3 197.8 238.9 186.85 240.6 175.15 238.1 165.2 237.65 159.1 234.85 154 232.1 149.05 227.5 145.6 219.6 135.75 200.2 136.9 Z"/>
</g>

<g id="Chili_Pepper_0_Layer0_0_MEMBER_0_MEMBER_1_FILL">
<path fill="#E0001A" stroke="none" d="
M 208.55 144.5
Q 207.8 144.2 207.15 144.4 202.3 145.95 200.75 149.5 200.55 150 200.7 150.65 201.05 151.85 201.1 152.05 201.4 153 201 154 200.6 155.05 199.6 155.6 198.75 155.9 197.3 154.4 195.8 153 195.7 151.95 195 148.6 191.2 147.3 187.9 146.1 184 146.95 175.5 148.75 170.95 159.7 169.4 163.35 162.6 173.4 156.25 182.75 154.8 187.2 153.3 191.65 155.65 201.75 158.05 212.1 157.7 213.4 155.9 220.7 155.85 221.2 155.55 223.45 156.5 227.1 157.8 232.1 156.35 234.95 155.4 236.7 152.3 240.05 150.4 242.6 150.1 249.35 149.9 255.3 147.4 256.95 145.85 257.95 144.7 260.1 142.75 263.65 142.55 263.9 141.8 264.95 139.45 267.3 137.3 269.45 136.5 270.85 134.9 271.4 133.65 271.45 132.8 271.5 130 271.4 127.75 271.25 126.3 271.6 123.95 272.15 118.3 275.4 113.4 278.25 110 278.35
L 109.45 278.2
Q 105.6 276.25 103.7 275.4 99.85 273.7 96.2 273.75
L 95.45 273.2
Q 93.6 271.75 92.15 269.8 89.9 265.65 88.95 260.85 87.95 256.05 88.4 251.55 89.05 249 89.4 248 89.45 247.85 89.3 247.75 89.1 247.65 89 247.8 84.8 252.75 84.45 260.25 84.1 266.95 86.9 273.45 89.85 280.5 93.5 282.55 95.45 283.75 99.35 284.2 100.8 285.1 103 286.25 107.75 290.55 113 290.95 116.85 291.15 121.85 289.5 123.55 289.15 126.85 288.05 129.15 287.25 131.2 287.15 133.05 287.1 135.65 287.55 140.55 288.45 146.4 286 149.7 284.65 156.55 281.65 158.3 282.55 162.6 278.6 168.05 273.55 168.35 273.4 173.9 270.9 176.1 269.75 179.7 267.85 182.25 264.35 185.75 259.55 187.75 255.3 189.95 250.6 190.9 245.3 192.2 238.55 192.2 238.5 193.1 234.65 194.75 232.1 196.45 229.4 200.15 226.9 204.45 224.25 206.5 222.65 211.1 219.05 213.55 215.15 216.15 211 216.9 205.7 217.3 200.95 217.55 198.5 217.95 194.2 219.15 191.6 220 189.75 222.4 186.35 224.8 183 225.65 181.05 227.5 176.7 227.65 172.05 227.8 167.1 225.95 162.95 224.15 158.9 218.1 153.9 211.5 148.45 209.6 145.35 209.25 144.8 208.55 144.5 Z"/>
</g>

<g id="Chili_Pepper_0_Layer0_0_MEMBER_0_MEMBER_2_FILL">
<path fill="#E0001A" stroke="none" d="
M 210.7 231.1
Q 207.8 231 206.3 231.7 201 234.15 200.8 239.95 200.8 240.5 200.85 241.95 200.9 243.3 200.55 243.9 200.2 244.5 199.95 245.75 199.7 247 199.4 247.6 199.1 248.15 198.05 249.35 197.15 250.35 196.85 251.25 196.55 252.15 196.5 253.65 196.4 255.85 196.35 256.15
L 195.9 258.05
Q 195.85 258.15 195.9 258.2
L 195.9 258.35
Q 195.8 258.75 196.05 259.05 196.3 259.35 196.65 259.25 197.5 259.2 197.95 259 198.3 258.85 198.95 258.35 199.3 258.1 199.95 257 200.6 255.95 201.05 255.6 201.2 255.45 201.75 255.25 202.25 255.05 202.45 254.85 204.25 253.1 205.8 252.15 206.9 251.45 207.3 251.1 207.95 250.5 208.35 249.6 208.65 248.95 209.05 247.2 209.35 245.85 210.05 244.95 210.4 244.5 211.7 243.35 212.75 242.35 213.15 241.55 214.15 239.65 214.75 237 215.5 233.65 214.65 232.4 213.9 231.2 210.7 231.1 Z"/>
</g>

<g id="Chili_Pepper_0_Layer0_0_MEMBER_1_MEMBER_0_FILL">
<path fill="#B40014" stroke="none" d="
M 158.55 252.65
L 158.55 252.7
Q 160.85 252.15 164 250.7 165.75 249.9 169.2 248.2 171.1 247.35 175 245.7 178.45 244.2 180.55 242.9 180.75 242.8 180.7 242.55 180.6 242.35 180.35 242.4 178.15 243.1 175 244.6
L 169.75 247.1
Q 165.95 248.75 164 249.65 160.55 251.2 158.55 252.65 Z"/>
</g>

<g id="Chili_Pepper_0_Layer0_0_MEMBER_1_MEMBER_1_FILL">
<path fill="#B40014" stroke="none" d="
M 160.1 254.8
L 160.15 254.8
Q 162.65 254.35 166 252.9 167.9 252.05 171.6 250.2 178.2 247.15 183.45 244.15 183.8 244 183.6 243.7 183.4 243.35 183.1 243.55 175 247.85 171.7 249.4 167.8 251.05 165.8 251.9 162.2 253.4 160.1 254.8 Z"/>
</g>

<g id="Chili_Pepper_0_Layer0_0_MEMBER_1_MEMBER_2_FILL">
<path fill="#B40014" stroke="none" d="
M 183.7 245.75
Q 183.55 245.5 183.3 245.6 180.1 247.35 173.8 250.85 168.2 253.95 164.05 255.65 164 255.8 164.05 255.75 170.15 253.5 174.15 251.6 179.65 249 183.6 246.15 183.85 245.95 183.7 245.75 Z"/>
</g>

<g id="Chili_Pepper_0_Layer0_0_MEMBER_1_MEMBER_3_FILL">
<path fill="#B40014" stroke="none" d="
M 180.45 249.45
Q 180.35 249.2 180.15 249.35 174.4 253.7 167.65 256.65 167.55 256.75 167.7 256.75 174.4 254.35 180.4 249.8 180.6 249.65 180.45 249.45 Z"/>
</g>

<g id="Chili_Pepper_0_Layer0_0_MEMBER_1_MEMBER_4_FILL">
<path fill="#B40014" stroke="none" d="
M 178.5 252.5
Q 178.35 252.25 178.15 252.45 175.95 254.1 171.6 257.5 171.6 257.55 171.65 257.5 176.05 255.5 178.5 252.9 178.65 252.7 178.5 252.5 Z"/>
</g>

<g id="Chili_Pepper_0_Layer0_0_MEMBER_2_MEMBER_0_MEMBER_0_FILL">
<path fill="#E1380F" stroke="none" d="
M 117.85 157.8
Q 117.6 157.85 118.25 158.1 118.85 158.3 119.25 158.35 125.4 159 135.85 161.75 148.05 165 154.3 166.05 158.75 157.5 162.3 153.5 160.2 153.45 158.05 153.5 155 153.6 150.55 154.2
L 143.05 155.15
Q 130.5 155.25 117.85 157.8 Z"/>
</g>

<g id="Chili_Pepper_0_Layer0_0_MEMBER_2_MEMBER_0_MEMBER_1_FILL">
<path fill="#E1380F" stroke="none" d="
M 239.55 179.5
Q 239.45 183.15 238.55 188.65 237.65 194.2 236.55 197.75 240.35 199.75 253.35 204.9 264.4 209.2 271.05 213.55 271.95 214.1 272.15 213.8 272.35 213.55 271.8 212.55 268.7 207 268 205.95 265.75 202.35 263.3 200.1 254.35 189.15 239.55 179.5 Z"/>
</g>

<g id="Chili_Pepper_0_Layer0_0_MEMBER_2_MEMBER_0_MEMBER_2_MEMBER_0_FILL">
<path fill="#B40014" stroke="none" d="
M 200.2 136.9
Q 183 137.95 171.7 145.3 168.95 147.1 168.9 154.95 168.85 163.6 167.35 165.75 173.2 159.9 184.5 163.75 192.9 166.65 203.4 174.6 205.55 176.25 208.7 176.45 210.5 176.55 214.1 176.4 220.75 176.6 224.4 184.45 230.85 181.4 234.9 177.7 240.5 172.6 239.35 167.85 238.85 161.65 235.45 155.3 232.05 149 227.5 145.6 219.6 135.75 200.2 136.9 Z"/>
</g>

<g id="Chili_Pepper_0_Layer0_0_MEMBER_2_MEMBER_0_MEMBER_2_MEMBER_1_FILL">
<path fill="#FBA700" stroke="none" d="
M 250.55 92.65
Q 248.95 85.9 243.9 80 238.4 73.5 231.95 72.2 218.75 69.6 208.05 78.1 201.9 83 196.65 91.4 194.3 95.15 188.5 106.55
L 182.85 119.35
Q 180.45 125.85 177.85 135.05 177.2 137.3 178.05 139.1 178.8 140.75 180.55 141.7 181.3 143.1 182.55 144.15 185.25 146.4 189.05 147.65 191.4 148.4 196.35 149.3 203.7 150.55 213.7 154.25 215.8 155.05 220.2 156.8 224.05 158.25 226.7 158.6 228.15 159.35 229.7 159.25 231.3 159.15 232.55 158.1 235.95 156.85 238.2 152.75 241.05 147.45 243.8 139.7 244.7 137.3 245.6 134.25
L 249.6 119.85 249.75 119.45
Q 251.7 111.85 251.95 106.1 252.25 99.6 250.55 92.65 Z"/>
</g>

<g id="Chili_Pepper_0_Layer0_0_MEMBER_2_MEMBER_0_MEMBER_2_MEMBER_2_FILL">
<path fill="#FBA700" stroke="none" d="
M 303.5 192.95
Q 298.8 185.2 289.6 175.6 267.75 152.8 243.15 140.65 219.9 129.1 199.45 124.15 178.15 119.05 149.45 118.4 137.65 118.15 122.9 119.8 112.65 120.9 102.4 122.8 100.5 123.15 99.3 124.55 98.05 125.95 97.95 127.8 97.8 129.05 98.35 130.3 101.5 137.75 105.15 143.95 110 152.25 114.5 155.85 118 158.7 121.15 158.55 121.35 158.55 132.1 157.45 140.9 156.55 148.25 156.35 148.55 156.3 149.15 156.3 173.15 155.8 200.3 165.55 224.7 174.25 247.95 191.95 265.75 205.45 270.3 212.75 272.05 215.5 280.1 214.9 282.65 214.65 284.7 214.25 288.55 213.55 292.4 212.35 298 210.55 301.75 208.25 305.35 206.1 306.65 203.8 308.3 200.8 303.5 192.95 Z"/>
</g>

<g id="Chili_Pepper_0_Layer0_0_MEMBER_2_MEMBER_0_MEMBER_2_MEMBER_3_FILL">
<path fill="#6D9800" stroke="none" d="
M 185.6 127.65
Q 203.15 130.15 217.05 134.55 249.1 144.7 271.5 164.3 278.45 170.4 282.95 175.25 288.75 181.45 292.6 187.7 295 191.6 299.45 199.6 300.7 201.75 301.2 204 301.5 205.4 301.75 208.25 305.35 206.1 306.65 203.8 308.3 200.8 303.5 192.95 298.8 185.2 289.6 175.6 267.75 152.8 243.15 140.65 219.9 129.1 199.45 124.15 178.15 119.05 149.45 118.4 137.65 118.15 122.9 119.8 112.65 120.9 102.4 122.8 100.5 123.15 99.3 124.55 98.05 125.95 97.95 127.8 101.9 127.05 109.8 125.4 116.65 124.1 121.8 123.65 134.15 122.65 153.5 124.3 174.15 126 185.6 127.65 Z"/>
</g>

<g id="Chili_Pepper_0_Layer0_0_MEMBER_2_MEMBER_0_MEMBER_2_MEMBER_4_FILL">
<path fill="#6D9800" stroke="none" d="
M 143.45 139.35
Q 141.75 139 140.7 140.3 138.7 142.9 136.15 147.3 132.3 153.9 131.9 154.5
L 129.2 154.55
Q 126 147.8 124 144.8 123.25 143.7 122 143.85 120.8 143.95 120.15 145.05 116.5 150.8 114.5 155.85 118 158.7 121.15 158.55 121.35 158.55 132.1 157.45 140.9 156.55 148.25 156.35 148.15 155.8 147.25 148.75 146.65 144.15 145.65 141.25 145.15 139.75 143.45 139.35
M 208.95 145.35
Q 207.85 144.75 206.75 145.2 202.45 147.05 198.35 150.75 196.35 152.55 191.55 157.85 192.9 150.3 192.2 146.3 191.25 140.65 186.4 140.6 182.05 140.5 177.6 145.1 175.4 147.35 170.4 154.5 170.6 145.95 168.15 140.4 167.6 139.1 166.3 138.6 164.9 138 163.75 138.9 159.95 141.9 155.9 147.15 153.6 150.2 149.15 156.3 176.35 155.75 201.15 164.55 225.4 173.2 248.35 191.45 265.5 205 270.3 212.75 272.05 215.5 280.1 214.9 281.6 211.05 282.3 207.05 282.75 204.45 280.8 202.7 278.85 200.95 276.3 201.75 274.15 202.5 272.6 203.3 275.1 198.55 276.75 193.65 277.55 191.25 275.4 189.55 273.35 187.95 271.05 188.6 268.15 189.35 263.85 191.05 257.3 193.55 256.7 193.75 259.45 189.5 260.45 187.1 262 183.35 261.45 180.35 260.85 177.1 258.3 175.85 255.9 174.7 252.7 175.7 251 176.2 247.05 178.45
L 247.35 177.35
Q 249.25 169.65 248.5 164.3 248.25 161.9 246.15 160.85 244.05 159.75 242 161.1 239.3 162.8 235.25 166.65 229.8 171.75 228.5 172.85 229.2 167.9 229.3 164.6 229.45 160.1 228.55 156.4 228.25 155 226.75 154.6 225.35 154.2 224.15 154.9 221.05 156.75 217.1 160.55 212.85 164.8 210.6 166.75 211.7 158.35 211.8 156.45 212.1 150.65 210.4 147 209.9 145.9 208.95 145.35 Z"/>
</g>

<g id="Chili_Pepper_0_Layer0_0_MEMBER_2_MEMBER_0_MEMBER_2_MEMBER_5_FILL">
<path fill="#F50016" stroke="none" d="
M 134.65 133.05
Q 133.9 131.7 132.2 131.4 130.45 131.05 129.25 131.95
L 128.55 132.6
Q 126.6 133.5 126.45 135.8 126.3 138 127.95 139.4 129.2 140.5 130.95 140.45 132.6 140.4 133.9 139.3 135.3 138.05 135.45 136.35 135.6 134.7 134.65 133.05 Z"/>
</g>

<g id="Chili_Pepper_0_Layer0_0_MEMBER_2_MEMBER_0_MEMBER_2_MEMBER_6_FILL">
<path fill="#F50016" stroke="none" d="
M 113.95 137.8
Q 112.65 136.6 111.1 136.75 109.7 136.9 108.95 137.75 107.8 138.35 107.3 139.45 106.35 141.6 107.5 143.25 108.5 144.65 110.35 144.85 112.15 145.05 113.6 144.05 115.55 142.7 115.3 140.5 115.2 138.95 113.95 137.8 Z"/>
</g>

<g id="Chili_Pepper_0_Layer0_0_MEMBER_2_MEMBER_0_MEMBER_2_MEMBER_7_FILL">
<path fill="#F50016" stroke="none" d="
M 155 132.1
Q 153.9 131.45 152.55 131.6 151.75 131.5 151.15 131.7 149.7 132.2 148.85 133.5 148.05 134.8 148.1 136.35 148.25 138.8 150.45 139.9 152.65 141 154.7 139.6 156 138.7 156.6 137.2 157.2 135.65 156.7 134.2 156.25 132.8 155 132.1 Z"/>
</g>

<g id="Chili_Pepper_0_Layer0_0_MEMBER_2_MEMBER_0_MEMBER_2_MEMBER_8_FILL">
<path fill="#F50016" stroke="none" d="
M 178.15 133.85
Q 177.15 132.65 175.75 132.45 173 131.95 171.65 134.6 170.25 137.25 172.5 139.1
L 173.25 139.6 173.3 139.65
Q 175.1 141.15 177.2 139.9 179.25 138.65 179.15 136.4 179.05 135 178.15 133.85 Z"/>
</g>

<g id="Chili_Pepper_0_Layer0_0_MEMBER_2_MEMBER_0_MEMBER_2_MEMBER_9_FILL">
<path fill="#F50016" stroke="none" d="
M 201.35 142.75
Q 202.6 141.35 201.95 139.75 201.3 138.2 200.05 137.3 198.55 136.3 197 136.8 195.3 137.45 194.75 139.1 194.2 140.7 195.2 142.25
L 195.75 142.9
Q 196.5 144.05 197.8 144.3 199.7 144.7 201.35 142.75 Z"/>
</g>

<g id="Chili_Pepper_0_Layer0_0_MEMBER_2_MEMBER_0_MEMBER_2_MEMBER_10_FILL">
<path fill="#F50016" stroke="none" d="
M 217.4 145.95
Q 216.2 146.8 215.75 148.35 215.45 149.35 215.9 150.3 216.3 151.2 217.15 151.8 218.55 153.15 220.65 152.55 222.1 152.15 222.9 150.75 223.75 149.25 223.3 147.85 222.95 146.95 222.1 146.25 221.25 145.6 220.25 145.4 218.65 145.05 217.4 145.95 Z"/>
</g>

<g id="Chili_Pepper_0_Layer0_0_MEMBER_2_MEMBER_0_MEMBER_2_MEMBER_11_FILL">
<path fill="#F50016" stroke="none" d="
M 239.25 156.3
Q 239.05 155.35 238.4 154.9 236.05 153.2 234.05 154.5 233 155.2 232.65 156.45 232.35 157.6 232.75 158.8 233.2 160.15 234.7 160.7 236.2 161.25 237.3 160.35
L 237.9 159.85
Q 238.55 159.25 238.6 158.4
L 239 157.9
Q 239.4 157.25 239.25 156.3 Z"/>
</g>

<g id="Chili_Pepper_0_Layer0_0_MEMBER_2_MEMBER_0_MEMBER_2_MEMBER_12_FILL">
<path fill="#F50016" stroke="none" d="
M 251.5 168.9
Q 251.35 169.85 251.8 170.45 253.35 172.35 255.3 171.8 257 171.25 257.6 169.05 257.8 168.35 257.45 167.55 257.05 166.75 256.35 166.4 254.85 165.75 253.25 166.25 252.5 166.5 251.95 167.25 251.35 168.1 251.5 168.85
L 251.5 168.9 Z"/>
</g>

<g id="Chili_Pepper_0_Layer0_0_MEMBER_2_MEMBER_0_MEMBER_2_MEMBER_13_FILL">
<path fill="#F50016" stroke="none" d="
M 270.45 179.8
Q 269.5 178.45 268.05 178.3 265.3 178.05 264.3 180.5 263.15 182.1 263.8 183.9 264.3 185.45 266 185.95 267.65 186.45 269 185.55 270.55 184.6 271 182.6 271.3 181.15 270.45 179.8 Z"/>
</g>

<g id="Chili_Pepper_0_Layer0_0_MEMBER_2_MEMBER_0_MEMBER_2_MEMBER_14_FILL">
<path fill="#F50016" stroke="none" d="
M 277.9 195.5
Q 277.7 196.6 278.15 197.6 278.6 198.55 279.55 199.1 280.9 200 282.3 199.5 283.8 199 284.75 197.4 285.2 196.6 285.05 195.55 284.9 194.6 284.3 193.85 283.9 193.45 283.2 193.1
L 283.3 193.1 282.9 192.95 282.65 192.9
Q 281.2 192.45 280.15 192.85 278.3 193.5 277.9 195.5 Z"/>
</g>

<g id="Chili_Pepper_0_Layer0_0_MEMBER_2_MEMBER_0_MEMBER_2_MEMBER_15_FILL">
<path fill="#F50016" stroke="none" d="
M 292.4 212.35
Q 292.3 211.55 291.85 211 290.15 208.75 288 209 286.8 209.1 285.9 209.95 284.9 210.8 284.85 211.95
L 284.85 212
Q 284.5 213.05 284.7 214.25 288.55 213.55 292.4 212.35 Z"/>
</g>

<g id="Chili_Pepper_0_Layer0_0_MEMBER_2_MEMBER_0_MEMBER_2_MEMBER_16_FILL">
<path fill="#FFFFFF" stroke="none" d="
M 118.8 151.55
Q 118.5 152.7 119.15 153.45 120.25 154.7 121.6 154.65 123 154.6 123.75 153.2 124.15 152.5 123.95 151.75 123.8 151 123.25 150.45 122.65 149.7 121.65 149.55 120.65 149.4 119.85 149.95 119.05 150.45 118.8 151.55 Z"/>
</g>

<g id="Chili_Pepper_0_Layer0_0_MEMBER_2_MEMBER_0_MEMBER_2_MEMBER_17_FILL">
<path fill="#FFFFFF" stroke="none" d="
M 141.55 148.2
Q 140.65 147.8 139.75 148.2 138.8 148.6 138.6 149.6
L 138.55 150
Q 138.4 150.4 138.45 150.8 138.7 152.05 139.8 152.35 140.65 152.6 141.2 152.4
L 141.7 152.2 141.75 152.1
Q 142.25 151.9 142.65 151.35 143 150.8 142.9 150.25 142.8 148.7 141.55 148.2 Z"/>
</g>

<g id="Chili_Pepper_0_Layer0_0_MEMBER_2_MEMBER_0_MEMBER_2_MEMBER_18_FILL">
<path fill="#FFFFFF" stroke="none" d="
M 164.05 152.15
Q 165.35 150.5 164.35 149.1 163.4 147.7 161.55 148.15 160.55 148.45 160.2 149.45 159.8 150.4 160.25 151.3
L 160.6 151.8 160.65 151.9
Q 161.15 152.75 162.3 152.85 163.45 152.95 164.05 152.15 Z"/>
</g>

<g id="Chili_Pepper_0_Layer0_0_MEMBER_2_MEMBER_0_MEMBER_2_MEMBER_19_FILL">
<path fill="#FFFFFF" stroke="none" d="
M 184.6 150.6
L 184.05 150.1
Q 183.45 149.7 182.7 149.65 181.95 149.6 181.35 150 180.05 150.9 180.55 152.45
L 180.6 153.1
Q 180.8 154 182.05 154.4 183.05 154.65 183.95 154.1 184.9 153.55 185.1 152.55 185.35 151.45 184.6 150.6 Z"/>
</g>

<g id="Chili_Pepper_0_Layer0_0_MEMBER_2_MEMBER_0_MEMBER_2_MEMBER_20_FILL">
<path fill="#FFFFFF" stroke="none" d="
M 200.3 157.2
Q 199.85 158.5 200.85 159.4 201.75 160.15 202.9 159.95 203.9 159.75 204.75 158.95 205.2 158.55 205.25 157.75 205.3 157 204.9 156.5 203.5 154.9 201.7 155.5 200.5 155.9 200.3 157.2 Z"/>
</g>

<g id="Chili_Pepper_0_Layer0_0_MEMBER_2_MEMBER_0_MEMBER_2_MEMBER_21_FILL">
<path fill="#FFFFFF" stroke="none" d="
M 223.7 167.95
Q 224.75 165.85 223.2 164.25 223.05 164.1 222.3 163.6 221.5 163.1 220.45 163.3 219.4 163.45 218.7 164.1 218 164.7 217.7 165.7 217.4 166.65 217.75 167.55 218.5 169.5 220.6 169.7 222.75 169.85 223.7 167.95 Z"/>
</g>

<g id="Chili_Pepper_0_Layer0_0_MEMBER_2_MEMBER_0_MEMBER_2_MEMBER_22_FILL">
<path fill="#FFFFFF" stroke="none" d="
M 240.95 172.45
Q 240.3 171.8 239.45 171.6 237.55 171.15 236.15 172.65 234.65 174.25 235.5 176.1 236.35 177.95 238.1 178.1 239 178.15 239.8 177.7 240.65 177.25 241.05 176.45
L 241.35 175.65
Q 241.6 175.05 241.6 174.05 241.6 173.2 240.95 172.45 Z"/>
</g>

<g id="Chili_Pepper_0_Layer0_0_MEMBER_2_MEMBER_0_MEMBER_2_MEMBER_23_FILL">
<path fill="#FFFFFF" stroke="none" d="
M 254.25 183.95
Q 253.95 183.35 253.65 183.05 252.75 182.15 251.35 182.3 250.45 182.4 249.95 182.9
L 249.6 183.05
Q 249.15 183.5 249 184.1 248.7 184.65 248.85 185.3 248.9 185.45 249.1 185.9 249.5 187.2 250.75 187.75 252.1 188.3 253.35 187.5 254.15 187 254.45 186.15 254.85 185.3 254.5 184.45
L 254.25 183.95 Z"/>
</g>

<g id="Chili_Pepper_0_Layer0_0_MEMBER_2_MEMBER_0_MEMBER_2_MEMBER_24_FILL">
<path fill="#FFFFFF" stroke="none" d="
M 264.25 197.4
Q 264.1 197.65 264.1 197.85 263.65 198.85 264.35 199.85 265.05 200.9 266.15 200.8
L 267.1 200.6
Q 267.15 200.6 267.55 200.4 267.8359375 200.25703125 267.45 200.35 268.4568359375 200.0294921875 268.8 199 269.2 197.95 268.55 197 267.85 195.9 266.85 195.85 264.8 195.6 264.25 197.4 Z"/>
</g>

<g id="Chili_Pepper_0_Layer0_0_MEMBER_2_MEMBER_0_MEMBER_2_MEMBER_25_FILL">
<path fill="#FFFFFF" stroke="none" d="
M 276.35 207.55
Q 275.5 207.25 274.7 207.4 273 207.7 272.4 209.45
L 272.35 209.8
Q 272 210.85 272.65 211.6 274.05 213.25 276.2 212.75 277.6 212.4 278 211 278.4 209.7 277.7 208.6
L 277.65 208.5
Q 277.2 207.85 276.35 207.55 Z"/>
</g>

<g id="Chili_Pepper_0_Layer0_0_MEMBER_2_MEMBER_0_MEMBER_2_MEMBER_26_FILL">
<path fill="#FFFFFF" stroke="none" d="
M 231.7 118.4
Q 225.25 115.75 217.3 114.25
L 216.2 114.05
Q 199.55 109.95 186.55 111.7
L 186 111.75 184.9 114.25
Q 203.6 115.75 214.9 118.5 221.55 120.1 227.85 122.4 229.05 122.9 230.65 123.75 230.95 121.05 231.7 118.4 Z"/>
</g>

<g id="Chili_Pepper_0_Layer0_0_MEMBER_2_MEMBER_0_MEMBER_2_MEMBER_27_FILL">
<path fill="#FFFFFF" stroke="none" d="
M 245.6 134.2
L 245.65 134.1 247.4 128.1 244 125.8
Q 243 130.05 242.55 131.5
L 245.6 134.2 Z"/>
</g>

<g id="Chili_Pepper_0_Layer0_0_MEMBER_2_MEMBER_0_MEMBER_2_MEMBER_28_FILL">
<path fill="#F50016" stroke="none" d="
M 230.25 126.3
Q 225.15 123.7 220.7 122.55 213.95 120.85 199.05 117.85 192.2 116.5 183.7 117.1
L 182.85 119.4
Q 190.35 120.3 199.3 122.3 204.75 123.55 215.6 126.4 223 128.35 229.9 131.5 229.65 129.45 230.25 126.3 Z"/>
</g>

<g id="Chili_Pepper_0_Layer0_0_MEMBER_2_MEMBER_0_MEMBER_2_MEMBER_29_FILL">
<path fill="#F50016" stroke="none" d="
M 242.2 132.5
Q 241.2 135.7 239.75 136.95 242 138.3 243.8 139.7 244.75 137.1 245.6 134.2
L 245.65 134.1 242.2 132.5 Z"/>
</g>

<g id="Chili_Pepper_0_Layer0_0_MEMBER_2_MEMBER_0_MEMBER_2_MEMBER_30_FILL">
<path fill="#6D9800" stroke="none" d="
M 233.75 112.15
Q 231.55 111.45 227.45 110.4 216.25 107.65 208.15 106.65 197.3 105.3 188.5 106.55
L 187.35 108.8
Q 195.35 108.7 205.05 110.25 212.25 111.4 222.3 113.8 227.35 114.95 232.2 116.8 232.7 115 233.75 112.15 Z"/>
</g>

<g id="Chili_Pepper_0_Layer0_0_MEMBER_2_MEMBER_0_MEMBER_2_MEMBER_31_FILL">
<path fill="#6D9800" stroke="none" d="
M 248.05 125.65
L 249.6 119.85 249.75 119.45
Q 248 118.2 245.8 117.05 245 121.4 244.6 123.15 246.75 124.55 248.05 125.65 Z"/>
</g>

<g id="Chili_Pepper_0_Layer0_0_MEMBER_2_MEMBER_0_MEMBER_2_MEMBER_32_FILL">
<path fill="#FFFFFF" stroke="none" d="
M 219.2 78.9
Q 218.5 78 217.15 77.85 213.85 77.5 211.3 80.2 208.35 83.15 208.05 85.15 207.8 86.05 207.8 86.9 207.8 87.8 208.45 88.4 209.05 89 210 89.1 212.55 89.35 215.95 86.35 219.2 83.55 219.65 81.15 219.9 79.8 219.2 78.9 Z"/>
</g>

<g id="Chili_Pepper_0_Layer0_0_MEMBER_2_MEMBER_0_MEMBER_2_MEMBER_33_FILL">
<path fill="#FFFFFF" stroke="none" d="
M 201.45 95.95
L 201.4 96.05
Q 200.8 97.8 202.6 98.7 204.4 99.55 205.45 97.85
L 205.65 97.4 205.75 97.25
Q 206.3 96.7 206.4 95.8
L 206.45 95.6
Q 206.7 94.45 205.95 93.75 205.2 93.1 204.1 93.35 203.45 93.05 202.95 93.65
L 202.6 94.1 202.6 94.15
Q 202.1 94.55 201.95 94.85
L 201.65 95.45 201.65 95.5 201.6 95.65 201.6 95.6 201.5 95.8 201.45 95.95 Z"/>
</g>

<g id="FlashAICB_Isolation_Mode__Compound_Path__0_Layer0_0_FILL">
<path fill="#F85F00" stroke="none" d="
M 0 53.45
Q 0.35 56.45 2.7 57.6 6.35 59.35 7.55 59.65 8.9 59.8 9.85 58.9 5.05 55.85 0 53.45
M 14.1 47.75
L 14.7 45.1
Q 9.2 41.4 2.3 38.75
L 1.8 40.35
Q 8.85 43.3 14.1 47.75
M 0.75 45.7
L 0.35 48.25
Q 1.55 48.85 8.55 52.6 9.85 53.3 12.3 54.45
L 12.65 53.45
Q 7.35 49.05 0.75 45.7
M 16.85 17.65
Q 16.65 15.85 16.45 14.9 15.35 9.9 11.85 5.4 7.75 0.05 3.15 0 3 0 3 0.15 3 0.3 3.1 0.4
L 3.3 0.5
Q 9.9 10.95 7.5 22.6 7 25.2 5.9 28.4 5.45 29.8 3.85 34.1 10.75 36.2 15.9 39 16.45 35.5 17.3 29 18.1 22.8 16.85 17.65 Z"/>
</g>

<g id="Chili_Pepper_0_Layer0_0_MEMBER_2_MEMBER_0_MEMBER_4_FILL">
<path fill="#C8001C" stroke="none" d="
M 239.75 136.95
Q 241.2 135.7 242.2 132.5 239.75 131.35 238.45 130.65 231.45 126.9 230.25 126.3 229.65 129.45 229.9 131.5 234.95 133.9 239.75 136.95 Z"/>
</g>

<g id="Chili_Pepper_0_Layer0_0_MEMBER_2_MEMBER_0_MEMBER_5_FILL">
<path fill="#EDD196" stroke="none" d="
M 231.7 118.4
Q 230.95 121.05 230.65 123.75 237.25 127.1 242.55 131.5 243 130.05 244 125.8 238.75 121.35 231.7 118.4 Z"/>
</g>

<g id="Chili_Pepper_0_Layer0_0_MEMBER_2_MEMBER_0_MEMBER_6_FILL">
<path fill="#5A7B00" stroke="none" d="
M 233.75 112.15
Q 232.7 115 232.2 116.8 239.1 119.45 244.6 123.15 245 121.4 245.8 117.05 240.65 114.25 233.75 112.15 Z"/>
</g>

<g id="FlashAICB_Isolation_Mode__Path__0_Layer0_0_FILL">
<path fill="#F85F00" stroke="none" d="
M 59.25 44.15
Q 53.4 35.5 43.9 27.35 24.15 10.45 0.05 0.05 -0.05 0.05 0 0.1 3.5 2.25 9.75 6.35 16.5 10.7 19.45 12.55 27.05 17.3 38.3 26.35 46.8 33.05 53.75 41.6 56.65 45.15 59.25 50.2 60.2 52.1 63.5 59.45 63.6 59.65 63.8 59.7 64.05 59.7 64.15 59.5 65.35 56.1 63.45 51.45 62.3 48.65 59.25 44.15 Z"/>
</g>

<g id="Chili_Pepper_0_Layer0_0_MEMBER_3_MEMBER_0_FILL">
<path fill="#5C0012" stroke="none" d="
M 165.4 183.15
Q 165.4 183.45 165.55 183.75 165.6 184.85 166.85 186.6 168 188.25 167.85 189.4 167.65 190.6 166.25 193.1 165.5 194.4 164.8 195.6 164.1 199.1 165.95 201.8 167.65 204.35 171.15 205.5 180.95 208.7 189.9 204.15 197.6 200.2 198.75 194.85 198.9 193.9 198.6 193.6 197.1 192.1 195.45 192.1 185.95 192.3 178.8 189.8 175.3 188.55 172 186.7 170.65 186 166.1 183.15 165.9 183.05 165.65 183.05 165.4 183.05 165.4 183.15 Z"/>
</g>

<g id="Chili_Pepper_0_Layer0_0_MEMBER_3_MEMBER_1_FILL">
<path fill="#FFFFFF" stroke="none" d="
M 174 195.35
Q 177 196.9 180.35 197.1 183.9 197.25 186.55 195.85 187.75 195.2 188 194.65 188.3 194.15 187.55 194.1 187 193.95 185.95 193.95 181.55 193.8 178.6 192.8 175.35 191.7 171.7 188.85
L 171.6 188.75 171.55 188.75 171.45 188.7
Q 171.2 188.7 171.1 188.85 170 190.5 171.1 192.5 172.05 194.3 174 195.35 Z"/>
</g>

<g id="Chili_Pepper_0_Layer0_0_MEMBER_3_MEMBER_2_FILL">
<path fill="#B40014" stroke="none" d="
M 165.35 208.1
L 165.2 208.25
Q 166.05 211.2 167.25 212.75 168.6 214.55 171.1 215.5 173.45 216.4 175.6 216.2 178.25 215.95 179.8 213.95 180.25 213.3 180.15 212.6 180 211.85 179.3 211.65 178.25 211.4 175.7 211.6 173.35 211.75 172.1 211.25 170.4 210.75 169.1 210.25 166.7 209.35 165.35 208.1 Z"/>
</g>

<g id="Chili_Pepper_0_Layer0_0_MEMBER_4_MEMBER_0_FILL">
<path fill="#3E000E" stroke="none" d="
M 185.05 171.5
Q 184.55 170.4 183.5 169.6 182.65 168.95 181.25 168.5 179.85 167.7 177.95 167.5 177.2 167.45 173.9 167.8 172.75 167.95 171.35 167.85 169.7 167.65 168.8 167.55 168.55 167.55 168.65 167.8 169.55 169.35 172.4 169.65 171.1 169.75 169.95 169.55 168.7 169.45 166.4 168.8 164.05 168.2 162.85 168.05 162.7 168.05 162.8 168.15 163.3 169.1 164.6 169.9 165.1 170.35 166.4 171.1
L 165.15 171.05 163.8 170.8
Q 163 170.6 162.05 169.9 160.55 168.75 160.45 168.7 157.45 166.75 154.4 162.35 154.1 163.7 154.1 163.8 154.3 165.95 156.8 168.55
L 156.45 168.35
Q 154.55 166.55 153.3 164.35 152.95 163.75 151.95 161.55 151.2 159.85 150.4 158.85 150.35 158.8 150.3 158.85 150.2 158.9 150.2 158.95 150.1 160.05 150.35 161.25 149.5 159.7 148.8 157.75 148.7 157.4 148.25 157 147.85 156.6 147.9 156.95 148.9 165.1 151.7 169.55 150.2 168.15 149 166.5 148.95 166.45 148.9 166.45 148.85 166.45 148.85 166.55 148.85 169.7 152.75 172.5 154.95 174.1 156.85 174.9
L 156.95 174.95 157.15 175.1 157.95 175.55 156.2 175
Q 156.05 175 156.1 175.15 157.45 177.95 161.55 179.25 165.35 180.45 169.15 179.75 171.3 180.05 173.95 179.95 169.8 180.45 169 180.7 168.85 180.8 168.95 180.9 171.7 182.75 177.45 180.85
L 177.5 180.95
Q 178.4 181.6 179.7 180.95 180.7 180.45 181.5 179.5 181.95 179 182.85 177.7 184.3 176.45 184.7 175.1
L 185.15 173.85
Q 185.55 172.65 185.05 171.5 Z"/>
</g>

<g id="Chili_Pepper_0_Layer0_0_MEMBER_4_MEMBER_1_FILL">
<path fill="#3E000E" stroke="none" d="
M 191.6 170.65
Q 188.95 170.6 186.8 172.65
L 186.1 173.3
Q 184.15 175.15 184.85 178.15 184.75 180.5 186.4 183.25 188 185.85 190.3 187.4 192.5 190 194 190.35 194.05 190.3 194 190.3 193.95 189.6 193.4 188.6
L 193.4 188.55 193.3 188.5 192.95 187.95
Q 194.9 189.6 196.65 190.15 198.8 191.7 201.5 192.45 204.1 193.25 206.45 193
L 206.5 192.95
Q 203 191.4 201.25 190.6
L 204.3 191.55
Q 206.7 192.3 210.6 192.45
L 211.95 192.85
Q 213.95 193.45 214.65 193.6 216.4 193.9 217.35 193.4 217.45 193.3 217.4 193.25 217.05 192.85 216.35 192.5 221.95 192.35 226.1 190.15 230.85 187.7 230.75 187.3 230.6 187 227.4 187.9 223.9 188.9 218.9 188.15 220.65 187.95 222.15 187.3 222.25 187.25 222.25 187.15 222.2 187.05 222.1 187 220.55 186.65 217.6 186.35 214.45 186.1 213.05 185.8 211.85 185.55 209.85 184.95 207.4 184.25 206.65 184.05
L 204.75 182.65
Q 207.2 183.1 208.25 182.4 208.3 182.4 208.25 182.35 207.3 181.55 205.4 181 203.3 180.4 202.35 180.05 202.2 180 201.1 179.45 200.2 178.65 198.7 176.75
L 198.15 175.9
Q 199.35 176.65 200.1 176.85 200.15 176.9 200.2 176.85 200.25 176.8 200.2 176.75 199.7 175.55 197.7 173.95 196.3 172.8 195.85 172.55 194.15 170.65 191.6 170.65 Z"/>
</g>

<g id="Chili_Pepper_0_Layer0_0_MEMBER_5_FILL">
<path fill="#690014" stroke="none" d="
M 156.9 171.9
Q 156.35 171.55 156.15 171.5
L 155.5 171 155.4 171 155.3 171.05
Q 155.35 171.05 155.55 171.45 155.75 171.7 156.35 172 157.4 172.7 157.95 172.65 158.15 172.65 158.05 172.45 157.95 172.3 157.75 172.25
L 156.9 171.9 Z"/>
</g>

<g id="Chili_Pepper_0_Layer0_0_MEMBER_6_FILL">
<path fill="#690014" stroke="none" d="
M 161.05 171.55
Q 161.05 171.35 160.85 171.3 159.85 171.1 159.35 170.95 158.5 170.7 158.3 170.7 158.25 170.8 158.3 170.8
L 159.35 171.55
Q 160.4 171.9 160.8 171.8 161 171.75 161.05 171.55 Z"/>
</g>

<g id="Chili_Pepper_0_Layer0_0_MEMBER_7_FILL">
<path fill="#690014" stroke="none" d="
M 162.65 175.35
Q 162.65 175.15 162.45 175.1 161 175.1 160.05 174.55
L 159.9 174.65
Q 159.85 174.95 160.65 175.35 161.75 175.8 162.45 175.6 162.65 175.55 162.65 175.35 Z"/>
</g>

<g id="Chili_Pepper_0_Layer0_0_MEMBER_8_FILL">
<path fill="#690014" stroke="none" d="
M 166.8 172.95
Q 166.8 172.8 166.65 172.75 166.2 172.7 165.55 172.85 164.85 172.95 164.25 172.55 164.15 172.6 164.2 172.65 165.1 173.5 166.65 173.15 166.8 173.1 166.8 172.95 Z"/>
</g>

<g id="Chili_Pepper_0_Layer0_0_MEMBER_9_FILL">
<path fill="#690014" stroke="none" d="
M 168.4 177.05
Q 168.35 176.9 168.15 176.9
L 166.55 176.9
Q 165.7 176.9 165.5 176.75 165.4 176.65 165.35 176.75 165.3 176.85 165.35 176.95 165.55 177.25 166.3 177.35 167.65 177.55 168.25 177.3 168.45 177.25 168.4 177.05 Z"/>
</g>

<g id="Chili_Pepper_0_Layer0_0_MEMBER_10_FILL">
<path fill="#690014" stroke="none" d="
M 170.95 174.1
Q 170.85 174 170.75 174.1 168.9 174.8 168.9 174.4 168.85 174.3 168.75 174.3 168.6 174.3 168.6 174.4 168.6 174.75 169.45 174.9 170.65 174.9 170.95 174.3 171.05 174.2 170.95 174.1 Z"/>
</g>

<g id="Chili_Pepper_0_Layer0_0_MEMBER_11_FILL">
<path fill="#690014" stroke="none" d="
M 172.35 171.4
Q 172.25 171.2 172.05 171.25
L 170.5 171.65
Q 170.2 171.9 170 171.85 169.85 171.85 169.95 171.95 170.05 172.05 170.75 172.05 171.2 172.05 172.2 171.65 172.4 171.6 172.35 171.4 Z"/>
</g>

<g id="Chili_Pepper_0_Layer0_0_MEMBER_12_FILL">
<path fill="#690014" stroke="none" d="
M 174.4 177.35
Q 174.35 177.2 174.2 177.2 174.05 177.2 173.4 177.45 172.65 177.75 172.15 177.55 172.05 177.55 172.05 177.65 172 177.7 172.05 177.75 172.45 178.05 173.1 178.05 173.35 178.05 174.3 177.6 174.5 177.55 174.4 177.35 Z"/>
</g>

<g id="Chili_Pepper_0_Layer0_0_MEMBER_13_FILL">
<path fill="#690014" stroke="none" d="
M 175.95 173.7
Q 175.85 173.55 175.7 173.55 175.05 173.55 174.7 173.7 174.45 173.75 173.7 174.2 173.65 174.4 173.75 174.35 174.5 174.1 175.05 174.1 175.6 174.1 175.85 173.95 176 173.85 175.95 173.7 Z"/>
</g>

<g id="Chili_Pepper_0_Layer0_0_MEMBER_14_FILL">
<path fill="#690014" stroke="none" d="
M 177.8 170.45
Q 177.8 170.35 177.7 170.3 177.1 169.95 176.25 170 175.45 170.1 174.85 170.55 174.85 170.75 174.95 170.7 175.55 170.35 176.6 170.45
L 177.65 170.6
Q 177.8 170.6 177.8 170.45 Z"/>
</g>

<g id="Chili_Pepper_0_Layer0_0_MEMBER_15_FILL">
<path fill="#690014" stroke="none" d="
M 179.5 177.1
Q 179.35 177 179.25 177.1 178.2 178 177.05 178.35 179 178.55 179.55 177.3 179.6 177.2 179.5 177.1 Z"/>
</g>

<g id="Chili_Pepper_0_Layer0_0_MEMBER_16_FILL">
<path fill="#690014" stroke="none" d="
M 179.9 173.25
Q 179.9 173.15 179.8 173.15 179.55 173.1 178.95 173.4 178.45 173.75 178.25 173.8 178.15 173.8 178.15 173.95 178.2 174.05 178.3 174.05 178.5 174.05 179 173.85 179.3 173.7 179.85 173.45 179.95 173.35 179.9 173.25 Z"/>
</g>

<g id="Chili_Pepper_0_Layer0_0_MEMBER_17_FILL">
<path fill="#690014" stroke="none" d="
M 182.4 172.2
Q 182.5 172.4 182.7 172.3 182.9 172.25 182.9 172.05 182.85 171.75 182.25 171.45 181.55 171.15 181.25 170.9 181.15 170.8 181.1 170.9 181 171 181.05 171.1
L 181.75 171.75 182.1 172
Q 182.4 172.15 182.4 172.2 Z"/>
</g>

<g id="Chili_Pepper_0_Layer0_0_MEMBER_18_FILL">
<path fill="#690014" stroke="none" d="
M 182.1 175.7
Q 181.65 176.3 181.55 176.35 181.5 176.4 181.5 176.45 181.5 176.55 181.6 176.55 181.85 176.45 182.25 176.05
L 182.6 175.6 182.8 175.15
Q 182.9 175.05 182.75 174.95 182.65 174.9 182.55 175 182.5 175.1 182.1 175.7 Z"/>
</g>

<g id="Chili_Pepper_0_Layer0_0_MEMBER_19_FILL">
<path fill="#690014" stroke="none" d="
M 153.25 167.55
Q 153.3 167.45 153.25 167.35 152.95 167.05 152.65 166.5
L 152.2 165.55
Q 152.1 165.45 152.1 165.6 152.2 166.5 152.4 166.85 152.7 167.5 153.05 167.6 153.15 167.65 153.25 167.55 Z"/>
</g>

<g id="Chili_Pepper_0_Layer0_0_MEMBER_20_FILL">
<path fill="#690014" stroke="none" d="
M 153.45 171.2
Q 153.45 171.1 153.35 171
L 152.7 170.55
Q 152.3 170.25 152.15 170.3 152 170.55 152.15 170.55 152.3 170.55 152.6 171 153.15 171.45 153.35 171.35 153.45 171.3 153.45 171.2 Z"/>
</g>

<g id="Chili_Pepper_0_Layer0_0_MEMBER_21_FILL">
<path fill="#690014" stroke="none" d="
M 149.95 163.3
L 150.15 163.85
Q 150.45 164.3 150.9 164.6 151.05 164.7 151.2 164.6 151.3 164.45 151.2 164.35
L 150.5 163.55 150.2 163.1
Q 150.15 162.9 150.05 162.85 149.8 162.7 149.9 162.95
L 149.95 163.3 Z"/>
</g>

<g id="Chili_Pepper_0_Layer0_0_MEMBER_22_FILL">
<path fill="#690014" stroke="none" d="
M 188.95 183.9
Q 189.15 184.1 189.45 184.45
L 189.9 185
Q 190.1 185.15 190.55 185.2 190.45 185.1 189.8 184.2
L 189.4 183.65 188.9 183.15
Q 188.85 183.05 188.75 183.1 188.6 183.15 188.6 183.25 188.65 183.5 188.95 183.9 Z"/>
</g>

<g id="Chili_Pepper_0_Layer0_0_MEMBER_23_FILL">
<path fill="#690014" stroke="none" d="
M 187.65 180.05
Q 187.65 179.95 187.55 179.9 187.5 179.9 187.25 178.95
L 186.8 177.75
Q 186.7 177.55 186.55 177.8 186.5 178.1 186.95 179.45 187.15 180.1 187.5 180.15 187.6 180.15 187.65 180.05 Z"/>
</g>

<g id="Chili_Pepper_0_Layer0_0_MEMBER_24_FILL">
<path fill="#690014" stroke="none" d="
M 190.6 182.15
L 191.15 182.45 191.65 182.85
Q 191.75 182.9 191.8 182.8 191.9 182.75 191.8 182.65 191.45 182.05 191.2 181.85
L 190.45 181.05
Q 190.35 180.95 190.2 180.95 190.05 180.95 190.05 181.15 190 181.65 190.6 182.15 Z"/>
</g>

<g id="Chili_Pepper_0_Layer0_0_MEMBER_25_FILL">
<path fill="#690014" stroke="none" d="
M 189 178.3
Q 189.25 178.2 189.1 178.1 189.05 178.1 188.85 177.75
L 188.45 177.3 187.8 176.4
Q 187.7 176.3 187.6 176.35 187.5 176.4 187.5 176.5 187.5 177 188.05 177.55 188.25 177.8 188.55 177.95 188.8 178.25 189 178.3 Z"/>
</g>

<g id="Chili_Pepper_0_Layer0_0_MEMBER_26_FILL">
<path fill="#690014" stroke="none" d="
M 193.55 179.65
Q 193.55 179.55 193.45 179.5 193.2 179.1 193.1 178.95 192.85 178.5 192.4 178.3 192.3 178.25 192.25 178.35 192.15 178.45 192.2 178.5
L 192.55 179 192.9 179.3
Q 193.25 179.75 193.35 179.8 193.5 179.8 193.55 179.65 Z"/>
</g>

<g id="Chili_Pepper_0_Layer0_0_MEMBER_27_FILL">
<path fill="#690014" stroke="none" d="
M 192.2 175.7
Q 192.2 175.55 192.05 175.55 191.65 175.25 191.5 175.15
L 190.9 174.85
Q 190.3 174.4 189.85 174.3 189.75 174.25 189.7 174.35 189.65 174.45 189.7 174.5 189.75 174.55 190.2 174.9
L 190.8 175.3 191.55 175.65
Q 191.85 175.85 192 175.85 192.15 175.85 192.2 175.7 Z"/>
</g>

<g id="Chili_Pepper_0_Layer0_0_MEMBER_28_FILL">
<path fill="#690014" stroke="none" d="
M 193.85 172.95
L 193.3 172.75
Q 192.2 172.45 192.1 172.45 191.9 172.55 191.95 172.7 192 172.95 192.3 173.05 192.5 173.15 192.85 173.2
L 193.65 173.4 194.15 173.75
Q 194.35 173.85 194.4 173.65 194.5 173.45 194.3 173.35 194.05 173.05 193.85 172.95 Z"/>
</g>

<g id="Chili_Pepper_0_Layer0_0_MEMBER_29_FILL">
<path fill="#690014" stroke="none" d="
M 197.2 179
L 196.85 178.55
Q 196.55 178.2 195.8 178 195.7 178 195.7 178.1 195.65 178.2 195.7 178.25 195.75 178.35 196.55 179
L 197 179.3 197.25 179.65
Q 197.35 179.75 197.4 179.55 197.3 179.2 197.2 179 Z"/>
</g>

<g id="Chili_Pepper_0_Layer0_0_MEMBER_30_FILL">
<path fill="#690014" stroke="none" d="
M 197.6 184.7
L 197.65 184.65 197.3 184.3 196.75 183.9 195.65 183.4
Q 195.5 183.35 195.35 183.45 195.25 183.55 195.3 183.7 195.5 184.05 196.45 184.4 197.25 184.75 197.6 184.7 Z"/>
</g>

<g id="Chili_Pepper_0_Layer0_0_MEMBER_31_FILL">
<path fill="#690014" stroke="none" d="
M 197.25 188.2
Q 197.45 188.2 197.35 188.05 196.8 187.5 196.55 187.35 195.85 187.15 195.55 186.95 195.4 186.85 195.25 187 195.1 187.15 195.2 187.3 195.4 187.5 196.1 187.7
L 197.25 188.2 Z"/>
</g>

<g id="Chili_Pepper_0_Layer0_0_MEMBER_32_FILL">
<path fill="#690014" stroke="none" d="
M 201.2 183.75
Q 201.4 183.8 202.45 183.7 202.55 183.65 202.5 183.6 202.5 183.5 202.4 183.5 201.85 183.5 200.45 182.85 200.3 182.8 200.2 182.95 200.1 183.1 200.2 183.2 200.45 183.55 201.2 183.75 Z"/>
</g>

<g id="Chili_Pepper_0_Layer0_0_MEMBER_33_FILL">
<path fill="#690014" stroke="none" d="
M 201.25 180.75
L 201.25 180.7 201.15 180.6
Q 201 180.65 200.8 180.55
L 200.65 180.25 200.15 179.95
Q 199.9 179.9 199.35 180 199.05 180.1 199.15 180.35 199.3 180.6 199.6 180.6
L 199.7 180.65 200.45 180.75
Q 200.65 180.95 200.85 180.95
L 201.15 180.85 201.25 180.75 Z"/>
</g>

<g id="Chili_Pepper_0_Layer0_0_MEMBER_34_FILL">
<path fill="#690014" stroke="none" d="
M 193.65 183.9
Q 193.6 183.8 193.5 183.8 193.45 183.85 193.3 183.7
L 193.05 183.45
Q 193 183.4 192.9 183.45 192.85 183.55 192.9 183.6
L 193.1 183.95
Q 193.3 184.2 193.6 184.05 193.7 184 193.65 183.9 Z"/>
</g>

<g id="Chili_Pepper_0_Layer0_0_MEMBER_35_FILL">
<path fill="#690014" stroke="none" d="
M 187.7 173.4
Q 187.65 173.3 187.55 173.35 187.1 173.5 187 173.85 186.9 174.3 187.05 174.65 187.1 174.75 187.2 174.8 187.35 174.8 187.35 174.65
L 187.4 174
Q 187.65 173.75 187.7 173.55 187.75 173.45 187.7 173.4 Z"/>
</g>

<g id="Chili_Pepper_0_Layer0_0_MEMBER_36_FILL">
<path fill="#690014" stroke="none" d="
M 201.85 188
L 202.3 187.9
Q 202.6 187.9 202.65 187.95 202.7 188 202.75 187.95 202.85 187.9 202.85 187.85 202.85 187.45 202.3 187.35
L 201 187.3
Q 200.9 187.25 200.85 187.35 200.75 187.45 200.85 187.55 201.1 187.9 201.85 188 Z"/>
</g>

<g id="Chili_Pepper_0_Layer0_0_MEMBER_37_FILL">
<path fill="#690014" stroke="none" d="
M 208 190.4
L 208.05 190.3
Q 207.7 190.05 207.1 190.05
L 205.85 189.75
Q 205.55 189.75 205.65 190.05 205.9 190.55 206.7 190.65
L 207.35 190.6 208 190.4 Z"/>
</g>

<g id="Chili_Pepper_0_Layer0_0_MEMBER_38_FILL">
<path fill="#690014" stroke="none" d="
M 207.05 186.35
Q 207.25 186.15 207 186.15 206.85 186.2 206.65 186.05 206.35 185.9 206.3 185.9
L 205.7 185.7
Q 204.9 185.6 204.35 185.75 204.25 185.8 204.25 185.95 204.3 186.05 204.4 186.1 205.45 186.1 205.95 186.2 206.15 186.25 206.5 186.4 206.8 186.5 207.05 186.35 Z"/>
</g>

<g id="Chili_Pepper_0_Layer0_0_MEMBER_39_FILL">
<path fill="#690014" stroke="none" d="
M 210.3 188.6
Q 210.25 188.6 210.2 188.7 210.15 188.8 210.2 188.85 210.4 189.15 210.55 189.2 211.05 189.4 211.35 189.35 211.75 189.35 211.95 189.05
L 212.05 188.9
Q 211.95 188.75 211.65 188.75
L 211.25 188.75
Q 210.95 188.65 210.8 188.6 210.5 188.55 210.3 188.6 Z"/>
</g>

<g id="Chili_Pepper_0_Layer0_0_MEMBER_40_FILL">
<path fill="#690014" stroke="none" d="
M 215.15 191.3
Q 215.15 191.2 215.05 191.2 214.9 191.25 214.5 191.15
L 213.2 191.2
Q 213 191.1 213 191.3 212.8 191.8 213.6 191.8
L 214.35 191.75
Q 214.6 191.7 215.1 191.4 215.2 191.35 215.15 191.3 Z"/>
</g>

<g id="Chili_Pepper_0_Layer0_0_MEMBER_41_FILL">
<path fill="#690014" stroke="none" d="
M 219.45 190.4
Q 219.4 190.25 219.3 190.3
L 218.65 190.3
Q 218.15 190.2 218.05 190.2 217.9 190.3 217.9 190.45 217.9 190.6 218.05 190.65 218.3 190.7 218.7 190.85 218.8 190.85 219.4 190.6 219.5 190.55 219.45 190.4 Z"/>
</g>

<g id="Chili_Pepper_0_Layer0_0_MEMBER_42_FILL">
<path fill="#690014" stroke="none" d="
M 216.2 188.35
Q 216.35 188.2 216.1 188.2
L 215.9 188.25
Q 215.7 188.3 215.5 188.2
L 214.7 187.95
Q 214.65 187.9 214.55 188 214.45 188.1 214.5 188.15 214.8 188.6 215.4 188.7 215.65 188.8 215.85 188.65 216 188.6 216.2 188.35 Z"/>
</g>

<g id="Chili_Pepper_0_Layer0_0_MEMBER_43_FILL">
<path fill="#690014" stroke="none" d="
M 211.15 186.95
Q 211.3 187.05 211.3 186.8
L 211.05 186.6
Q 210.9 186.6 210.8 186.5 210.4 186.2 210.1 186.35 209.95 186.4 210 186.55 210 186.65 210.15 186.7
L 210.35 186.85 210.65 187 210.9 187 211.15 186.95 Z"/>
</g>

<g id="Chili_Pepper_0_Layer0_0_MEMBER_44_FILL">
<path fill="#690014" stroke="none" d="
M 200.6 190.05
Q 200.7 189.9 200.6 189.8
L 199.8 189.4
Q 199.7 189.35 199.6 189.45 199.5 189.55 199.6 189.65 199.7 189.8 200 189.9
L 200.35 190.1
Q 200.5 190.2 200.6 190.05 Z"/>
</g>

<g id="Chili_Pepper_0_Layer0_0_MEMBER_45_FILL">
<path fill="#690014" stroke="none" d="
M 225.05 189.45
Q 225 189.3 224.9 189.25 224.8 189.25 224 189.55
L 223.55 189.75 223.1 189.85
Q 223 189.9 223 190 223 190.1 223.05 190.15 223.4 190.4 223.85 190.2
L 224.75 189.65 224.85 189.65 224.9 189.6
Q 225.05 189.55 225.05 189.45 Z"/>
</g>

<g id="Chili_Pepper_0_Layer0_0_MEMBER_46_FILL">
<path fill="#690014" stroke="none" d="
M 218.4 187.1
Q 218.4 186.95 218.2 186.9
L 217.55 187 217 187.25
Q 216.75 187.5 217.05 187.6 217.4 187.75 218.25 187.4 218.4 187.3 218.4 187.1 Z"/>
</g>

<g id="Chili_Pepper_0_Layer0_0_MEMBER_47_FILL">
<path fill="#690014" stroke="none" d="
M 192.8 186.1
Q 192.55 185.95 192.45 185.8 192.25 185.6 192.15 185.9 192.1 186.1 192.45 186.55
L 192.7 186.75 192.95 186.8 192.95 186.85
Q 192.95 186.95 193.05 186.95 193.1 187 193.15 186.9
L 193.25 186.65
Q 193.25 186.55 193.05 186.35
L 192.8 186.1 Z"/>
</g>

<g id="Chili_Pepper_0_Layer0_0_MEMBER_48_FILL">
<path fill="#690014" stroke="none" d="
M 195.95 174.9
L 195.8 175 195.8 175.05
Q 195.7 175.15 195.85 175.25
L 196.05 175.4 196.2 175.65
Q 196.5 175.95 196.9 175.85 197 175.85 197 175.75 197 175.6 196.9 175.6
L 196.45 175.15
Q 196.25 174.85 195.95 174.9 Z"/>
</g>
</defs>

<g transform="matrix( 1, 0, 0, 1, 0.05,0.05) ">
<g transform="matrix( 2.3423004150390625, 0, 0, 2.3423004150390625, -182.65,-167.7) ">
<use xlink:href="#Chili_Pepper_0_Layer0_0_MEMBER_0_MEMBER_0_FILL"/>
</g>

<g transform="matrix( 2.3423004150390625, 0, 0, 2.3423004150390625, -182.65,-167.7) ">
<use xlink:href="#Chili_Pepper_0_Layer0_0_MEMBER_0_MEMBER_1_FILL"/>
</g>

<g transform="matrix( 2.3423004150390625, 0, 0, 2.3423004150390625, -182.65,-167.7) ">
<use xlink:href="#Chili_Pepper_0_Layer0_0_MEMBER_0_MEMBER_2_FILL"/>
</g>

<g transform="matrix( 2.3423004150390625, 0, 0, 2.3423004150390625, -182.65,-167.7) ">
<use xlink:href="#Chili_Pepper_0_Layer0_0_MEMBER_1_MEMBER_0_FILL"/>
</g>

<g transform="matrix( 2.3423004150390625, 0, 0, 2.3423004150390625, -182.65,-167.7) ">
<use xlink:href="#Chili_Pepper_0_Layer0_0_MEMBER_1_MEMBER_1_FILL"/>
</g>

<g transform="matrix( 2.3423004150390625, 0, 0, 2.3423004150390625, -182.65,-167.7) ">
<use xlink:href="#Chili_Pepper_0_Layer0_0_MEMBER_1_MEMBER_2_FILL"/>
</g>

<g transform="matrix( 2.3423004150390625, 0, 0, 2.3423004150390625, -182.65,-167.7) ">
<use xlink:href="#Chili_Pepper_0_Layer0_0_MEMBER_1_MEMBER_3_FILL"/>
</g>

<g transform="matrix( 2.3423004150390625, 0, 0, 2.3423004150390625, -182.65,-167.7) ">
<use xlink:href="#Chili_Pepper_0_Layer0_0_MEMBER_1_MEMBER_4_FILL"/>
</g>

<g transform="matrix( 2.3421630859375, 0, 0, 2.3421630859375, -182.65,-167.7) ">
<use xlink:href="#Chili_Pepper_0_Layer0_0_MEMBER_2_MEMBER_0_MEMBER_0_FILL"/>
</g>

<g transform="matrix( 2.3421630859375, 0, 0, 2.3421630859375, -182.65,-167.7) ">
<use xlink:href="#Chili_Pepper_0_Layer0_0_MEMBER_2_MEMBER_0_MEMBER_1_FILL"/>
</g>

<g transform="matrix( 2.3418731689453125, 0, 0, 2.3418731689453125, -182.65,-167.7) ">
<use xlink:href="#Chili_Pepper_0_Layer0_0_MEMBER_2_MEMBER_0_MEMBER_2_MEMBER_0_FILL"/>
</g>

<g transform="matrix( 2.3418731689453125, 0, 0, 2.3418731689453125, -182.65,-167.7) ">
<use xlink:href="#Chili_Pepper_0_Layer0_0_MEMBER_2_MEMBER_0_MEMBER_2_MEMBER_1_FILL"/>
</g>

<g transform="matrix( 2.3418731689453125, 0, 0, 2.3418731689453125, -182.65,-167.7) ">
<use xlink:href="#Chili_Pepper_0_Layer0_0_MEMBER_2_MEMBER_0_MEMBER_2_MEMBER_2_FILL"/>
</g>

<g transform="matrix( 2.3418731689453125, 0, 0, 2.3418731689453125, -182.65,-167.7) ">
<use xlink:href="#Chili_Pepper_0_Layer0_0_MEMBER_2_MEMBER_0_MEMBER_2_MEMBER_3_FILL"/>
</g>

<g transform="matrix( 2.3418731689453125, 0, 0, 2.3418731689453125, -182.65,-167.7) ">
<use xlink:href="#Chili_Pepper_0_Layer0_0_MEMBER_2_MEMBER_0_MEMBER_2_MEMBER_4_FILL"/>
</g>

<g transform="matrix( 2.3418731689453125, 0, 0, 2.3418731689453125, -182.65,-167.7) ">
<use xlink:href="#Chili_Pepper_0_Layer0_0_MEMBER_2_MEMBER_0_MEMBER_2_MEMBER_5_FILL"/>
</g>

<g transform="matrix( 2.3418731689453125, 0, 0, 2.3418731689453125, -182.65,-167.7) ">
<use xlink:href="#Chili_Pepper_0_Layer0_0_MEMBER_2_MEMBER_0_MEMBER_2_MEMBER_6_FILL"/>
</g>

<g transform="matrix( 2.3418731689453125, 0, 0, 2.3418731689453125, -182.65,-167.7) ">
<use xlink:href="#Chili_Pepper_0_Layer0_0_MEMBER_2_MEMBER_0_MEMBER_2_MEMBER_7_FILL"/>
</g>

<g transform="matrix( 2.3418731689453125, 0, 0, 2.3418731689453125, -182.65,-167.7) ">
<use xlink:href="#Chili_Pepper_0_Layer0_0_MEMBER_2_MEMBER_0_MEMBER_2_MEMBER_8_FILL"/>
</g>

<g transform="matrix( 2.3418731689453125, 0, 0, 2.3418731689453125, -182.65,-167.7) ">
<use xlink:href="#Chili_Pepper_0_Layer0_0_MEMBER_2_MEMBER_0_MEMBER_2_MEMBER_9_FILL"/>
</g>

<g transform="matrix( 2.3418731689453125, 0, 0, 2.3418731689453125, -182.65,-167.7) ">
<use xlink:href="#Chili_Pepper_0_Layer0_0_MEMBER_2_MEMBER_0_MEMBER_2_MEMBER_10_FILL"/>
</g>

<g transform="matrix( 2.3418731689453125, 0, 0, 2.3418731689453125, -182.65,-167.7) ">
<use xlink:href="#Chili_Pepper_0_Layer0_0_MEMBER_2_MEMBER_0_MEMBER_2_MEMBER_11_FILL"/>
</g>

<g transform="matrix( 2.3418731689453125, 0, 0, 2.3418731689453125, -182.65,-167.7) ">
<use xlink:href="#Chili_Pepper_0_Layer0_0_MEMBER_2_MEMBER_0_MEMBER_2_MEMBER_12_FILL"/>
</g>

<g transform="matrix( 2.3418731689453125, 0, 0, 2.3418731689453125, -182.65,-167.7) ">
<use xlink:href="#Chili_Pepper_0_Layer0_0_MEMBER_2_MEMBER_0_MEMBER_2_MEMBER_13_FILL"/>
</g>

<g transform="matrix( 2.3418731689453125, 0, 0, 2.3418731689453125, -182.65,-167.7) ">
<use xlink:href="#Chili_Pepper_0_Layer0_0_MEMBER_2_MEMBER_0_MEMBER_2_MEMBER_14_FILL"/>
</g>

<g transform="matrix( 2.3418731689453125, 0, 0, 2.3418731689453125, -182.65,-167.7) ">
<use xlink:href="#Chili_Pepper_0_Layer0_0_MEMBER_2_MEMBER_0_MEMBER_2_MEMBER_15_FILL"/>
</g>

<g transform="matrix( 2.3418731689453125, 0, 0, 2.3418731689453125, -182.65,-167.7) ">
<use xlink:href="#Chili_Pepper_0_Layer0_0_MEMBER_2_MEMBER_0_MEMBER_2_MEMBER_16_FILL"/>
</g>

<g transform="matrix( 2.3418731689453125, 0, 0, 2.3418731689453125, -182.65,-167.7) ">
<use xlink:href="#Chili_Pepper_0_Layer0_0_MEMBER_2_MEMBER_0_MEMBER_2_MEMBER_17_FILL"/>
</g>

<g transform="matrix( 2.3418731689453125, 0, 0, 2.3418731689453125, -182.65,-167.7) ">
<use xlink:href="#Chili_Pepper_0_Layer0_0_MEMBER_2_MEMBER_0_MEMBER_2_MEMBER_18_FILL"/>
</g>

<g transform="matrix( 2.3418731689453125, 0, 0, 2.3418731689453125, -182.65,-167.7) ">
<use xlink:href="#Chili_Pepper_0_Layer0_0_MEMBER_2_MEMBER_0_MEMBER_2_MEMBER_19_FILL"/>
</g>

<g transform="matrix( 2.3418731689453125, 0, 0, 2.3418731689453125, -182.65,-167.7) ">
<use xlink:href="#Chili_Pepper_0_Layer0_0_MEMBER_2_MEMBER_0_MEMBER_2_MEMBER_20_FILL"/>
</g>

<g transform="matrix( 2.3418731689453125, 0, 0, 2.3418731689453125, -182.65,-167.7) ">
<use xlink:href="#Chili_Pepper_0_Layer0_0_MEMBER_2_MEMBER_0_MEMBER_2_MEMBER_21_FILL"/>
</g>

<g transform="matrix( 2.3418731689453125, 0, 0, 2.3418731689453125, -182.65,-167.7) ">
<use xlink:href="#Chili_Pepper_0_Layer0_0_MEMBER_2_MEMBER_0_MEMBER_2_MEMBER_22_FILL"/>
</g>

<g transform="matrix( 2.3418731689453125, 0, 0, 2.3418731689453125, -182.65,-167.7) ">
<use xlink:href="#Chili_Pepper_0_Layer0_0_MEMBER_2_MEMBER_0_MEMBER_2_MEMBER_23_FILL"/>
</g>

<g transform="matrix( 2.3418731689453125, 0, 0, 2.3418731689453125, -182.65,-167.7) ">
<use xlink:href="#Chili_Pepper_0_Layer0_0_MEMBER_2_MEMBER_0_MEMBER_2_MEMBER_24_FILL"/>
</g>

<g transform="matrix( 2.3418731689453125, 0, 0, 2.3418731689453125, -182.65,-167.7) ">
<use xlink:href="#Chili_Pepper_0_Layer0_0_MEMBER_2_MEMBER_0_MEMBER_2_MEMBER_25_FILL"/>
</g>

<g transform="matrix( 2.3418731689453125, 0, 0, 2.3418731689453125, -182.65,-167.7) ">
<use xlink:href="#Chili_Pepper_0_Layer0_0_MEMBER_2_MEMBER_0_MEMBER_2_MEMBER_26_FILL"/>
</g>

<g transform="matrix( 2.3418731689453125, 0, 0, 2.3418731689453125, -182.65,-167.7) ">
<use xlink:href="#Chili_Pepper_0_Layer0_0_MEMBER_2_MEMBER_0_MEMBER_2_MEMBER_27_FILL"/>
</g>

<g transform="matrix( 2.3418731689453125, 0, 0, 2.3418731689453125, -182.65,-167.7) ">
<use xlink:href="#Chili_Pepper_0_Layer0_0_MEMBER_2_MEMBER_0_MEMBER_2_MEMBER_28_FILL"/>
</g>

<g transform="matrix( 2.3418731689453125, 0, 0, 2.3418731689453125, -182.65,-167.7) ">
<use xlink:href="#Chili_Pepper_0_Layer0_0_MEMBER_2_MEMBER_0_MEMBER_2_MEMBER_29_FILL"/>
</g>

<g transform="matrix( 2.3418731689453125, 0, 0, 2.3418731689453125, -182.65,-167.7) ">
<use xlink:href="#Chili_Pepper_0_Layer0_0_MEMBER_2_MEMBER_0_MEMBER_2_MEMBER_30_FILL"/>
</g>

<g transform="matrix( 2.3418731689453125, 0, 0, 2.3418731689453125, -182.65,-167.7) ">
<use xlink:href="#Chili_Pepper_0_Layer0_0_MEMBER_2_MEMBER_0_MEMBER_2_MEMBER_31_FILL"/>
</g>

<g transform="matrix( 2.3418731689453125, 0, 0, 2.3418731689453125, -182.65,-167.7) ">
<use xlink:href="#Chili_Pepper_0_Layer0_0_MEMBER_2_MEMBER_0_MEMBER_2_MEMBER_32_FILL"/>
</g>

<g transform="matrix( 2.3418731689453125, 0, 0, 2.3418731689453125, -182.65,-167.7) ">
<use xlink:href="#Chili_Pepper_0_Layer0_0_MEMBER_2_MEMBER_0_MEMBER_2_MEMBER_33_FILL"/>
</g>

<g transform="matrix( 2.3421630859375, 0, 0, 2.3421630859375, 355.35,14.45) ">
<g transform="matrix( 1, 0, 0, 1, 0,0) ">
<use filter="url(#Filter_1)" xlink:href="#FlashAICB_Isolation_Mode__Compound_Path__0_Layer0_0_FILL"/>
</g>
</g>

<g transform="matrix( 2.3421630859375, 0, 0, 2.3421630859375, -182.65,-167.7) ">
<use xlink:href="#Chili_Pepper_0_Layer0_0_MEMBER_2_MEMBER_0_MEMBER_4_FILL"/>
</g>

<g transform="matrix( 2.3421630859375, 0, 0, 2.3421630859375, -182.65,-167.7) ">
<use xlink:href="#Chili_Pepper_0_Layer0_0_MEMBER_2_MEMBER_0_MEMBER_5_FILL"/>
</g>

<g transform="matrix( 2.3421630859375, 0, 0, 2.3421630859375, -182.65,-167.7) ">
<use xlink:href="#Chili_Pepper_0_Layer0_0_MEMBER_2_MEMBER_0_MEMBER_6_FILL"/>
</g>

<g transform="matrix( 2.3421630859375, 0, 0, 2.3421630859375, 357.55,165.55) ">
<g transform="matrix( 1, 0, 0, 1, 0,0) ">
<use filter="url(#Filter_1)" xlink:href="#FlashAICB_Isolation_Mode__Path__0_Layer0_0_FILL"/>
</g>
</g>

<g transform="matrix( 2.3423004150390625, 0, 0, 2.3423004150390625, -182.65,-167.7) ">
<use xlink:href="#Chili_Pepper_0_Layer0_0_MEMBER_3_MEMBER_0_FILL"/>
</g>

<g transform="matrix( 2.3423004150390625, 0, 0, 2.3423004150390625, -182.65,-167.7) ">
<use xlink:href="#Chili_Pepper_0_Layer0_0_MEMBER_3_MEMBER_1_FILL"/>
</g>

<g transform="matrix( 2.3423004150390625, 0, 0, 2.3423004150390625, -182.65,-167.7) ">
<use xlink:href="#Chili_Pepper_0_Layer0_0_MEMBER_3_MEMBER_2_FILL"/>
</g>

<g transform="matrix( 2.3423004150390625, 0, 0, 2.3423004150390625, -182.65,-167.7) ">
<use xlink:href="#Chili_Pepper_0_Layer0_0_MEMBER_4_MEMBER_0_FILL"/>
</g>

<g transform="matrix( 2.3423004150390625, 0, 0, 2.3423004150390625, -182.65,-167.7) ">
<use xlink:href="#Chili_Pepper_0_Layer0_0_MEMBER_4_MEMBER_1_FILL"/>
</g>

<g transform="matrix( 2.3425445556640625, 0, 0, 2.3425445556640625, -182.65,-167.7) ">
<use xlink:href="#Chili_Pepper_0_Layer0_0_MEMBER_5_FILL"/>
</g>

<g transform="matrix( 2.3425445556640625, 0, 0, 2.3425445556640625, -182.65,-167.7) ">
<use xlink:href="#Chili_Pepper_0_Layer0_0_MEMBER_6_FILL"/>
</g>

<g transform="matrix( 2.3425445556640625, 0, 0, 2.3425445556640625, -182.65,-167.7) ">
<use xlink:href="#Chili_Pepper_0_Layer0_0_MEMBER_7_FILL"/>
</g>

<g transform="matrix( 2.3425445556640625, 0, 0, 2.3425445556640625, -182.65,-167.7) ">
<use xlink:href="#Chili_Pepper_0_Layer0_0_MEMBER_8_FILL"/>
</g>

<g transform="matrix( 2.3425445556640625, 0, 0, 2.3425445556640625, -182.65,-167.7) ">
<use xlink:href="#Chili_Pepper_0_Layer0_0_MEMBER_9_FILL"/>
</g>

<g transform="matrix( 2.3425445556640625, 0, 0, 2.3425445556640625, -182.65,-167.7) ">
<use xlink:href="#Chili_Pepper_0_Layer0_0_MEMBER_10_FILL"/>
</g>

<g transform="matrix( 2.3425445556640625, 0, 0, 2.3425445556640625, -182.65,-167.7) ">
<use xlink:href="#Chili_Pepper_0_Layer0_0_MEMBER_11_FILL"/>
</g>

<g transform="matrix( 2.3425445556640625, 0, 0, 2.3425445556640625, -182.65,-167.7) ">
<use xlink:href="#Chili_Pepper_0_Layer0_0_MEMBER_12_FILL"/>
</g>

<g transform="matrix( 2.3425445556640625, 0, 0, 2.3425445556640625, -182.65,-167.7) ">
<use xlink:href="#Chili_Pepper_0_Layer0_0_MEMBER_13_FILL"/>
</g>

<g transform="matrix( 2.3425445556640625, 0, 0, 2.3425445556640625, -182.65,-167.7) ">
<use xlink:href="#Chili_Pepper_0_Layer0_0_MEMBER_14_FILL"/>
</g>

<g transform="matrix( 2.3425445556640625, 0, 0, 2.3425445556640625, -182.65,-167.7) ">
<use xlink:href="#Chili_Pepper_0_Layer0_0_MEMBER_15_FILL"/>
</g>

<g transform="matrix( 2.3425445556640625, 0, 0, 2.3425445556640625, -182.65,-167.7) ">
<use xlink:href="#Chili_Pepper_0_Layer0_0_MEMBER_16_FILL"/>
</g>

<g transform="matrix( 2.3425445556640625, 0, 0, 2.3425445556640625, -182.65,-167.7) ">
<use xlink:href="#Chili_Pepper_0_Layer0_0_MEMBER_17_FILL"/>
</g>

<g transform="matrix( 2.3425445556640625, 0, 0, 2.3425445556640625, -182.65,-167.7) ">
<use xlink:href="#Chili_Pepper_0_Layer0_0_MEMBER_18_FILL"/>
</g>

<g transform="matrix( 2.3425445556640625, 0, 0, 2.3425445556640625, -182.65,-167.7) ">
<use xlink:href="#Chili_Pepper_0_Layer0_0_MEMBER_19_FILL"/>
</g>

<g transform="matrix( 2.3425445556640625, 0, 0, 2.3425445556640625, -182.65,-167.7) ">
<use xlink:href="#Chili_Pepper_0_Layer0_0_MEMBER_20_FILL"/>
</g>

<g transform="matrix( 2.3425445556640625, 0, 0, 2.3425445556640625, -182.65,-167.7) ">
<use xlink:href="#Chili_Pepper_0_Layer0_0_MEMBER_21_FILL"/>
</g>

<g transform="matrix( 2.3425445556640625, 0, 0, 2.3425445556640625, -182.65,-167.7) ">
<use xlink:href="#Chili_Pepper_0_Layer0_0_MEMBER_22_FILL"/>
</g>

<g transform="matrix( 2.3425445556640625, 0, 0, 2.3425445556640625, -182.65,-167.7) ">
<use xlink:href="#Chili_Pepper_0_Layer0_0_MEMBER_23_FILL"/>
</g>

<g transform="matrix( 2.3425445556640625, 0, 0, 2.3425445556640625, -182.65,-167.7) ">
<use xlink:href="#Chili_Pepper_0_Layer0_0_MEMBER_24_FILL"/>
</g>

<g transform="matrix( 2.3425445556640625, 0, 0, 2.3425445556640625, -182.65,-167.7) ">
<use xlink:href="#Chili_Pepper_0_Layer0_0_MEMBER_25_FILL"/>
</g>

<g transform="matrix( 2.3425445556640625, 0, 0, 2.3425445556640625, -182.65,-167.7) ">
<use xlink:href="#Chili_Pepper_0_Layer0_0_MEMBER_26_FILL"/>
</g>

<g transform="matrix( 2.3425445556640625, 0, 0, 2.3425445556640625, -182.65,-167.7) ">
<use xlink:href="#Chili_Pepper_0_Layer0_0_MEMBER_27_FILL"/>
</g>

<g transform="matrix( 2.3425445556640625, 0, 0, 2.3425445556640625, -182.65,-167.7) ">
<use xlink:href="#Chili_Pepper_0_Layer0_0_MEMBER_28_FILL"/>
</g>

<g transform="matrix( 2.3425445556640625, 0, 0, 2.3425445556640625, -182.65,-167.7) ">
<use xlink:href="#Chili_Pepper_0_Layer0_0_MEMBER_29_FILL"/>
</g>

<g transform="matrix( 2.3425445556640625, 0, 0, 2.3425445556640625, -182.65,-167.7) ">
<use xlink:href="#Chili_Pepper_0_Layer0_0_MEMBER_30_FILL"/>
</g>

<g transform="matrix( 2.3425445556640625, 0, 0, 2.3425445556640625, -182.65,-167.7) ">
<use xlink:href="#Chili_Pepper_0_Layer0_0_MEMBER_31_FILL"/>
</g>

<g transform="matrix( 2.3425445556640625, 0, 0, 2.3425445556640625, -182.65,-167.7) ">
<use xlink:href="#Chili_Pepper_0_Layer0_0_MEMBER_32_FILL"/>
</g>

<g transform="matrix( 2.3425445556640625, 0, 0, 2.3425445556640625, -182.65,-167.7) ">
<use xlink:href="#Chili_Pepper_0_Layer0_0_MEMBER_33_FILL"/>
</g>

<g transform="matrix( 2.3425445556640625, 0, 0, 2.3425445556640625, -182.65,-167.7) ">
<use xlink:href="#Chili_Pepper_0_Layer0_0_MEMBER_34_FILL"/>
</g>

<g transform="matrix( 2.3425445556640625, 0, 0, 2.3425445556640625, -182.65,-167.7) ">
<use xlink:href="#Chili_Pepper_0_Layer0_0_MEMBER_35_FILL"/>
</g>

<g transform="matrix( 2.3425445556640625, 0, 0, 2.3425445556640625, -182.65,-167.7) ">
<use xlink:href="#Chili_Pepper_0_Layer0_0_MEMBER_36_FILL"/>
</g>

<g transform="matrix( 2.3425445556640625, 0, 0, 2.3425445556640625, -182.65,-167.7) ">
<use xlink:href="#Chili_Pepper_0_Layer0_0_MEMBER_37_FILL"/>
</g>

<g transform="matrix( 2.3425445556640625, 0, 0, 2.3425445556640625, -182.65,-167.7) ">
<use xlink:href="#Chili_Pepper_0_Layer0_0_MEMBER_38_FILL"/>
</g>

<g transform="matrix( 2.3425445556640625, 0, 0, 2.3425445556640625, -182.65,-167.7) ">
<use xlink:href="#Chili_Pepper_0_Layer0_0_MEMBER_39_FILL"/>
</g>

<g transform="matrix( 2.3425445556640625, 0, 0, 2.3425445556640625, -182.65,-167.7) ">
<use xlink:href="#Chili_Pepper_0_Layer0_0_MEMBER_40_FILL"/>
</g>

<g transform="matrix( 2.3425445556640625, 0, 0, 2.3425445556640625, -182.65,-167.7) ">
<use xlink:href="#Chili_Pepper_0_Layer0_0_MEMBER_41_FILL"/>
</g>

<g transform="matrix( 2.3425445556640625, 0, 0, 2.3425445556640625, -182.65,-167.7) ">
<use xlink:href="#Chili_Pepper_0_Layer0_0_MEMBER_42_FILL"/>
</g>

<g transform="matrix( 2.3425445556640625, 0, 0, 2.3425445556640625, -182.65,-167.7) ">
<use xlink:href="#Chili_Pepper_0_Layer0_0_MEMBER_43_FILL"/>
</g>

<g transform="matrix( 2.3425445556640625, 0, 0, 2.3425445556640625, -182.65,-167.7) ">
<use xlink:href="#Chili_Pepper_0_Layer0_0_MEMBER_44_FILL"/>
</g>

<g transform="matrix( 2.3425445556640625, 0, 0, 2.3425445556640625, -182.65,-167.7) ">
<use xlink:href="#Chili_Pepper_0_Layer0_0_MEMBER_45_FILL"/>
</g>

<g transform="matrix( 2.3425445556640625, 0, 0, 2.3425445556640625, -182.65,-167.7) ">
<use xlink:href="#Chili_Pepper_0_Layer0_0_MEMBER_46_FILL"/>
</g>

<g transform="matrix( 2.3425445556640625, 0, 0, 2.3425445556640625, -182.65,-167.7) ">
<use xlink:href="#Chili_Pepper_0_Layer0_0_MEMBER_47_FILL"/>
</g>

<g transform="matrix( 2.3425445556640625, 0, 0, 2.3425445556640625, -182.65,-167.7) ">
<use xlink:href="#Chili_Pepper_0_Layer0_0_MEMBER_48_FILL"/>
</g>
</g>
</svg>
