
<svg xmlns="http://www.w3.org/2000/svg" version="1.1" xmlns:xlink="http://www.w3.org/1999/xlink" preserveAspectRatio="none" x="0px" y="0px" width="502px" height="551px" viewBox="0 0 502 551">
<defs>
<g id="Eagle_0_Layer0_0_MEMBER_0_FILL">
<path fill="#1A1718" stroke="none" d="
M 1424.15 679.5
Q 1416.4 666.1 1401.65 653.85 1388.35 642.85 1363.8 628.35 1349.6 620 1306.9 596.5 1260.05 570.75 1227.15 551.75 1194.45 532.85 1148.55 505.05 1106.95 479.85 1092.5 471.7 1067.7 457.7 1051.55 451.7 1033.55 445.05 1018.1 445.05 1002.6 445.05 984.6 451.7 968.45 457.7 943.65 471.7 929.2 479.85 887.6 505.05 841.65 532.9 809 551.75 776.15 570.7 729.2 596.5 686.5 620 672.3 628.35 647.75 642.85 634.5 653.85 619.7 666.1 611.95 679.5 604.25 692.9 601 711.8 598.15 728.75 597.85 757.25 597.7 773.75 598.7 822.45 599.85 875.85 599.85 913.85 599.85 935.4 599.75 945.35 601.1 941.25 603.25 935.65 611.95 914 624.9 895.5
L 621.55 896.2 627.35 869.35
Q 634.8 835.4 672 794.8 691.3 773.65 716.65 752.45
L 664.15 746.75 692.8 720.35
Q 709.85 704.7 733.7 690.7 766.45 671.4 808.75 657.4
L 791.55 652.1 839.15 633.7
Q 868 622.45 893.75 615.7 921.85 608.25 950.25 605 1028.65 596.25 1125 617.25 1165.65 626.1 1197.2 639.15 1237 655.55 1261.25 678.25 1268.7 685.3 1274.9 693.3 1282.2 702.8 1286.05 711.65 1299.85 717.75 1305.2 730.4 1316.8 732.85 1328.9 738.15 1341.9 743.7 1353.7 751.4 1365.95 759.4 1375.75 768.9 1389.25 782.15 1396.55 796.35 1408.95 820.5 1405.15 846.7 1398.8 890.3 1378.15 921.85 1373.55 928.85 1368.25 935 1362.05 942.25 1356.4 946.45
L 1320.1 973.3 1328.45 929
Q 1330.15 919.5 1327.5 910.4 1324.6 900.2 1317.3 895.25 1307.85 888.8 1290.2 885.2 1275.3 882.15 1260.55 882.05 1248 886.35 1238.4 891.85 1230.75 896.35 1228.2 899.6 1230.15 902.05 1235.85 905.75 1271.7 928.45 1284.15 956.25 1287.25 963.25 1288.7 970.5 1290.35 978.85 1289.35 985.4
L 1286.05 1006.6 1265.85 999.3
Q 1264.4 998.85 1263.55 998.45 1276.1 1015.65 1287 1037.55 1296.9 1057.35 1303.5 1076.9
L 1311.5 1100.85 1286.3 1100.15
Q 1264.75 1099.65 1226.65 1082.7 1208.2 1074.5 1169.75 1054 1131.2 1033.45 1121.5 1028.6 1081.55 1008.55 1068.6 1006.95 1048.75 1045.45 1045 1087.9 1041.35 1129.05 1053 1172.25 1060.7 1201.3 1074.9 1229.15 1082 1243 1087.1 1250.3
L 1111.45 1285.15 1069.55 1277.9
Q 1032.95 1271.4 1004.2 1253.7 975.05 1235.75 955.3 1207.1 961 1233.55 970.8 1261.35 978.55 1283.9 986.9 1301.65
L 1009.55 1348.7 962.95 1325.1
Q 920.7 1303.6 889.05 1275.9 853.45 1244.8 833.2 1207.5 831.15 1203.8 829.45 1199.95 825.45 1235.6 828.6 1287.45 852.1 1301.2 899.9 1330.2 935.25 1351.55 951.25 1360.3 973.95 1372.7 989.5 1377.8 1006.45 1383.35 1021.6 1382.7 1036.65 1382 1054.5 1374.95 1070.45 1368.65 1095.15 1354.6 1108.7 1346.85 1150.35 1321.6 1194.55 1294.85 1227.15 1276 1259.95 1257.05 1306.9 1231.25 1349.65 1207.8 1363.8 1199.45 1388.35 1184.95 1401.65 1173.95 1416.4 1161.7 1424.15 1148.35 1431.85 1134.95 1435.1 1116 1437.95 1099.05 1438.25 1070.5 1438.4 1054 1437.4 1005.3 1436.25 951.7 1436.25 913.85 1436.25 876 1437.4 822.45 1438.4 773.75 1438.25 757.25 1437.95 728.75 1435.1 711.8 1431.85 692.9 1424.15 679.5 Z"/>
</g>

<g id="Eagle_0_Layer0_0_MEMBER_1_FILL">
<path fill="#FFFFFF" stroke="none" d="
M 1328.9 738.15
Q 1316.8 732.85 1305.2 730.4 1299.85 717.75 1286.05 711.65 1282.2 702.8 1274.9 693.3 1268.7 685.3 1261.25 678.25 1237 655.55 1197.2 639.15 1165.65 626.1 1125 617.25 1028.65 596.25 950.25 605 921.85 608.25 893.75 615.7 868 622.45 839.15 633.7
L 791.55 652.1 808.75 657.4
Q 766.45 671.4 733.7 690.7 709.85 704.7 692.8 720.35
L 664.15 746.75 716.65 752.45
Q 691.3 773.65 672 794.8 634.8 835.4 627.35 869.35
L 621.55 896.2 624.9 895.5
Q 611.95 914 603.25 935.65 597.8 949.4 593.95 965.65 588.25 989.1 585.75 1017.3 583.3 1045 584.5 1069.85
L 587.05 1118.9 616.45 1079.55
Q 618.8 1076.35 623.95 1069.85 623.85 1070.25 623.85 1070.95 617.35 1114.15 622.7 1159.4 627.8 1202.7 643.45 1245.5
L 643.55 1245.95 643.7 1246.3
Q 655.5 1274.05 663.65 1282.85
L 689.65 1310.85 694.15 1272.95
Q 695.7 1260.05 698.5 1243.7 701.85 1223.9 705.75 1206.25 717.65 1243.15 744.4 1276.5 768.3 1306.3 802.95 1332
L 835.85 1356.45 831.15 1315.8
Q 828.45 1293.3 827.55 1264.4 826.45 1227.25 829.45 1199.95 831.15 1203.8 833.2 1207.5 853.45 1244.8 889.05 1275.9 920.7 1303.6 962.95 1325.1
L 1009.55 1348.7 986.9 1301.65
Q 978.55 1283.9 970.8 1261.35 961 1233.55 955.3 1207.1 975.05 1235.75 1004.2 1253.7 1032.95 1271.4 1069.55 1277.9
L 1111.45 1285.15 1087.1 1250.3
Q 1082 1243 1074.9 1229.15 1060.7 1201.3 1053 1172.25 1041.35 1129.05 1045 1087.9 1048.75 1045.45 1068.6 1006.95 1081.55 1008.55 1121.5 1028.6 1131.2 1033.45 1169.75 1054 1208.2 1074.5 1226.65 1082.7 1264.75 1099.65 1286.3 1100.15
L 1311.5 1100.85 1303.5 1076.9
Q 1296.9 1057.35 1287 1037.55 1276.1 1015.65 1263.55 998.45 1264.4 998.85 1265.85 999.3
L 1286.05 1006.6 1289.35 985.4
Q 1290.35 978.85 1288.7 970.5 1287.25 963.25 1284.15 956.25 1271.7 928.45 1235.85 905.75 1230.15 902.05 1228.2 899.6 1230.75 896.35 1238.4 891.85 1248 886.35 1260.55 882.05 1275.3 882.15 1290.2 885.2 1307.85 888.8 1317.3 895.25 1324.6 900.2 1327.5 910.4 1330.15 919.5 1328.45 929
L 1320.1 973.3 1356.4 946.45
Q 1362.05 942.25 1368.25 935 1373.55 928.85 1378.15 921.85 1398.8 890.3 1405.15 846.7 1408.95 820.5 1396.55 796.35 1389.25 782.15 1375.75 768.9 1365.95 759.4 1353.7 751.4 1341.9 743.7 1328.9 738.15 Z"/>
</g>

<g id="Eagle_0_Layer0_0_MEMBER_2_FILL">
<path fill="#171412" stroke="none" d="
M 1349.85 770.25
Q 1333.55 758.45 1315 751.65 1298.15 745.5 1289.8 746.85 1290.85 742.75 1289.15 738.05 1285.75 728.65 1272.05 725.55 1271.4 721.75 1268.2 715.6 1261.8 703.3 1249.2 691.45 1208.85 653.55 1121.25 634.55 1027.65 614.2 952.25 622.6 922.2 625.95 893 634.1 871.75 640 845.55 650.15
L 872.55 658.5
Q 845.45 663.5 810.95 675.35 741.95 699.1 704.8 733.4
L 762.15 739.6
Q 736.1 757.65 708.4 783.35 652.95 834.75 644.65 873.1
L 678.75 865.7 672.5 870.2
Q 664.8 876.25 657.2 884.1 633 909.1 619.7 942.2 606.5 975.35 603.05 1025.5 601.35 1050.55 602.3 1069 610.45 1058.1 621.7 1045.1 644.25 1019.1 659.9 1008.65
L 657.9 1013
Q 655.4 1018.75 653 1025.65 645.3 1047.75 641.5 1073.2 629.2 1154.75 660 1239.45
L 666.05 1252.7
Q 672.9 1266.75 676.6 1270.75 679.95 1242.85 686.65 1211.1 700.05 1147.65 716.75 1128.35
L 715.9 1132.8
Q 715.05 1138.55 714.75 1145.25 713.9 1166.65 719.5 1189.2 737.5 1261.35 813.6 1317.85 809.55 1283.6 809.55 1244.3 809.6 1165.75 829.95 1140.55
L 830.35 1144.9
Q 831.05 1150.6 832.6 1157.05 837.5 1177.75 848.75 1198.65 884.8 1265.45 970.9 1309.25 955.9 1277.85 944.25 1235.9 921.3427734375 1153.1875 937.5 1100.6
L 937.9 1106.4
Q 938.6 1114.05 940.1 1122.25 944.8 1148.6 955.65 1171.8 970.75 1204.25 995.9 1225.65 1027.3 1252.45 1072.6 1260.35 1066.85 1252.1 1059.4 1237.55 1044.55 1208.5 1036.1 1177.2 1024.3 1133.3 1027.1 1091.2 1030.6 1038.6 1056.75 991.7 1065.6 984.8 1095.75 997.05 1115.5 1005.05 1160.25 1028.85 1210.65 1055.7 1230.45 1064.8 1267.9 1081.95 1286.7 1082.45 1281.2 1066 1271.1 1045.6 1251 1004.85 1228.2 985.3 1205.45 965.7 1236.4 972.2 1251.9 975.45 1271.9 982.6 1273.1 975.1 1268 963.55 1257.75 940.55 1226.3 920.65 1194.9 900.75 1223.15 880.55 1237.25 870.45 1257.65 864.35
L 1265 864.45
Q 1274.15 864.85 1283.05 866.05 1311.6 869.85 1327.35 880.6 1343 891.25 1346 912.75 1347.5 923.55 1345.85 932.15
L 1351.05 927.4
Q 1357.4 920.9 1363.2 912.15 1381.7 884.2 1387.6 844.15 1390.85 821.8 1379.15 801.45 1369.25 784.25 1349.85 770.25 Z"/>
</g>

<g id="Eagle_0_Layer0_0_MEMBER_3_FILL">
<path fill="#E58414" stroke="none" d="
M 1296.95 856.95
Q 1315.15 862.65 1331.45 865.35 1344.55 867.55 1349.2 875.6 1351.5 879.65 1351.2 883.25
L 1353.6 912.05
Q 1373.65 880.75 1376.65 856.95 1379.85 831.2 1364.85 804 1352.05 780.7 1314.45 768.95 1302.7 765.25 1289.9 763.2
L 1279.4 761.85
Q 1280.35 760.5 1280.25 758.45 1280.1 754.4 1274.95 751.1 1269.7 747.8 1259.75 755.1 1248.75 764.6 1244.7 767.8 1242.4 769.65 1241.95 770.9 1241.45 772.25 1240.6 772.9 1237.25 775.7 1210.8 788.35 1184.35 801.05 1183.3 819.6 1182.8 828.85 1187.55 835.55 1179.7 835.35 1163.5 839.2 1131.1 846.95 1089.3 867.4 1047.55 887.9 1031.9 927.35 1027 939.65 1025.25 952.4 1024.4 958.75 1024.55 962.65
L 1031.2 956.3
Q 1039.55 948.65 1048.15 942.05 1056.95 935.35 1063.2 937 1065.45 937.6 1068 939.45 1069.4 940.45 1072.1 942.55
L 1094 961.65
Q 1118.65 982.6 1132.5 991.7 1152.7 1005 1197.95 1028.1 1254.8 1057.15 1266.35 1063.6 1220.25 996.75 1137.1 957.1 1110.4 944.4 1105.25 914.9 1103.65 905.65 1104.45 895.9
L 1105.5 887.95
Q 1086.6 890.7 1068.7 905.6 1063.1 910.25 1058.25 915.55
L 1054.55 919.9
Q 1066.05 898.05 1085.45 883.6 1095.1 876.4 1102.5 873.55
L 1136.35 865.45
Q 1172.25 857.5 1182.45 858.2 1192.6 858.95 1212.25 852.45 1222.1 849.15 1229.9 845.75
L 1234.45 844.7
Q 1240.1 843.6 1245.4 843 1262.35 841.2 1269.6 845.75 1278 851.05 1296.95 856.95 Z"/>
</g>

<g id="Eagle_0_Layer0_0_MEMBER_4_FILL">
<path fill="#F0A500" stroke="none" d="
M 1320.95 841.6
L 1326.5 842.6
Q 1333.25 844.4 1339.35 848.6 1358.85 862 1364.15 893.9 1376.75 869.6 1377.15 848.9 1377.6 827.2 1364.85 804 1352.05 780.7 1314.45 768.95 1302.7 765.25 1289.9 763.2
L 1279.4 761.85
Q 1280.35 760.5 1280.25 758.45 1280.1 754.4 1274.95 751.1 1269.7 747.8 1259.75 755.1 1248.75 764.6 1244.7 767.8 1237.35 773.7 1232.85 776.55 1225.65 781.1 1210.8 788.35 1201.7 792.65 1195.2 798.15 1193.45 807.65 1194.1 814.35 1194.85 822.2 1198.95 825.5 1207.4 832.25 1223.15 828.2 1231.05 826.15 1237.2 822.75
L 1240.95 821.5
Q 1245.7 820.15 1250.75 819.9 1266.95 819.1 1280 829.15 1293.2 839.2 1308.4 841.4 1316 842.5 1320.95 841.6 Z"/>
</g>

<g id="Eagle_0_Layer0_0_MEMBER_5_FILL">
<path fill="#171412" stroke="none" d="
M 1281.2 791.3
Q 1284.6 790.5 1284.25 786.8 1284.25 783.1 1279.85 782.25 1275.6 781.4 1269.85 783.65 1263.65 786.05 1259.15 790.85 1253.95 796.45 1252.65 803.85 1258.3 792.35 1272.7 791.8 1280.5 791.45 1281.2 791.3 Z"/>
</g>

<g id="Eagle_0_Layer0_0_MEMBER_6_FILL">
<path fill="#CC0715" stroke="none" d="
M 1168.2 912.55
Q 1151.85 912.3 1135.25 916.85 1130 918.3 1125.4 920.05
L 1121.85 921.5
Q 1151.95 920.75 1167.8 925.55 1175.75 927.9 1177.65 930.45 1158.75 928.05 1141.45 934.2 1136 936.15 1131.4 938.7
L 1127.9 940.85
Q 1148.3 931.8 1201.05 946 1227.45 953.15 1249.75 962.05 1220.4 913.35 1168.2 912.55 Z"/>
</g>

<g id="Eagle_0_Layer0_0_MEMBER_7_FILL">
<path fill="#D5D5D2" stroke="none" d="
M 772.4 722.3
Q 780.75 721.65 788.25 721.75 812.2 722 818.55 728.95 801.5 736.15 774.45 755.05 720.35 792.9 670.2 851.65
L 675.15 849.85
Q 681.45 847.75 688.1 846.45 709.5 842.35 726.8 847.8
L 722.55 850.4
Q 717.15 853.9 711.35 858.3 692.8 872.35 677 890.05 626.45 946.65 623 1018.45
L 713.85 953.8
Q 710.2 961.25 693.55 985.6 676.4 1012.6 667 1038.65 637.5 1120.6 670.55 1222.1 671.4 1214.25 673.7 1202 678.3 1177.55 685.5 1155.5 708.55 1085 748.85 1065.4
L 746.55 1069.95
Q 743.75 1075.95 741.35 1083 733.65 1105.6 732.45 1130.65 728.55 1210.9 791.35 1285.8 789.35 1277.1 787.75 1263.15 784.55 1235.25 786.7 1208.95 789.7 1172.15 802.95 1143.85 819.55 1108.45 851.25 1088.5
L 850.75 1093.2
Q 850.2 1099.3 850.2 1106.2 850.15 1128.25 855.3 1150 871.65 1219.6 933.3 1260 929.85 1250.65 925.85 1235.8 917.9 1206.05 915.35 1178.3 911.7 1139.45 919.3 1110.25 928.85 1073.75 955.45 1054.4
L 955.1 1060.25
Q 954.8 1067.75 955 1076.05 955.6 1102.6 960.85 1127.3 977.65 1206.35 1034.7 1236.9 1029.8 1230.6 1023.85 1218.7 1011.95 1194.85 1006.6 1166.6 999.15 1127.1 1005.95 1084.45 1014.45 1031.1 1044.85 975.95 1038.3 977 1030.85 982.05 1016 992.2 1011.7 1012.15 1009.9 1007.95 1009.2 1000.75 1007.85 986.3 1013.3 971.35 1018.75 956.4 1016.05 963.7 1014.75 967.35 1012.3 974 1007.15 976.45 1001.65 982.15 990.75 993.5 989.3 1009.6 988.7 994.95 991.15 977.55 996.15 942.8 1011.7 929.25 1000.8 932 986.85 941.15 959 959.45 943.7 991.45 943.6 987.2 944.6 980.35 946.55 966.7 951.85 953.75 968.6275390625 913.011328125 1011.9 894.5 1004.0548828125 893.8564453125 992.5 895.5 969.25 898.85 950.35 910.5 951 908.15 953.6 904.35 958.75 896.8 968.45 889.55 999.45 866.45 1064 855.65 1048.9 854.95 1029.65 847.9 991.15 833.7 970.45 801.7
L 984.85 808
Q 1002.7 815.2 1020.2 819.7 1076.05 834 1106.85 815.6 1101.35 816.05 1093 815.55 1076.3 814.55 1061.9 809.8 1015.75 794.45 1010 746.85 1010.7 740.75 1008.45 735.65 1004 725.55 989.3 730.75 974.65 735.9 972.9 736.1
L 974.05 735.25
Q 973.9 731.95 974.6 727.2 975.95 717.75 980.05 710.5 993 687.25 1028.05 695.05 1063.1 702.75 1108.6 732.45 1131.4 747.25 1147.15 760.55
L 1153.6 766.25
Q 1161.4 772.45 1168.3 774.95 1190.2 782.9 1194.2 750.85 1188 734.75 1158.8 724.65 1149.65 721.5 1139.3 719.35
L 1130.8 717.8 1139.85 717.25
Q 1151.2 717.25 1162.8 720.15 1199.85 729.3 1225.2 763.55
L 1227.5 762.75
Q 1230.3 761.7 1232.65 760.15 1240.2 755.25 1240.8 747.6 1241.35 739.95 1241 733.5
L 1240.55 728.6 1243.65 734.05
Q 1246.6 740.25 1245.75 743.95 1251.9 739.7 1253.75 732.25 1257.45 717.35 1235.95 701.25 1220.25 689.45 1191.3 676.85 1155.15 661.15 1113.65 651.7 1000.25 625.85 888.15 654.65
L 930 667.6
Q 905.35 667.95 872.45 675 806.7 689.15 765.55 722.9
L 772.4 722.3 Z"/>
</g>

<g id="Eagle_0_Layer0_0_MEMBER_8_FILL">
<path fill="#FFFFFF" stroke="none" d="
M 968.5 674.25
Q 942.9 673.85 911.2 678.45 847.75 687.7 817.2 712.75
L 823.9 710.9
Q 832.2 708.75 840.1 707.5 865.35 703.35 877.15 709.1 852.25 724.25 824.95 745.4 770.3 787.7 758.15 817.65
L 775.1 810.5
Q 794.3 803.6 805.25 804.7 786.15 815.8 764.1 832.6 720.1 866.3 705.65 895.1 717.4 884.5 735.5 874.35 771.75 854.05 803.45 856.4 797.45 862.7 788.35 873.75 770.15 895.85 754.75 919.75 705.5 996.1 702.85 1061.05 720.85 1039.65 743.9 1015.3 790 966.7 815.4 952.25
L 804.65 972.75
Q 791.95 998.3 782.1 1023.6 750.55 1104.5 759.15 1152.3 776.45 1124.9 800.3 1093.8 848 1031.55 880.9 1013.1
L 877.45 1030.4
Q 873.65 1051.8 872 1072.1 866.65 1137.1 884.5 1167.05 885.35 1159 887.8 1146.5 892.65 1121.6 900.5 1099.55 925.6 1029.05 971.15 1014.1
L 973.6 1047.15
Q 976.65 1081.95 979.5 1090.55 985 1074.05 993.55 1056.3 1010.75 1020.7 1026.35 1014.2 1033.95 995.8 1044.85 975.95 1038.3 977 1030.85 982.05 1016 992.2 1011.7 1012.15 1009.9 1007.95 1009.2 1000.75 1007.85 986.3 1013.3 971.35 1018.75 956.4 1016.05 963.7 1014.75 967.35 1012.3 974 1007.15 976.45 1001.65 982.15 990.75 993.5 989.3 1009.6 988.7 994.95 991.15 977.55 996.15 942.8 1011.7 929.25 1000.8 932 986.85 941.15 959 959.45 943.7 991.45 943.6 987.2 944.6 980.35 946.55 966.7 951.85 953.75 968.6275390625 913.011328125 1011.9 894.5 1004.0548828125 893.8564453125 992.5 895.5 969.25 898.85 950.35 910.5 951 908.15 953.6 904.35 958.75 896.8 968.45 889.55 999.45 866.45 1064 855.65 1048.9 854.95 1029.65 847.9 991.15 833.7 970.45 801.7
L 984.85 808
Q 1002.7 815.2 1020.2 819.7 1076.05 834 1106.85 815.6 1101.35 816.05 1093 815.55 1076.3 814.55 1061.9 809.8 1015.75 794.45 1010 746.85 1010.7 740.75 1008.45 735.65 1004 725.55 989.3 730.75 974.65 735.9 972.9 736.1
L 974.05 735.25
Q 973.9 731.95 974.6 727.2 975.95 717.75 980.05 710.5 993 687.25 1028.05 695.05 1063.1 702.75 1108.6 732.45 1131.4 747.25 1147.15 760.55
L 1153.6 766.25
Q 1161.4 772.45 1168.3 774.95 1190.2 782.9 1194.2 750.85 1188 734.75 1158.8 724.65 1149.65 721.5 1139.3 719.35
L 1130.8 717.8 1139.85 717.25
Q 1151.2 717.25 1162.8 720.15 1199.85 729.3 1225.2 763.55
L 1227.5 762.75
Q 1230.3 761.7 1232.65 760.15 1240.2 755.25 1240.8 747.6 1241.35 739.95 1241 733.5
L 1240.55 728.6 1243.65 734.05
Q 1246.6 740.25 1245.75 743.95 1251.9 739.7 1253.75 732.25 1257.45 717.35 1235.95 701.25 1221.05 690.05 1193.85 678 1160.15 663.05 1121.15 653.5 1015.3 627.6 909.3 649.8
L 968.5 674.25 Z"/>
</g>

<g id="Eagle_0_Layer0_0_MEMBER_9_FILL">
<path fill="#D6D6D4" stroke="none" d="
M 1009.95 741.85
Q 1009.4 736.2 1006.75 732.95 1005.4 741.15 1005.2 747.85 1005 757.3 1007.25 762.35 1005.6 762.55 1003 761.3 997.7 758.85 992.7 751.8
L 992.6 757.7
Q 993.1 765.1 995.95 772.65 1005.1 796.7 1034.45 812.8
L 1045.75 817.95
Q 1059.75 823.45 1073.05 825.5 1092.75 823.95 1106.85 815.6 1101.35 816.05 1093 815.55 1076.3 814.55 1061.9 809.8 1015.75 794.45 1010 746.85 1010.25 744.7 1009.95 741.85 Z"/>
</g>

<g id="Eagle_0_Layer0_0_MEMBER_10_FILL">
<path fill="#D6D6D4" stroke="none" d="
M 943.5 695.05
Q 939.5 701.85 938.05 709.6 937.35 713.5 937.4 716
L 941.2 708.8
Q 946.2 701.15 952.4 698.95 951.5 699.95 950.2 701.85 947.65 705.6 945.7 709.85 939.35 723.5 941.4 737.2
L 947.25 727.85
Q 954.95 716.9 964.2 708.8 993.85 682.8 1028.05 695.05 1063.1 702.75 1108.6 732.45 1131.4 747.25 1147.15 760.55
L 1153.2 765.5
Q 1160.5 771 1167.05 773.5 1188.05 781.45 1193.25 756.65 1186.55 761.9 1177.25 760.95 1165 759.75 1149.3 747.85 1119.75 725.35 1114.7 721.7 1092.25 705.25 1074.05 694.55 1023.7 665 989.3 669.15 956.2 673.25 943.5 695.05 Z"/>
</g>

<g id="Eagle_0_Layer0_0_MEMBER_11_FILL">
<path fill="#F0A500" stroke="none" d="
M 1092.55 753.05
L 1085.8 742.75
Q 1075.85 745.65 1069.55 753.5 1063.15 761.45 1063.15 771.3 1063.15 783.75 1072.65 792.5 1082.15 801.2 1095.7 801.2 1109.15 801.2 1118.65 792.5 1128.15 783.75 1128.15 771.3
L 1128.15 771.2 1118.7 774.45
Q 1117.05 780.15 1111.85 783.8 1106.65 787.5 1100.05 787.5 1091.95 787.5 1086.25 782.3 1080.55 777.05 1080.55 769.6 1080.55 764.1 1083.95 759.55 1087.2 755.15 1092.55 753.05 Z"/>
</g>

<g id="Eagle_0_Layer0_0_MEMBER_12_FILL">
<path fill="#D5D5D2" stroke="none" d="
M 1042.7 733.3
Q 1039.2 731.35 1035.7 732.55 1028.7 735 1028.55 750.85 1028.4 766.65 1045.9 782 1054.65 789.7 1063.4 794.2 1057.75 788.55 1054.8 778.95 1048.85 759.7 1062.4 739.95
L 1042.7 733.3 Z"/>
</g>

<g id="Eagle_0_Layer0_0_MEMBER_13_FILL">
<path fill="#D6D6D4" stroke="none" d="
M 1153.5 815.65
Q 1159.7 804.85 1158.75 795.5 1134.6 818.4 1104.35 828.9 1063.5 843.15 1013.75 834
L 1020 837.25
Q 1028.25 841 1038.1 843.5 1069.6 851.6 1105.4 844.4 1141.1 837.2 1153.5 815.65 Z"/>
</g>

<g id="Eagle_0_Layer0_0_MEMBER_14_FILL">
<path fill="#FEFEFE" stroke="none" d="
M 1093.85 768.1
Q 1095.95 770.2 1098.95 770.2 1101.95 770.2 1104.1 768.1 1106.25 765.95 1106.25 762.95 1106.25 759.95 1104.1 757.85 1101.95 755.7 1098.95 755.7 1095.95 755.7 1093.85 757.85 1091.7 759.95 1091.7 762.95 1091.7 765.95 1093.85 768.1 Z"/>
</g>

<path id="Eagle_0_Layer0_0_MEMBER_0_1_STROKES" stroke="#1A1718" stroke-width="0.5" stroke-linejoin="miter" stroke-linecap="butt" stroke-miterlimit="10" fill="none" d="
M 132.16585998535157 62.677071380615246
Q 112.85315170288084 73.81788787841799 85.2509704589844 88.98585968017579 60.14738922119142 102.80164794921876 51.79912567138672 107.71066207885747 37.366036224365246 116.23529739379887 29.576283264160168 122.70226211547856 20.875276184082054 129.90410919189458 16.31900558471682 137.78204803466798 11.792130279541027 145.65998687744138 9.881436157226574 156.7714080810547 8.205904388427712 166.7364128112793 8.029532623291061 183.4917304992676 7.941346740722679 193.19217758178712 8.529252624511741 221.82319412231448 9.205344390869186 253.21736831665038 9.205344390869186 275.55779190063475 9.205344390869186 288.2271636962891 9.146553802490246 294.0768272399902 9.940226745605514 291.6664131164551 11.204224395751964 288.37414016723636 16.31900558471682 275.64597778320314 23.932386779785134 264.7697189331055
L 21.962902069091797 265.1812530517579 25.372756195068405 249.39598007202153
Q 29.752655029296875 229.4365753173828 51.62275390625001 205.56759643554688 62.969337463378906 193.13338699340818 77.87275161743162 180.6697822570801
L 47.00769271850584 177.31871871948243 63.8511962890625 161.79800338745122
Q 73.87499160766606 152.59727630615237 87.89654693603518 144.3665939331055 107.15046463012698 133.02001037597654 132.0188835144043 124.78932800292966
L 121.90690231323242 121.6734268188477 149.89122238159177 110.85595855712893
Q 166.85230712890626 104.24201736450198 181.99088363647462 100.2736526489258 198.51103897094725 95.89375381469728 215.20756607055665 93.98305969238282 261.2993873596192 88.83888320922853 317.9441192626953 101.18490676879884 341.84249343872074 106.38787384033208 360.3909240722657 114.06004562377927 383.7895782470703 123.70170211791992 398.0462959289551 137.04716567993165 402.4261947631837 141.19190216064453 406.0712112426758 145.89514923095703 410.362924194336 151.48025512695312 412.62636184692377 156.6832221984863 420.7394630432129 160.26944808959962 423.88475952148445 167.70645751953123 430.70446777343744 169.1468269348145 437.8181289672852 172.26272811889646 445.460905456543 175.5256057739258 452.398194885254 180.05248107910154 459.60004196167 184.75572814941404 465.36151962280275 190.34083404541013 473.2982490539551 198.1305870056152 477.5899620056152 206.47885055541997 484.8799949645997 220.6767776489258 482.6459526062012 236.07991180419924 478.91275024414057 261.7126083374023 466.7724937438965 280.26103897094725 464.06812667846674 284.3763801574707 460.9522254943848 287.99200134277345 457.3072090148925 292.25431900024415 453.9855407714844 294.7235237121583
L 432.6445571899414 310.5087966918945 437.55357131958016 284.4645660400391
Q 438.5530113220215 278.879460144043 436.9950607299805 273.52951660156253 435.2901336669922 267.53287658691414 430.998420715332 264.6227424621582 425.4427101135254 260.8307495117187 415.0661712646485 258.7142883300782 406.30637359619135 256.9211753845215 397.6347618103027 256.8623847961425 390.25654296875 259.39038009643554 384.61264648437503 262.6238624572754 380.1151664733887 265.26943893432616 378.61600646972664 267.1801330566406 379.76242294311527 268.62050247192377 383.1134864807129 270.79575424194337 404.18991241455086 284.14121780395516 411.50934066772464 300.485001373291 413.3318489074707 304.60034255981446 414.1843124389649 308.86266021728517 415.1543571472168 313.7716743469238 414.5664512634277 317.6224578857422
L 412.62636184692377 330.0860626220703 400.75066299438475 325.7943496704101
Q 399.89819946289066 325.52979202270507 399.39847946166987 325.29462966918953 406.77669830322264 335.40661087036136 413.18487243652345 348.28174972534174 419.0051406860352 359.9222862243652 422.885319519043 371.41584625244144
L 427.5885665893555 385.49619216918944 412.77333831787104 385.08465805053714
Q 400.1039665222168 384.7907051086426 377.70475234985355 374.82570037841805 366.8578887939454 370.00487213134767 344.25290756225587 357.9528015136719 321.5891357421876 345.8713356018067 315.8864486694336 343.0199920654297 292.3996086120605 331.2324790954589 284.7862274169922 330.29182968139656 273.1162956237793 352.92620620727547 270.9116485595703 377.8828109741211 268.7657920837402 402.07513809204096 275.6148956298828 427.4726722717285 280.1417709350587 444.5513381958007 288.4900344848633 460.9245170593262 292.66416625976564 469.0670135498047 295.66248626708983 473.3587265014648
L 309.9779945373536 493.8472465515137 285.34473800659174 489.584928894043
Q 263.8273826599122 485.7635406494141 246.92508850097664 475.35760650634774 229.78763198852533 464.804695892334 218.17649078369135 447.96119232177733 221.52755432128907 463.511302947998 227.28903198242182 479.855086517334 231.84530258178705 493.1123641967774 236.75431671142582 503.54769363403324
L 250.070384979248 531.2086654663087 222.6739707946778 517.3340866088868
Q 197.83494720458992 504.69411010742186 179.22772598266596 488.4091171264649 158.2982765197754 470.12524414062494 146.3931823730469 448.196354675293 145.18797531127927 446.0211029052734 144.1885353088379 443.7576652526856 141.83691177368166 464.7165100097656 143.68881530761723 495.1994300842286 157.5046035766602 503.2831359863282 185.60650482177738 520.3324066162111 206.38897781372071 532.8841972351074 215.79547195434571 538.0283737182617 229.1409355163575 545.3184066772462 238.28287200927736 548.3167266845703 248.24787673950203 551.5796043395997 257.15465087890624 551.1974655151369 266.0026344299317 550.7859313964843 276.4967544555664 546.6411949157716 285.87385330200203 542.9373878479005 300.39512863159183 534.6773101806641 308.3612533569337 530.1210395812989 332.84753341674804 515.276416015625 358.83297348022455 499.54993362426757 377.9987052917481 488.46790771484376 397.2820182800294 477.32709121704096 424.8841995239258 462.1591194152832 450.01717605590824 448.37272644042963 458.3360443115234 443.4637123107911 472.7691337585449 434.9390769958497 480.5882820129395 428.47211227417 489.25989379882816 421.270265197754 493.8161643981934 413.4217216491699 498.34303970336913 405.54378280639656 500.2537338256836 394.40296630859376 501.9292655944825 384.4379615783691 502.10563735961915 367.6532485961914 502.19382324218753 357.9528015136719 501.6059173583985 329.3217849731445 500.929825592041 297.81002960205086 500.929825592041 275.55779190063475 500.929825592041 253.30555419921876 501.6059173583985 221.82319412231448 502.19382324218753 193.19217758178712 502.10563735961915 183.4917304992676 501.9292655944825 166.7364128112793 500.2537338256836 156.7714080810547 498.34303970336913 145.65998687744138 493.8161643981934 137.78204803466798 489.25989379882816 129.90410919189458 480.5882820129395 122.70226211547856 472.7691337585449 116.23529739379887 458.3360443115234 107.71066207885747 449.98778076171874 102.80164794921876 424.8841995239258 88.98585968017579 397.34080886840815 73.84728317260743 377.9987052917481 62.677071380615246 358.7741828918458 51.565650177002 331.7893028259277 35.221866607666016 307.3324180603028 20.406638336181686 298.8371780395508 15.615205383300804 284.2571121215821 7.384523010253929 274.7624320983886 3.857087707519554 264.1801261901855 -0.052486419677734375 255.09698028564452 -0.052486419677734375 245.98443908691405 -0.052486419677734375 235.40213317871093 3.857087707519554 225.90745315551766 7.384523010253929 211.32738723754886 15.615205383300804 202.83214721679695 20.406638336181686 178.37526245117186 35.221866607666016 151.36098709106443 51.59504547119138 132.16585998535157 62.677071380615246 Z"/>
</defs>

<g transform="matrix( 1, 0, 0, 1, 0.05,0.3) ">
<g transform="matrix( 0.5879058837890625, 0, 0, 0.5879058837890625, -343.45,-261.7) ">
<use xlink:href="#Eagle_0_Layer0_0_MEMBER_0_FILL"/>

<use xlink:href="#Eagle_0_Layer0_0_MEMBER_0_1_STROKES" transform="matrix( 1.7009429931640625, 0, 0, 1.7009429931640625, 584.15,445.1) "/>
</g>

<g transform="matrix( 0.5879058837890625, 0, 0, 0.5879058837890625, -343.45,-261.7) ">
<use xlink:href="#Eagle_0_Layer0_0_MEMBER_1_FILL"/>
</g>

<g transform="matrix( 0.5879058837890625, 0, 0, 0.5879058837890625, -343.45,-261.7) ">
<use xlink:href="#Eagle_0_Layer0_0_MEMBER_2_FILL"/>
</g>

<g transform="matrix( 0.5879058837890625, 0, 0, 0.5879058837890625, -343.45,-261.7) ">
<use xlink:href="#Eagle_0_Layer0_0_MEMBER_3_FILL"/>
</g>

<g transform="matrix( 0.5879058837890625, 0, 0, 0.5879058837890625, -343.45,-261.7) ">
<use xlink:href="#Eagle_0_Layer0_0_MEMBER_4_FILL"/>
</g>

<g transform="matrix( 0.5879058837890625, 0, 0, 0.5879058837890625, -343.45,-261.7) ">
<use xlink:href="#Eagle_0_Layer0_0_MEMBER_5_FILL"/>
</g>

<g transform="matrix( 0.5879058837890625, 0, 0, 0.5879058837890625, -343.45,-261.7) ">
<use xlink:href="#Eagle_0_Layer0_0_MEMBER_6_FILL"/>
</g>

<g transform="matrix( 0.5879058837890625, 0, 0, 0.5879058837890625, -343.45,-261.7) ">
<use xlink:href="#Eagle_0_Layer0_0_MEMBER_7_FILL"/>
</g>

<g transform="matrix( 0.5879058837890625, 0, 0, 0.5879058837890625, -343.45,-261.7) ">
<use xlink:href="#Eagle_0_Layer0_0_MEMBER_8_FILL"/>
</g>

<g transform="matrix( 0.5879058837890625, 0, 0, 0.5879058837890625, -343.45,-261.7) ">
<use xlink:href="#Eagle_0_Layer0_0_MEMBER_9_FILL"/>
</g>

<g transform="matrix( 0.5879058837890625, 0, 0, 0.5879058837890625, -343.45,-261.7) ">
<use xlink:href="#Eagle_0_Layer0_0_MEMBER_10_FILL"/>
</g>

<g transform="matrix( 0.5879058837890625, 0, 0, 0.5879058837890625, -343.45,-261.7) ">
<use xlink:href="#Eagle_0_Layer0_0_MEMBER_11_FILL"/>
</g>

<g transform="matrix( 0.5879058837890625, 0, 0, 0.5879058837890625, -343.45,-261.7) ">
<use xlink:href="#Eagle_0_Layer0_0_MEMBER_12_FILL"/>
</g>

<g transform="matrix( 0.5879058837890625, 0, 0, 0.5879058837890625, -343.45,-261.7) ">
<use xlink:href="#Eagle_0_Layer0_0_MEMBER_13_FILL"/>
</g>

<g transform="matrix( 0.5879058837890625, 0, 0, 0.5879058837890625, -343.45,-261.7) ">
<use xlink:href="#Eagle_0_Layer0_0_MEMBER_14_FILL"/>
</g>
</g>
</svg>
