
<svg xmlns="http://www.w3.org/2000/svg" version="1.1" xmlns:xlink="http://www.w3.org/1999/xlink" preserveAspectRatio="none" x="0px" y="0px" width="600px" height="460px" viewBox="0 0 600 460">
<defs>
<g id="Froggy_0_Layer0_0_MEMBER_0_MEMBER_0_FILL">
<path fill="#5AB12F" stroke="none" d="
M 679.5 395.15
Q 670.55 379.65 656.65 382.3 648.7 383.85 644.15 390.55 639.6 397.25 641.15 405.2 642.95 414.6 657.45 422.2 661.45 424.3 669.8 428.25 677 431.95 680.9 435.25 692.75 449.55 669.3 481.45 649.4 508.55 616.3 534 621.2 501.65 615.2 473.2 608.15 440.05 587.6 421.1 592.3 405.05 591.2 388.55 590.05 371.6 583 358.75 575.45 344.85 562.4 338.6 548.05 331.75 528.75 335.2 511.85 338.25 500.5 354.95 489.5 371.1 490.85 388.8 480.9 374.1 463.85 368.1 448.05 362.55 430.25 365.7 412.7 368.75 399.2 379.2 384.95 390.3 379.85 406.35 373.75 425.65 380 442.25 386.2 458.85 403.35 469.45 392.2 490.8 398.8 513.05 402.9 526.8 417 546.7 399.1 537.1 380.4 524.1 360 510 345.05 496.15 308.1 462 319.85 445.55 323.85 441.55 329.6 437.9 332.6 435.95 339.25 432.3 348.15 427.3 351.05 424.75 356.5 419.85 357.35 412.7 358.3 404.65 353.3 398.3 348.3 391.95 340.25 390.95 331 389.85 324.95 395.9 320.25 400.55 316.85 410.3 316.8 410.45 313.2 420.9 310.75 428.05 308.85 432.85 305.25 442.15 300.6 437.85 297.15 434.65 294.85 426.95 292.2 418.05 291.7 409.55 291.3 402.6 292.3 394.35 293.15 388.05 293.2 384.8 293.4 379.05 292 375.65 289.7 369.95 284.75 366.7 280.1 363.6 274.4 363.45 268.65 363.3 263.85 366.1 258.7 369.15 256.1 374.8 253.75 379.9 254.4 385.15 255 389.7 257.95 394.85 260.55 399.4 268.95 412.35 276.95 425.15 280.7 433.85 286.7 447.7 284.75 451.65 282.4 456.45 268.65 447.85 259.3 442.05 251.1 435.85 242 429 236.95 423.65 230.6 416.95 223.6 415.4 215.5 413.65 207.9 419.3 201.4 424.15 200.2 432.2 199.05 440.2 203.9 446.7 208.2 452.45 216 454 219.95 454.75 230.45 454.6 241.35 454.45 247.25 455.5 257.4 457.35 265.15 463.35 275.2 471.15 274.8 475.3 274.45 478.9 265.55 481.35 259.45 483.05 247.3 482.65 235.65 481.9 233.85 482 213.95 483.25 211.35 498.8 209.95 506.8 214.65 513.4 219.3 520 227.3 521.35 234 522.5 239 519.75 239.55 519.4 248.2 512.7 257.1 505.75 273.3 497.15 283.7 491.6 291.15 492.7 298.55 493.7 306.05 501.7 328.7 525.7 357.5 567.3 388.35 611.8 398.25 637.1 372.4 616.8 356.55 608.2 326.15 591.6 314.7 603.6 298 621.1 317.85 665.35 325.1 681.45 336.4 699.15 345.3 713.15 353.5 723.3 315.25 735.8 285.55 753.95 255.65 772.2 237.2 794.4 285.45 767.1 353.7 751.75 424.3 735.9 503.3 735.9 570.2 735.9 640.25 750.05 719.35 766.05 769.4 794.4 750.1 771.1 718.25 752.25 686.55 733.45 645.8 721 668.55 691.8 680 667.3 698.8 626.95 681.9 609.05 670.7 597.15 645.5 609.1 630.2 616.35 609.75 632.7 612.15 625.5 613.8 619.85 625.85 590.5 649.75 553 676.2 511.45 699.15 489.5 712.2 477 727.8 481.1 737.15 483.55 757.2 497.05 758 497.6 761.25 500 763.8 501.95 765.15 502.65 771.65 506 778.7 504.2 786.6 502.25 790.75 495.35 794.95 488.4 793 480.55 791.75 475.5 788.1 471.65 784.4 467.8 779.4 466.4 775.65 465.35 769.35 465.4 762.65 465.9 757.3 466.2 746.85 466.8 740.55 466.15 726.6 464.6 730.2 456.7 733 450.35 743.2 444.35 749.4 440.75 757.35 439.25 762.15 438.3 770.75 437.85 781.15 437.25 785.15 436.2 792.75 434.1 796.65 428.05 801.15 421 799.7 413.55 798.2 405.8 790.7 401 783 396.05 774.4 397.2 765.75 398.35 760.95 405.15 755.6 412.7 748.05 420.25 740.45 427.85 732.15 433.9 724.55 439.5 723.75 439.9 718.05 442.75 716.55 437.55 715.05 432.45 719.1 420.75 720.85 415.65 726.05 406.1 733.35 392.65 734.8 389.75 744.65 369.6 739.4 360.1 736.45 354.75 731.1 352.1 726.1 349.6 720.4 350.15 714.7 350.65 710.3 354 705.5 357.65 703.6 363.55 702.6 366.7 703.05 372.85 703.25 375 704.55 385.5 706.9 404.3 704.5 414.95 702.75 422.8 699.55 426.2 695.25 430.85 690.95 421.85 689.95 419.75 685.8 409.05 682.35 400.1 679.5 395.15
M 513.9 395
Q 510.4 381.55 516.4 369.8 522.45 358.05 534.5 354.9 546.6 351.7 557.6 359 568.65 366.25 572.15 379.7 575.7 393.15 569.65 404.9 563.6 416.65 551.55 419.85 539.45 423 528.45 415.75 517.45 408.45 513.9 395
M 530.4 467.55
Q 546.25 457.2 552.9 455.2 564.25 451.7 574.7 458.9 563.45 470.2 564 489.15 564.35 502.45 571.25 523.15 573.05 528.65 576.6 538.65 579.5 547 580.45 551.6 583.1 563.8 575.65 565 564 568.05 545.85 562.55 528.45 557.3 510.5 546 491.95 534.3 479.05 519.9 464.9 504.2 461 489.05 482.45 490.45 501.65 483.1 513.45 478.6 530.4 467.55
M 505.5 578.05
Q 519.3 577.55 532.55 582.9 545.75 588.2 556.35 598.45 579.6 620.95 582.2 656.35 569.1 668.35 557.2 680.45 545.65 692.2 537.45 701.85 519.85 700.75 503.3 700.75 485.85 700.75 468.2 701.9 452.6 683.95 426.1 660.35 426.75 641.95 433.9 625.95 440.65 610.95 452.25 599.7 463.4 588.9 477.35 583.2 491.3 577.55 505.5 578.05
M 460.75 398.8
Q 472 407.5 473.45 421.6 474.95 435.75 465.8 447 456.65 458.25 442.2 460.1 427.8 461.95 416.55 453.25 405.3 444.55 403.85 430.4 402.35 416.3 411.5 405.05 420.65 393.75 435.1 391.95 449.5 390.1 460.75 398.8 Z"/>
</g>

<g id="Froggy_0_Layer0_0_MEMBER_0_MEMBER_1_FILL">
<path fill="#FFFFFF" stroke="none" d="
M 552.9 455.2
Q 546.25 457.2 530.4 467.55 513.45 478.6 501.65 483.1 482.45 490.45 461 489.05 464.9 504.2 479.05 519.9 491.95 534.3 510.5 546 528.45 557.3 545.85 562.55 564 568.05 575.65 565 583.1 563.8 580.45 551.6 579.45 547 576.6 538.65 573.05 528.65 571.25 523.15 564.35 502.45 564 489.15 563.45 470.2 574.7 458.9 564.25 451.7 552.9 455.2 Z"/>
</g>

<g id="Froggy_0_Layer0_0_MEMBER_0_MEMBER_2_FILL">
<path fill="#1A1818" stroke="none" d="
M 472.75 432.85
Q 472.6 431.3 472.25 430.05 470.4 422.9 463.95 419.15 457.55 415.45 450.4 417.3 446.15 418.4 442.9 421.4 445.35 423.2 446.1 426.15 447 429.6 445.25 432.65 443.45 435.7 440 436.6 438.55 437 437.2 436.9
L 437.65 439.15
Q 439.55 446.3 445.95 450.05 452.35 453.8 459.5 451.9 460.45 451.65 461.9 451.1 470.25 443.55 472.75 432.85 Z"/>
</g>

<g id="Froggy_0_Layer0_0_MEMBER_0_MEMBER_3_FILL">
<path fill="#1A1818" stroke="none" d="
M 566.9 378.8
Q 563.15 376.95 559 376.95 552.3 376.95 547.3 381.3 550.85 383.95 550.85 388.3 550.85 391.85 548.3 394.4 545.75 396.95 542.2 396.95 541.6 396.95 541.3 396.9 542.1 403.6 547.1 408.05 552.2 412.6 559 412.6 562.05 412.6 565.1 411.55 569.9 406.2 572 398.95 574.15 391.55 573 383.7 570.45 380.55 566.9 378.8 Z"/>
</g>

<g id="Froggy_0_Layer0_0_MEMBER_0_MEMBER_4_FILL">
<path fill="#FFFFFF" stroke="none" d="
M 532.55 582.9
Q 519.3 577.55 505.5 578.05 491.3 577.55 477.35 583.2 463.4 588.9 452.25 599.7 440.65 610.95 433.9 625.95 426.75 641.95 426.1 660.35 452.6 683.95 468.2 701.9 485.85 700.75 503.3 700.75 519.85 700.75 537.45 701.85 545.65 692.2 557.2 680.45 569.1 668.35 582.2 656.35 579.6 620.95 556.35 598.45 545.75 588.2 532.55 582.9 Z"/>
</g>

<g id="Froggy_0_Layer0_0_MEMBER_0_MEMBER_5_FILL">
<path fill="#FFFFFF" stroke="none" d="
M 473.45 421.6
Q 472 407.5 460.75 398.8 449.5 390.1 435.1 391.95 420.65 393.75 411.5 405.05 402.35 416.3 403.85 430.4 405.3 444.55 416.55 453.25 427.8 461.95 442.2 460.1 453.4 458.7 461.9 451.1 460.45 451.65 459.5 451.9 452.35 453.8 445.95 450.05 439.55 446.3 437.65 439.15
L 437.2 436.9
Q 438.55 437 440 436.6 443.45 435.7 445.25 432.65 447 429.6 446.1 426.15 445.35 423.2 442.9 421.4 446.15 418.4 450.4 417.3 457.55 415.45 463.95 419.15 470.4 422.9 472.25 430.05 472.6 431.3 472.75 432.85 474.05 427.4 473.45 421.6 Z"/>
</g>

<g id="Froggy_0_Layer0_0_MEMBER_1_FILL">
<path fill="#FFFFFF" stroke="none" d="
M 516.4 369.8
Q 510.4 381.55 513.9 395 517.45 408.45 528.45 415.75 539.45 423 551.55 419.85 559.6 417.65 565.1 411.55 562.05 412.6 559 412.6 552.2 412.6 547.1 408.05 542.1 403.6 541.3 396.9
L 542.2 396.95
Q 545.75 396.95 548.3 394.4 550.85 391.85 550.85 388.3 550.85 383.95 547.3 381.3 552.3 376.95 559 376.95 563.15 376.95 566.9 378.8 570.45 380.55 573 383.7 572.75 381.95 572.15 379.7 568.65 366.25 557.6 359 546.6 351.7 534.5 354.9 522.45 358.05 516.4 369.8 Z"/>
</g>
</defs>

<g transform="matrix( 1, 0, 0, 1, 0,0) ">
<g transform="matrix( 1, 0, 0, 1, -200,-334.05) ">
<use xlink:href="#Froggy_0_Layer0_0_MEMBER_0_MEMBER_0_FILL"/>
</g>

<g transform="matrix( 1, 0, 0, 1, -200,-334.05) ">
<use xlink:href="#Froggy_0_Layer0_0_MEMBER_0_MEMBER_1_FILL"/>
</g>

<g transform="matrix( 1, 0, 0, 1, -200,-334.05) ">
<use xlink:href="#Froggy_0_Layer0_0_MEMBER_0_MEMBER_2_FILL"/>
</g>

<g transform="matrix( 1, 0, 0, 1, -200,-334.05) ">
<use xlink:href="#Froggy_0_Layer0_0_MEMBER_0_MEMBER_3_FILL"/>
</g>

<g transform="matrix( 1, 0, 0, 1, -200,-334.05) ">
<use xlink:href="#Froggy_0_Layer0_0_MEMBER_0_MEMBER_4_FILL"/>
</g>

<g transform="matrix( 1, 0, 0, 1, -200,-334.05) ">
<use xlink:href="#Froggy_0_Layer0_0_MEMBER_0_MEMBER_5_FILL"/>
</g>

<g transform="matrix( 1, 0, 0, 1, -200,-334.05) ">
<use xlink:href="#Froggy_0_Layer0_0_MEMBER_1_FILL"/>
</g>
</g>
</svg>
