
<svg xmlns="http://www.w3.org/2000/svg" version="1.1" xmlns:xlink="http://www.w3.org/1999/xlink" preserveAspectRatio="none" x="0px" y="0px" width="410px" height="230px" viewBox="0 0 410 230">
<defs>
<g id="Handshakes_0_Layer0_0_FILL">
<path fill="#B8DCD7" stroke="none" d="
M 222.8 306.75
Q 222.8 302.35 219.7 299.25 216.65 296.2 212.25 296.2 207.9 296.2 204.8 299.25
L 183.55 320.6
Q 180.5 323.7 180.5 328.1 180.5 332.5 183.55 335.55 186.65 338.65 191 338.65 195.4 338.65 198.45 335.55
L 219.7 314.2
Q 222.8 311.15 222.8 306.75 Z"/>
</g>

<g id="Handshakes_0_Layer0_1_FILL">
<path fill="#B8DCD7" stroke="none" d="
M 199.8 289.3
Q 199.8 284.95 196.7 281.85 193.65 278.8 189.25 278.8 184.9 278.8 181.8 281.85
L 164.8 298.85
Q 161.75 301.95 161.75 306.35 161.75 310.75 164.8 313.8 167.9 316.9 172.3 316.9 176.7 316.9 179.75 313.8
L 196.7 296.8
Q 199.8 293.7 199.8 289.3 Z"/>
</g>

<g id="Handshakes_0_Layer0_2_FILL">
<path fill="#30A0A8" stroke="none" d="
M 111.3 179.8
Q 115.25 166.95 115.15 159.65 115.05 154.1 113.1 153.4
L 90.25 145.15 53.1 248.45 75.95 256.75
Q 76.4 256.9 76.8 256.9 78.2 256.9 80.4 254.8 84.45 250.9 88.95 241.35 93.75 231.2 100.35 212.75 106.2 196.5 111.3 179.8 Z"/>
</g>

<g id="Handshakes_0_Layer0_3_FILL">
<path fill="#B8DCD7" stroke="none" d="
M 148.2 290
Q 151.3 293.1 155.7 293.1 160.1 293.1 163.15 290
L 171.65 281.45
Q 174.75 278.4 174.75 274 174.75 269.6 171.65 266.5 168.55 263.45 164.2 263.45 159.85 263.45 156.75 266.5
L 148.2 275.05
Q 145.15 278.15 145.15 282.55 145.15 286.95 148.2 290 Z"/>
</g>

<g id="Handshakes_0_Layer0_4_FILL">
<path fill="#30A0A8" stroke="none" d="
M 237.5 347.85
L 237.55 347.85
Q 240.1 349.75 243.2 351.9 248.6 355.55 253.75 357.6 258.95 359.65 262.65 359.65 265.75 359.65 266.95 358.2 268.35 356.5 267.9 352.25
L 243.35 329.2
Q 243.95 331.4 243.95 333.8 243.95 337.5 242.55 340.85 241.2 344.2 238.6 346.8
L 237.5 347.85 Z"/>
</g>

<g id="Handshakes_0_Layer0_5_FILL">
<path fill="#B8DCD7" stroke="none" d="
M 360.4 173.25
Q 353.45 176.15 345.5 177.3 334.25 178.85 322.8 176.5 314.85 174.9 301.1 170.6 285.95 166 278.9 164.75 267 162.7 258.05 165.15
L 254.2 166.2
Q 235.65 171.25 228.15 174.15 215.45 179 212.7 184.25 208.4 192.55 195.05 236.35 198 238.85 201.15 240.15 205.9 242.05 210.45 240.95 221.6 238.2 227.75 224.8 232.9 213.45 232.3 201.05 232.25 199.45 233.3 198.25 234.4 197.05 236 196.95 237.6 196.9 238.8 197.95 240 199.05 240.1 200.65 240.2 202.55 240.1 204.7 262.35 218.35 276.35 221.9 292.9 226.1 306.7 219.05 308.1 218.3 309.65 218.8 311.2 219.3 311.95 220.75 312.65 222.2 312.15 223.7 311.65 225.25 310.25 226 300.7849609375 230.8234375 290.65 231.25 304.8 245 328.35 268.85
L 343.3 284.05 344.7 282.7
Q 354.2 273.5 361.85 268.25 375.75 258.6 389.65 256.05 368.5 210.4 360.4 173.25 Z"/>
</g>

<g id="Handshakes_0_Layer0_6_FILL">
<path fill="#B8DCD7" stroke="none" d="
M 384.8 159.65
Q 384.8 166.95 388.65 179.85 393.6 195.95 399.5 212.45 406.2 231.2 411 241.35 415.5 250.9 419.55 254.8 421.75 256.9 423.15 256.9 423.6 256.9 424 256.7
L 446.85 248.45 409.7 145.15 386.85 153.4
Q 384.9 154.1 384.8 159.65 Z"/>
</g>

<g id="Handshakes_0_Layer0_7_FILL">
<path fill="#30A0A8" stroke="none" d="
M 344.7 310
Q 346.6 305.4 344.2 299.4 341.8 293.45 335.55 287.15
L 322.85 274.3
Q 292.55 243.8 278.45 230.25 269.8 228.6 259.7 224.1 250.7 220.1 239.25 213.25 237.1 225.85 231.05 234.8 223.8 245.65 212.35 248.5 203.55 250.65 194.95 245.75 192.2 244.15 189.75 242.05 187.8 240.15 187.7 240.05 186.3 238.4 186.95 236.35 190.6 224.05 194.6 211.65 202.45 187.1 205.8 180.65 207 178.4 208.95 176.45 201.6 174.35 193.95 174.35 186.65 174.35 177.2 176.25 170.2 177.65 163.65 177.65 150.7 177.65 139.45 172.95 129.6 214.6 110.35 255.8 126.15 258.7 141.75 270.6 142.5 269.7 142.7 269.55
L 151.2 261
Q 156.55 255.65 164.2 255.65 171.85 255.65 177.15 261.05 181.85 265.65 182.4 272.3 185.7 271 189.3 271 196.9 271 202.25 276.35 207.45 281.55 207.55 289 209.9 288.4 212.3 288.4 219.95 288.4 225.25 293.8 230.5 299.05 230.6 306.7
L 230.55 307.05
Q 231.55 307.3 232.3 307.95
L 278.55 351.65
Q 284 355.25 289 355.25 291.65 355.25 293.8 354.2 295.95 353.1 297.15 351.2 299.5 347.55 297.5 342.7
L 249.05 294.1
Q 247.95 292.95 247.95 291.35 247.95 289.75 249.05 288.6 250.2 287.45 251.8 287.45 253.45 287.45 254.55 288.6
L 300.4 334.6 300.7 334.85 300.8 334.9 303.4 337.4
Q 305.55 338.4 308.4 338.4 312 338.4 315.35 336.9 319.1 335.25 320.95 332.25 323.95 327.4 320.5 320.25
L 277.85 277.45
Q 276.7 276.35 276.7 274.7 276.7 273.1 277.85 271.95 278.95 270.8 280.6 270.8 282.2 270.8 283.35 271.95
L 326.1 314.8
Q 329.7 316.8 333.55 316.8 337.35 316.8 340.35 314.95 343.4 313.1 344.7 310 Z"/>
</g>

<g id="Handshakes_0_Layer0_8_FILL">
<path fill="#B8DCD7" stroke="none" d="
M 225.65 323.25
Q 221.3 323.25 218.2 326.3
L 211.85 332.65
Q 208.8 335.75 208.8 340.15 208.8 344.55 211.85 347.6 214.95 350.7 219.3 350.7 223.7 350.7 226.75 347.6
L 233.1 341.25
Q 236.2 338.2 236.2 333.8 236.2 329.4 233.1 326.3 230.05 323.25 225.65 323.25 Z"/>
</g>

<g id="Handshakes_0_Layer0_9_MEMBER_0_FILL">
<path fill="#092833" stroke="none" d="
M 384.25 146.1
Q 371.75 150.65 381.3 182.05 386.05 197.7 391.85 214.05 398.85 233.7 404.05 244.65 413.45 264.6 423.15 264.6 424.9 264.6 426.6 264
L 452.3 254.7
Q 454.15 254.05 454.95 252.25 455.8 250.5 455.15 248.65
L 415.95 139.7
Q 415.45 138.3 414.2 137.4 412.95 136.55 411.5 136.55 410.75 136.55 409.9 136.85
L 384.25 146.1
M 384.8 159.65
Q 384.9 154.1 386.85 153.4
L 409.7 145.15 446.85 248.45 424 256.7
Q 423.6 256.9 423.15 256.9 421.75 256.9 419.55 254.8 415.5 250.9 411 241.35 406.2 231.2 399.5 212.45 393.6 195.95 388.65 179.85 384.8 166.95 384.8 159.65 Z"/>
</g>

<g id="Handshakes_0_Layer0_9_MEMBER_1_FILL">
<path fill="#092833" stroke="none" d="
M 85.8 137.4
Q 84.5 138.3 84 139.7
L 44.8 248.65
Q 44.15 250.5 45 252.25 45.85 254 47.65 254.7
L 73.35 264
Q 75.1 264.6 76.8 264.6 86.5 264.6 95.9 244.65 101.1 233.75 108.1 214.05 113.85 197.9 118.65 182.05 128.3 150.7 115.7 146.1
L 90.05 136.85
Q 89.3 136.55 88.45 136.55 87 136.55 85.8 137.4
M 115.15 159.65
Q 115.25 166.95 111.3 179.8 106.2 196.5 100.35 212.75 93.75 231.2 88.95 241.35 84.45 250.9 80.4 254.8 78.2 256.9 76.8 256.9 76.4 256.9 75.95 256.75
L 53.1 248.45 90.25 145.15 113.1 153.4
Q 115.05 154.1 115.15 159.65 Z"/>
</g>

<g id="Handshakes_0_Layer0_9_MEMBER_2_FILL">
<path fill="#092833" stroke="none" d="
M 350.75 168.25
Q 337.75 171.65 324.35 168.9 317.2 167.45 303.4 163.2 287.7 158.35 279.7 157 266.4 154.8 256 157.65
L 252.15 158.7
Q 238.7 162.35 232.75 164.25 222.7 167.5 216.65 170.85 205.9 166.6 193.95 166.6 185.6 166.6 175.65 168.6 169.75 169.85 163.65 169.85 154.3 169.85 145.65 166.95 138.85 164.05 138.8 164 137.05 162.95 135.25 163.75 133.4 164.55 132.95 166.5 122.75 212.1 101 257.25 100.1 259.15 101.15 260.9 102.2 262.7 104.2 262.85 120.75 264.15 138.05 277.55 136.7 282.3 137.9 287.05 139.1 291.9 142.7 295.5 147.7 300.5 154.8 300.8 153.3 305.65 154.45 310.55 155.6 315.6 159.3 319.3 161.9 321.9 165.25 323.3 168.6 324.7 172.3 324.7
L 173 324.65
Q 172.2 329.05 173.45 333.35 174.8 337.8 178.05 341.05 183.4 346.4 191 346.4 196.6 346.4 201.3 343.25 202.25 349 206.35 353.1 211.75 358.5 219.35 358.5 226.6 358.5 231.95 353.4
L 232 353.4
Q 236.1 356.5 238.85 358.35 245.3 362.65 251.5 365.05 257.75 367.4 262.65 367.4 269.35 367.4 272.9 363.2 274.55 361.25 275.2 358.75 282.1 363 289 363 293.65 363 297.55 361 301.45 358.95 303.75 355.35 306.4 351.2 306.15 346.05 306.9 346.15 308.4 346.15 314.4 346.15 319.6 343.5 324.8 340.8 327.55 336.35 330.9 330.95 329.9 324.3 331.7 324.6 333.55 324.6 339.7 324.6 344.7 321.45 349.7 318.3 351.85 313 354 307.95 353 302.1 352 296.3 348.1 290.25
L 348.3 290 350.1 288.3
Q 359.8 278.9 367.6 273.75 381.9 264.25 395.75 263.1 397.75 262.95 398.8 261.2 399.85 259.45 398.95 257.55 375.05 207 367 166.85 366.6 164.85 364.75 164.05 362.85 163.25 361.2 164.25 357.3 166.55 350.75 168.25
M 345.5 177.3
Q 353.45 176.15 360.4 173.25 368.5 210.4 389.65 256.05 375.75 258.6 361.85 268.25 354.2 273.5 344.7 282.7
L 343.3 284.05 328.35 268.85
Q 304.8 245 290.65 231.25 300.7849609375 230.8234375 310.25 226 311.65 225.25 312.15 223.7 312.65 222.2 311.95 220.75 311.2 219.3 309.65 218.8 308.1 218.3 306.7 219.05 292.9 226.1 276.35 221.9 262.35 218.35 240.1 204.7 240.2 202.55 240.1 200.65 240 199.05 238.8 197.95 237.6 196.9 236 196.95 234.4 197.05 233.3 198.25 232.25 199.45 232.3 201.05 232.9 213.45 227.75 224.8 221.6 238.2 210.45 240.95 205.9 242.05 201.15 240.15 198 238.85 195.05 236.35 208.4 192.55 212.7 184.25 215.45 179 228.15 174.15 235.65 171.25 254.2 166.2
L 258.05 165.15
Q 267 162.7 278.9 164.75 285.95 166 301.1 170.6 314.85 174.9 322.8 176.5 334.25 178.85 345.5 177.3
M 340.35 314.95
Q 337.35 316.8 333.55 316.8 329.7 316.8 326.1 314.8
L 283.35 271.95
Q 282.2 270.8 280.6 270.8 278.95 270.8 277.85 271.95 276.7 273.1 276.7 274.7 276.7 276.35 277.85 277.45
L 320.5 320.25
Q 323.95 327.4 320.95 332.25 319.1 335.25 315.35 336.9 312 338.4 308.4 338.4 305.55 338.4 303.4 337.4
L 300.8 334.9 300.7 334.85 300.4 334.6 254.55 288.6
Q 253.45 287.45 251.8 287.45 250.2 287.45 249.05 288.6 247.95 289.75 247.95 291.35 247.95 292.95 249.05 294.1
L 297.5 342.7
Q 299.5 347.55 297.15 351.2 295.95 353.1 293.8 354.2 291.65 355.25 289 355.25 284 355.25 278.55 351.65
L 232.3 307.95
Q 231.55 307.3 230.55 307.05
L 230.6 306.7
Q 230.5 299.05 225.25 293.8 219.95 288.4 212.3 288.4 209.9 288.4 207.55 289 207.45 281.55 202.25 276.35 196.9 271 189.3 271 185.7 271 182.4 272.3 181.85 265.65 177.15 261.05 171.85 255.65 164.2 255.65 156.55 255.65 151.2 261
L 142.7 269.55
Q 142.5 269.7 141.75 270.6 126.15 258.7 110.35 255.8 129.6 214.6 139.45 172.95 150.7 177.65 163.65 177.65 170.2 177.65 177.2 176.25 186.65 174.35 193.95 174.35 201.6 174.35 208.95 176.45 207 178.4 205.8 180.65 202.45 187.1 194.6 211.65 190.6 224.05 186.95 236.35 186.3 238.4 187.7 240.05 187.8 240.15 189.75 242.05 192.2 244.15 194.95 245.75 203.55 250.65 212.35 248.5 223.8 245.65 231.05 234.8 237.1 225.85 239.25 213.25 250.7 220.1 259.7 224.1 269.8 228.6 278.45 230.25 292.55 243.8 322.85 274.3
L 335.55 287.15
Q 341.8 293.45 344.2 299.4 346.6 305.4 344.7 310 343.4 313.1 340.35 314.95
M 155.7 293.1
Q 151.3 293.1 148.2 290 145.15 286.95 145.15 282.55 145.15 278.15 148.2 275.05
L 156.75 266.5
Q 159.85 263.45 164.2 263.45 168.55 263.45 171.65 266.5 174.75 269.6 174.75 274 174.75 278.4 171.65 281.45
L 163.15 290
Q 160.1 293.1 155.7 293.1
M 199.8 289.3
Q 199.8 293.7 196.7 296.8
L 179.75 313.8
Q 176.7 316.9 172.3 316.9 167.9 316.9 164.8 313.8 161.75 310.75 161.75 306.35 161.75 301.95 164.8 298.85
L 181.8 281.85
Q 184.9 278.8 189.25 278.8 193.65 278.8 196.7 281.85 199.8 284.95 199.8 289.3
M 228.25 315.65
L 228.55 315.15 229.25 315.85 228.25 315.65
M 208.8 340.15
Q 208.8 335.75 211.85 332.65
L 218.2 326.3
Q 221.3 323.25 225.65 323.25 230.05 323.25 233.1 326.3 236.2 329.4 236.2 333.8 236.2 338.2 233.1 341.25
L 226.75 347.6
Q 223.7 350.7 219.3 350.7 214.95 350.7 211.85 347.6 208.8 344.55 208.8 340.15
M 222.8 306.75
Q 222.8 311.15 219.7 314.2
L 198.45 335.55
Q 195.4 338.65 191 338.65 186.65 338.65 183.55 335.55 180.5 332.5 180.5 328.1 180.5 323.7 183.55 320.6
L 204.8 299.25
Q 207.9 296.2 212.25 296.2 216.65 296.2 219.7 299.25 222.8 302.35 222.8 306.75
M 237.5 347.85
L 238.6 346.8
Q 241.2 344.2 242.55 340.85 243.95 337.5 243.95 333.8 243.95 331.4 243.35 329.2
L 267.9 352.25
Q 268.35 356.5 266.95 358.2 265.75 359.65 262.65 359.65 258.95 359.65 253.75 357.6 248.6 355.55 243.2 351.9 240.1 349.75 237.55 347.85
L 237.5 347.85 Z"/>
</g>
</defs>

<g transform="matrix( 1, 0, 0, 1, 0,0) ">
<g transform="matrix( 1, 0, 0, 1, -44.5,-136.55) ">
<use xlink:href="#Handshakes_0_Layer0_0_FILL"/>
</g>

<g transform="matrix( 1, 0, 0, 1, -44.5,-136.55) ">
<use xlink:href="#Handshakes_0_Layer0_1_FILL"/>
</g>

<g transform="matrix( 1, 0, 0, 1, -44.5,-136.55) ">
<use xlink:href="#Handshakes_0_Layer0_2_FILL"/>
</g>

<g transform="matrix( 1, 0, 0, 1, -44.5,-136.55) ">
<use xlink:href="#Handshakes_0_Layer0_3_FILL"/>
</g>

<g transform="matrix( 1, 0, 0, 1, -44.5,-136.55) ">
<use xlink:href="#Handshakes_0_Layer0_4_FILL"/>
</g>

<g transform="matrix( 1, 0, 0, 1, -44.5,-136.55) ">
<use xlink:href="#Handshakes_0_Layer0_5_FILL"/>
</g>

<g transform="matrix( 1, 0, 0, 1, -44.5,-136.55) ">
<use xlink:href="#Handshakes_0_Layer0_6_FILL"/>
</g>

<g transform="matrix( 1, 0, 0, 1, -44.5,-136.55) ">
<use xlink:href="#Handshakes_0_Layer0_7_FILL"/>
</g>

<g transform="matrix( 1, 0, 0, 1, -44.5,-136.55) ">
<use xlink:href="#Handshakes_0_Layer0_8_FILL"/>
</g>

<g transform="matrix( 1, 0, 0, 1, -44.5,-136.55) ">
<use xlink:href="#Handshakes_0_Layer0_9_MEMBER_0_FILL"/>
</g>

<g transform="matrix( 1, 0, 0, 1, -44.5,-136.55) ">
<use xlink:href="#Handshakes_0_Layer0_9_MEMBER_1_FILL"/>
</g>

<g transform="matrix( 1, 0, 0, 1, -44.5,-136.55) ">
<use xlink:href="#Handshakes_0_Layer0_9_MEMBER_2_FILL"/>
</g>
</g>
</svg>
