
<svg xmlns="http://www.w3.org/2000/svg" version="1.1" xmlns:xlink="http://www.w3.org/1999/xlink" preserveAspectRatio="none" x="0px" y="0px" width="407px" height="460px" viewBox="0 0 407 460">
<defs>
<g id="Sassy_Lady_0_Layer0_0_MEMBER_0_FILL">
<path fill="#660099" stroke="none" d="
M 439.9 363.8
Q 439.9 279.3 380.15 219.55 320.45 159.85 235.95 159.85 151.45 159.85 91.7 219.55 32 279.3 32 363.8 32 448.3 91.7 508 127.1291015625 543.4291015625 171.25 557.85
L 300.6 557.85
Q 344.7505859375 543.4291015625 380.15 508 439.9 448.3 439.9 363.8 Z"/>
</g>

<g id="Sassy_Lady_0_Layer0_0_MEMBER_1_MEMBER_0_FILL">
<path fill="#000000" stroke="none" d="
M 189.55 154.6
Q 183.75 158.6 180 159.85 177.2 160.85 169.8 159 162.95 157.25 160.05 155.35 158.7 154.45 153.25 154.55 146.9 154.65 140.35 156.35 136.75 152.4 135.55 150.25 133.75 146.95 132.25 140.2 140.15 126.9 127.2 84.05 127.85 84.6 133.25 86.8 138.6 89.05 139.35 89.65 138.3 88.05 136 86 133.2 83.55 131.65 82.1 125.85 76.6 123.15 69.4 116.8 52.4 102.8 42.6 88.2 32.35 70.6 34 48.4 36.1 39.5 54 32.4 68.25 35.2 87.6 36.95 99.75 46.35 112.95 51.6 120.25 52 120.9 54.2 124.55 53.4 126.55 53.4 128.85 49.5 130 46.35 130.9 44.8 130.6 46.35 134.3 49.75 135.6 51.5 136.3 53.4 136.65 52.15 139.4 47.85 137.8 43.4 135.65 42.5 135.8 44.7 143.65 52.95 147 61.55 150.45 68.25 144.85 64.4 149.05 57.8 153.85 52.8 158.25 51.45 165.65 47 189.6 46.2 197.55 43.2 226.2 49.15 243.65 52.6 253.75 53.6 269.55 54.15 278.75 54.5 297.75 55.15 314.65 57.55 325.05 60.75 339.15 68.25 348.3 65.1 350.05 60.2 368.25 55.5 385.8 56 391.1 56.55 396.65 51.25 407.15 44.25 421.05 43.7 422.75 37.35 442.3 34.95 454.55 31.25 472.9 33.05 487.25 39.95 489.5 72.2 491.85 101.1 493.95 114 493.9 122.75 493.85 134.3 492.55 137.95 492.1 154.5 489.8 157.85 489.35 165.2 489.8 169.45 490.1 178.85 490.8 196.45 491.75 201.55 487.55 200.9 484.3 194.35 462.8 188.25 442.85 187.9 438.5 186.9 427.15 196.8 376.35 206.45 326.85 209.6 322.45 212.1 318.95 223.45 313.7 234.1 308.7 236.4 304 239.95 296.75 232.55 237.65 225.55 181.6 221.35 168.9 218.6 160.75 216.75 158.3 212.75 153.15 204.15 152.3 195.55 151.4 189.55 154.6
M 74 195.2
Q 75.3 188.4 76.1 185.1 77.5 179.35 80 176.15 80.55 176.7 81.5 178.85 82.5 181.05 82.9 181.5 84.55 181.5 84.8 179.2 84.75 176.65 84.95 176.15 86.4 176.55 87.55 178.4 88.15 179.4 88.9 181.1 90.3 181.15 90.25 177.85 90.25 175.15 89.5 172.35 96.6 173.6 94.5 181.15 92.7 187.75 85.15 196.2 77.75 204.45 70.35 208.5 62.15 212.95 59.05 209
L 62.45 209.9
Q 71.25 207.35 74 195.2 Z"/>
</g>

<g id="Sassy_Lady_0_Layer0_0_MEMBER_1_MEMBER_1_FILL">
<path fill="#FEFEFE" stroke="none" d="
M 169.4 156.95
Q 167.4 156.3 163.15 154.75
L 156.8 152.4 156.6 152.4
Q 151.7 152.6 148.7 152.95 144.95 153.35 140.65 154.25
L 139.25 154.55 143.55 161.6 144 161.5
Q 149.6 162.05 153.5 163.25 153.1 165.55 148 190.2 134 256.75 132.05 271.15 127.6 264.2 117.85 238.35 112.7 224.65 102.75 196.35 96.75 179.1 96.2 178.35
L 94.95 176.6 94.4 178.65
Q 91.5 189.15 79.7 200 76.5 202.95 75.55 215.3 74.7 226.85 76.35 234.15
L 76.95 236.6 78.2 234.45
Q 81.3 229.3 85.9 225.4 91.15 221 96.3 220.15 101.75 219.3 105.05 222.7 107.05 224.85 110.05 231.55
L 115.7 244.1
Q 120.35 254.75 123.1 260.15 127.5 268.75 132.35 275.4
L 133.4 276.8 134.1 275.2
Q 134.55 274.15 135.2 268.35 137.05 251.85 140.45 242.75 146.55 226.4 159.25 223.1
L 160.85 222.7 159.75 221.45
Q 154.15 215.2 152.2 210.85 174.55 213.05 188.95 219.55
L 191.25 220.6 190.3 218.25
Q 186.75 209.5 181.45 183.85 176.9 159.8 176.85 159.55
L 176.7 158.85 176.05 158.7
Q 172.7 158.05 169.4 156.95
M 162.45 156.65
Q 170.25 159.55 174.95 160.55 182.4 202.15 187.6 216.8 172.6 210.6 150.65 208.65
L 149.15 208.5 149.6 209.95
Q 151.1 214.65 157.25 221.65 146.1 225.25 140.15 238.25 141.6 231.05 149.95 190.6 155.6 163.65 155.6 162.5
L 155.55 162.2 155.4 161.7 154.65 161.5
Q 150.35 160.15 144.7 159.55
L 142.5 156
Q 148.5 154.75 156.5 154.45
L 162.45 156.65
M 95.45 181.85
Q 97 185.9 100.85 197.05 111.79296875 228.2029296875 117.65 243.6
L 111.9 230.7
Q 108.7 223.55 106.35 221.15 102.4 217.1 96 218.15 91.25 218.95 86.4 222.5 81.55 226 77.9 231.3 77.3 227.4 77.3 222.5 77.3 215.45 78.35 209.4 79.4 203.05 81.05 201.5 91.85 191.65 95.45 181.85 Z"/>
</g>

<g id="Sassy_Lady_0_Layer0_0_MEMBER_1_MEMBER_2_FILL">
<path fill="#FEFEFE" stroke="none" d="
M 91.7 288.25
Q 90.5 283.7 83.5 266.1 79.8 256.8 70 233 60.25 209.3 59.95 208.05
L 58.1 207.65
Q 57.8 208.2 59.05 211.45 60.45 215.15 68.15 233.8 78 257.75 81.45 266.4 88.6 284.35 89.75 288.75 95.8 312 94.05 323.85 91.45 341.05 73.25 346.85
L 73.85 348.75
Q 93.1 342.65 95.95 324.3 97.85 311.8 91.7 288.25 Z"/>
</g>

<g id="Sassy_Lady_0_Layer0_0_MEMBER_1_MEMBER_3_FILL">
<path fill="#FEFEFE" stroke="none" d="
M 72.45 347.4
Q 67.9 346.9 62.9 346.7 52.85 346.35 50.5 348.05 48.15 349.75 43.9 358.95 41.6 363.9 38.05 372.35 40.35 375.7 42.8 375.55 44.05 375.45 44.8 374.7
L 44.8 376.85
Q 45.05 379.2 46.15 380.1 47.25 381 49.65 380.8 50.85 380.7 51.85 380.4
L 52.35 382.5
Q 53.2 384.7 54.9 385.15 57.15 385.7 60.65 383.95 64.35 382.1 64.35 379.75 64.35 377.65 61.15 377.8
L 57.95 378.4
Q 58.45 377.15 59.25 375.6 60.85 372.6 62.3 371.3 68.55 372 83.1 366.4 99.15 360.25 99.4 354.15 102.4 351.7 154.8 336.8 207.45 321.85 208.95 320.75 211.25 319.05 204.45 304.55
L 197.15 290.4 207.95 296.5 202.55 288.05 216.7 296.5 208.6 282.35 218.7 288.4
Q 216.6 287.05 214.1 284.8 209.15 280.25 207.25 275.6 205.4 270.95 199.25 236.4
L 193.45 202.8 199.4 241.45
Q 205 280.6 203.55 283.35 202.1 286.05 149.9 314.3 123.85 328.45 98.05 342
L 72.45 347.4 Z"/>
</g>

<g id="Sassy_Lady_0_Layer0_0_MEMBER_1_MEMBER_4_FILL">
<path fill="#FFFFFF" stroke="none" d="
M 72.45 347.4
Q 67.9 346.9 62.9 346.7 52.85 346.35 50.5 348.05 48.15 349.75 43.9 358.95 41.6 363.9 38.05 372.35 40.35 375.7 42.8 375.55 44.05 375.45 44.8 374.7
L 44.8 376.85
Q 45.05 379.2 46.15 380.1 47.25 381 49.65 380.8 50.85 380.7 51.85 380.4
L 52.35 382.5
Q 53.2 384.7 54.9 385.15 57.15 385.7 60.65 383.95 64.35 382.1 64.35 379.75 64.35 377.65 61.15 377.8
L 57.95 378.4
Q 58.45 377.15 59.25 375.6 60.85 372.6 62.3 371.3 68.55 372 83.1 366.4 99.15 360.25 99.4 354.15 102.4 351.7 154.8 336.8 207.45 321.85 208.95 320.75 211.25 319.05 204.45 304.55
L 197.15 290.4 207.95 296.5 202.55 288.05 216.7 296.5 208.6 282.35 218.7 288.4
Q 216.6 287.05 214.1 284.8 209.15 280.25 207.25 275.6 205.4 270.95 199.25 236.4
L 193.45 202.8 199.4 241.45
Q 205 280.6 203.55 283.35 202.1 286.05 149.9 314.3 123.85 328.45 98.05 342
L 72.45 347.4 Z"/>
</g>
</defs>

<g transform="matrix( 1, 0, 0, 1, 0,0) ">
<g transform="matrix( 1, 0, 0, 1, -32,-98.4) ">
<use xlink:href="#Sassy_Lady_0_Layer0_0_MEMBER_0_FILL"/>
</g>

<g transform="matrix( 1, 0, 0, 1, 87.15,-33.75) ">
<use xlink:href="#Sassy_Lady_0_Layer0_0_MEMBER_1_MEMBER_0_FILL"/>
</g>

<g transform="matrix( 1, 0, 0, 1, 87.15,-33.75) ">
<use xlink:href="#Sassy_Lady_0_Layer0_0_MEMBER_1_MEMBER_1_FILL"/>
</g>

<g transform="matrix( 1, 0, 0, 1, 87.15,-33.75) ">
<use xlink:href="#Sassy_Lady_0_Layer0_0_MEMBER_1_MEMBER_2_FILL"/>
</g>

<g transform="matrix( 1, 0, 0, 1, 87.15,-33.75) ">
<use xlink:href="#Sassy_Lady_0_Layer0_0_MEMBER_1_MEMBER_3_FILL"/>
</g>

<g transform="matrix( 1, 0, 0, 1, 87.15,-33.75) ">
<use xlink:href="#Sassy_Lady_0_Layer0_0_MEMBER_1_MEMBER_4_FILL"/>
</g>
</g>
</svg>
