
<svg xmlns="http://www.w3.org/2000/svg" version="1.1" xmlns:xlink="http://www.w3.org/1999/xlink" preserveAspectRatio="none" x="0px" y="0px" width="539px" height="500px" viewBox="0 0 539 500">
<defs>
<g id="Sheep_0_Layer0_0_MEMBER_0_FILL">
<path fill="#F0989D" stroke="none" d="
M 1404.35 1622.6
L 1400.85 1610
Q 1387.95 1615.45 1374.9 1624.5 1362.1 1633.4 1352.2 1643.65 1341.55 1654.65 1338.3 1667.35 1335.25 1679.15 1338.95 1690.35 1342.55 1701.25 1351.55 1709 1360.8 1716.95 1373.45 1719.6 1385.2 1722 1392.1 1713.8 1397.3 1707.55 1400.1 1694.25 1402.6 1682.1 1405.15 1674.05 1408.55 1663.15 1413.25 1654.9
L 1411.5 1648.6
Q 1378.45 1660.35 1357.2 1680.65 1359 1670.35 1366.8 1658.4 1374.7 1646.2 1386.6 1635.65 1395.15 1628.1 1404.35 1622.6 Z"/>
</g>

<g id="Sheep_0_Layer0_0_MEMBER_1_FILL">
<path fill="#124272" stroke="none" d="
M 1557.15 1266.15
Q 1551.25 1260.55 1543.6 1256.6 1526.85 1248 1508.2 1250.55 1489.5 1253.1 1475.7 1265.9 1471.45 1265.4 1468.1 1265.4 1451.85 1265.4 1436.7 1274.95 1421.55 1284.4 1414.45 1299 1394.35 1303.85 1381.5 1320.1 1368.65 1336.4 1368.65 1357.1 1368.65 1363.1 1370 1368.5 1371.4 1374.25 1371.45 1374.7 1371.55 1377.05 1369.2 1379.2 1366.85 1381.35 1359.5 1385.65 1348.25 1392.2 1327.9 1400.25 1305.35 1409.15 1297.1 1413.4 1280.85 1421.8 1270.75 1433.05 1258.55 1446.6 1252.45 1467 1247.55 1483.45 1249.15 1498.85 1250.8 1514.1 1258.5 1525.55 1266.45 1537.35 1279.6 1542.9 1293.65 1548.85 1311.8 1546.75 1330.85 1544.55 1353.6 1534.7 1356.9 1563.7 1366.05 1590.7 1348.3 1598.5 1332.55 1615.05 1315.9 1632.5 1308.55 1652.7 1300.25 1675.35 1306.15 1695.65 1312.85 1718.85 1337.4 1735.95 1350.8 1745.25 1367.4 1748.7 1385.85 1752.55 1400.25 1744.95 1413.45 1737.9 1421.6 1722.25 1426.65 1712.5 1429.2 1700.3 1430.75 1693 1431.85 1688.8 1452.15 1705.1 1475.2 1713.55 1497.95 1721.8 1521.7 1721.8 1544.8 1721.8 1566.85 1714 1588.2 1706.45 1607.35 1692.05 1624.8 1678.85 1639.45 1660.75 1659.15 1636.35 1672.55 1602.6 1685.35 1570.35 1689.45 1537.35 1710.6 1545.7 1727.85 1547.1 1749.1 1548.85 1763.85 1540.15 1777.3 1532.2 1783.45 1516.85 1789.3 1502.3 1787.4 1484.5 1785.55 1466.65 1776.4 1450.4 1768.8 1436.85 1757.25 1427.05 1747.75 1419 1733.5 1411.95 1727.65 1409.05 1706.7 1400.1 1689.3 1392.65 1678.45 1386.5 1671.95 1382.85 1669.9 1380.55 1668.05 1378.45 1668.55 1375.7 1672.05 1367.35 1672.05 1357.1 1672.05 1336.65 1659.45 1320.45 1646.9 1304.25 1627.1 1299.2 1617.95 1279 1598.35 1269.85 1578.9 1260.75 1557.15 1266.15
M 1488.7 1296.65
Q 1489.65 1295.45 1492.7 1291.35 1501.85 1279.6 1516.95 1279.9 1532 1280.25 1540.65 1292.3 1542.85 1295.35 1545.4 1299.15 1547.05 1301.45 1548.25 1301.75 1549.45 1302.05 1552 1300.75 1553.7 1299.95 1559.35 1296.95 1572 1290.7 1585 1296.55 1598.1 1302.45 1601.65 1316.15 1602.45 1319.2 1603.3 1322.85 1603.95 1325.15 1604.8 1325.85 1605.65 1326.6 1608 1326.8 1609.55 1326.95 1614.85 1327.25 1629.25 1328.45 1637.25 1340.55 1645.3 1352.7 1640.75 1366.45 1636.25 1379.75 1635.3 1384.25 1633.95 1391 1635.9 1394.95 1637.9 1398.9 1644.7 1402.9 1649.25 1405.55 1663.9 1412.35 1673.45 1417.75 1689 1423.95 1709 1431.9 1713.45 1433.95 1726.55 1440.05 1734.95 1447.15 1745.2 1455.9 1751.25 1468.3 1760.75 1487.8 1756.75 1502.35 1752.1 1519.15 1730.3 1517.35 1720.4 1516.55 1708.4 1512.65 1696.35 1508.7 1683.15 1501.95 1672.7 1496.3 1669.6 1494.7 1665 1492.35 1663.65 1493.15 1662.25 1493.95 1662 1499.1 1661.85 1502.6 1661.55 1514.5 1659.85 1551.7 1647.8 1585.15 1636.1 1617.55 1616.25 1642.15 1596.1 1667.1 1567.3 1678.1 1540.2 1688.45 1511.95 1684.3 1494.25 1681.7 1478 1672.8 1461.85 1663.95 1450.35 1650.55 1438.35 1636.65 1433.6 1620.3 1428.55 1602.7 1432.6 1584.65 1436.15 1568.95 1446.25 1552.55 1449.25 1548.05 1446.8 1543.15 1444.55 1538.65 1439.05 1536 1433.4 1533.3 1427.95 1534.3 1421.75 1535.4 1418.45 1541.1 1407.9 1559.4 1403.7 1577.6 1398.95 1578.85 1394.05 1580.75 1382.9 1547.6 1381.65 1511.15 1381.65 1501.85 1381.55 1498.65 1381.35 1493.45 1379.95 1491.95 1378.3 1490.2 1373.7 1491.75 1369.35 1493.2 1359.65 1498.55 1345.4 1506.4 1332.3 1511.15 1319.25 1515.9 1308.45 1517.15 1288.55 1519.45 1281.55 1506 1275.45 1494.15 1281 1475.5 1285.45 1460.5 1296.5 1449.95 1305.5 1441.3 1320.5 1434.3 1326.95 1431.3 1348.1 1423.25 1365.35 1416.7 1374.4 1411.4 1389.4 1403.05 1393.6 1400.25 1400.45 1395.75 1402.65 1391.9 1404.8 1388 1403.85 1381.8 1403.25 1377.75 1399.65 1365.6 1395.65 1351.9 1403.8 1340.05 1412 1328.25 1426.2 1327.25 1429.25 1327.05 1432.9 1326.85 1435.2 1326.65 1436.05 1325.95 1436.9 1325.3 1437.6 1323.05 1438.55 1319.5 1439.4 1316.55 1442.95 1304.6 1453.85 1298.75 1464.75 1292.9 1476.65 1296.45 1479.55 1297.35 1483 1298.45 1485.2 1299.1 1486.25 1298.8 1487.25 1298.45 1488.7 1296.65
M 1400.85 1610
L 1404.35 1622.6
Q 1395.15 1628.1 1386.6 1635.65 1374.7 1646.2 1366.8 1658.4 1359 1670.35 1357.2 1680.65 1370.2 1668.35 1387.95 1659 1398.4 1653.5 1411.5 1648.6
L 1413.25 1654.9
Q 1409.15 1661.95 1406.05 1671.25 1403 1680.25 1400.1 1694.25 1397.3 1707.55 1392.1 1713.8 1385.2 1722 1373.45 1719.6 1360.8 1716.95 1351.55 1709 1342.55 1701.25 1338.95 1690.35 1335.25 1679.15 1338.3 1667.35 1341.55 1654.65 1352.2 1643.65 1362.1 1633.4 1374.9 1624.5 1387.95 1615.45 1400.85 1610 Z"/>
</g>

<g id="Sheep_0_Layer0_0_MEMBER_2_FILL">
<path fill="#124272" stroke="none" d="
M 1439.8 1424.95
Q 1432 1426.8 1424.35 1431 1410.6 1438.55 1400.8 1451.65 1397 1456.75 1398.45 1462 1399.75 1466.55 1404.45 1469.75 1408.95 1472.75 1413.8 1472.75 1419.1 1472.7 1421.7 1468.9 1436.8 1446.8 1451.25 1450.5 1463.65 1453.7 1476.5 1476.2 1480.3 1482.9 1485.75 1484.1 1490.45 1485.1 1495.25 1482.05 1499.6 1479.25 1501.9 1474.65 1504.25 1469.95 1502.7 1466.55 1495.8 1454.45 1490.1 1446.6 1484.35 1438.75 1478.85 1433.95 1473.45 1429.3 1467.45 1426.9 1461.95 1424.7 1454.65 1423.9 1447.6 1423.1 1439.8 1424.95 Z"/>
</g>

<g id="Sheep_0_Layer0_0_MEMBER_3_FILL">
<path fill="#124272" stroke="none" d="
M 1612.3 1431
Q 1604.65 1426.8 1596.85 1424.95 1589.05 1423.1 1582 1423.9 1574.7 1424.7 1569.2 1426.9 1563.2 1429.3 1557.8 1433.95 1552.3 1438.75 1546.55 1446.6 1540.85 1454.45 1533.95 1466.55 1532.4 1469.95 1534.75 1474.65 1537.05 1479.25 1541.4 1482.05 1546.2 1485.1 1550.9 1484.1 1556.4 1482.9 1560.2 1476.2 1573 1453.7 1585.4 1450.5 1599.85 1446.8 1614.95 1468.9 1617.55 1472.7 1622.85 1472.75 1627.7 1472.75 1632.25 1469.75 1636.95 1466.55 1638.2 1462 1639.7 1456.75 1635.85 1451.65 1626.05 1438.55 1612.3 1431 Z"/>
</g>

<g id="Sheep_0_Layer0_0_MEMBER_4_FILL">
<path fill="#FFFFFF" stroke="none" d="
M 1483 1298.45
Q 1479.55 1297.35 1476.65 1296.45 1464.75 1292.9 1453.85 1298.75 1442.95 1304.6 1439.4 1316.55 1438.55 1319.5 1437.6 1323.05 1436.9 1325.3 1436.05 1325.95 1435.2 1326.65 1432.9 1326.85 1429.25 1327.05 1426.2 1327.25 1412 1328.25 1403.8 1340.05 1395.65 1351.9 1399.65 1365.6 1403.25 1377.75 1403.85 1381.8 1404.8 1388 1402.65 1391.9 1400.45 1395.75 1393.6 1400.25 1389.4 1403.05 1374.4 1411.4 1365.35 1416.7 1348.1 1423.25 1326.95 1431.3 1320.5 1434.3 1305.5 1441.3 1296.5 1449.95 1285.45 1460.5 1281 1475.5 1275.45 1494.15 1281.55 1506 1288.55 1519.45 1308.45 1517.15 1319.25 1515.9 1332.3 1511.15 1345.4 1506.4 1359.65 1498.55 1369.35 1493.2 1373.7 1491.75 1378.3 1490.2 1379.95 1491.95 1381.35 1493.45 1381.55 1498.65 1381.65 1501.85 1381.65 1511.15 1382.9 1547.6 1394.05 1580.75 1398.95 1578.85 1403.7 1577.6 1407.9 1559.4 1418.45 1541.1 1421.75 1535.4 1427.95 1534.3 1433.4 1533.3 1439.05 1536 1444.55 1538.65 1446.8 1543.15 1449.25 1548.05 1446.25 1552.55 1436.15 1568.95 1432.6 1584.65 1428.55 1602.7 1433.6 1620.3 1438.35 1636.65 1450.35 1650.55 1461.85 1663.95 1478 1672.8 1494.25 1681.7 1511.95 1684.3 1540.2 1688.45 1567.3 1678.1 1596.1 1667.1 1616.25 1642.15 1636.1 1617.55 1647.8 1585.15 1659.85 1551.7 1661.55 1514.5 1661.85 1502.6 1662 1499.1 1662.25 1493.95 1663.65 1493.15 1665 1492.35 1669.6 1494.7 1672.7 1496.3 1683.15 1501.95 1696.35 1508.7 1708.4 1512.65 1720.4 1516.55 1730.3 1517.35 1752.1 1519.15 1756.75 1502.35 1760.75 1487.8 1751.25 1468.3 1745.2 1455.9 1734.95 1447.15 1726.55 1440.05 1713.45 1433.95 1709 1431.9 1689 1423.95 1673.45 1417.75 1663.9 1412.35 1649.25 1405.55 1644.7 1402.9 1637.9 1398.9 1635.9 1394.95 1633.95 1391 1635.3 1384.25 1636.25 1379.75 1640.75 1366.45 1645.3 1352.7 1637.25 1340.55 1629.25 1328.45 1614.85 1327.25 1609.55 1326.95 1608 1326.8 1605.65 1326.6 1604.8 1325.85 1603.95 1325.15 1603.3 1322.85 1602.45 1319.2 1601.65 1316.15 1598.1 1302.45 1585 1296.55 1572 1290.7 1559.35 1296.95 1553.7 1299.95 1552 1300.75 1549.45 1302.05 1548.25 1301.75 1547.05 1301.45 1545.4 1299.15 1542.85 1295.35 1540.65 1292.3 1532 1280.25 1516.95 1279.9 1501.85 1279.6 1492.7 1291.35 1489.65 1295.45 1488.7 1296.65 1487.25 1298.45 1486.25 1298.8 1485.2 1299.1 1483 1298.45
M 1439.8 1424.95
Q 1447.6 1423.1 1454.65 1423.9 1461.95 1424.7 1467.45 1426.9 1473.45 1429.3 1478.85 1433.95 1484.35 1438.75 1490.1 1446.6 1495.8 1454.45 1502.7 1466.55 1504.25 1469.95 1501.9 1474.65 1499.6 1479.25 1495.25 1482.05 1490.45 1485.1 1485.75 1484.1 1480.3 1482.9 1476.5 1476.2 1463.65 1453.7 1451.25 1450.5 1436.8 1446.8 1421.7 1468.9 1419.1 1472.7 1413.8 1472.75 1408.95 1472.75 1404.45 1469.75 1399.75 1466.55 1398.45 1462 1397 1456.75 1400.8 1451.65 1410.6 1438.55 1424.35 1431 1432 1426.8 1439.8 1424.95
M 1596.85 1424.95
Q 1604.65 1426.8 1612.3 1431 1626.05 1438.55 1635.85 1451.65 1639.7 1456.75 1638.2 1462 1636.95 1466.55 1632.25 1469.75 1627.7 1472.75 1622.85 1472.75 1617.55 1472.7 1614.95 1468.9 1599.85 1446.8 1585.4 1450.5 1573 1453.7 1560.2 1476.2 1556.4 1482.9 1550.9 1484.1 1546.2 1485.1 1541.4 1482.05 1537.05 1479.25 1534.75 1474.65 1532.4 1469.95 1533.95 1466.55 1540.85 1454.45 1546.55 1446.6 1552.3 1438.75 1557.8 1433.95 1563.2 1429.3 1569.2 1426.9 1574.7 1424.7 1582 1423.9 1589.05 1423.1 1596.85 1424.95 Z"/>
</g>
</defs>

<g transform="matrix( 1, 0, 0, 1, 0,0) ">
<g transform="matrix( 1, 0, 0, 1, -1248.75,-1249.95) ">
<use xlink:href="#Sheep_0_Layer0_0_MEMBER_0_FILL"/>
</g>

<g transform="matrix( 1, 0, 0, 1, -1248.75,-1249.95) ">
<use xlink:href="#Sheep_0_Layer0_0_MEMBER_1_FILL"/>
</g>

<g transform="matrix( 1, 0, 0, 1, -1248.75,-1249.95) ">
<use xlink:href="#Sheep_0_Layer0_0_MEMBER_2_FILL"/>
</g>

<g transform="matrix( 1, 0, 0, 1, -1248.75,-1249.95) ">
<use xlink:href="#Sheep_0_Layer0_0_MEMBER_3_FILL"/>
</g>

<g transform="matrix( 1, 0, 0, 1, -1248.75,-1249.95) ">
<use xlink:href="#Sheep_0_Layer0_0_MEMBER_4_FILL"/>
</g>
</g>
</svg>
