
<svg xmlns="http://www.w3.org/2000/svg" version="1.1" xmlns:xlink="http://www.w3.org/1999/xlink" preserveAspectRatio="none" x="0px" y="0px" width="1920px" height="1080px" viewBox="0 0 1920 1080">
<defs>
<g id="gCog_black_0_Layer0_0_FILL">
<path fill="#000000" stroke="none" d="
M 11.65 -16.1
Q 11.3 -16.4 10.8 -16.4 10.3 -16.4 9.95 -16.1
L 8.6 -14.75
Q 6.6 -15.9 4.4 -16.45
L 4.4 -18.4
Q 4.4 -18.9 4.05 -19.25 3.7 -19.6 3.2 -19.6
L -3.15 -19.6
Q -3.65 -19.6 -4 -19.25 -4.35 -18.9 -4.35 -18.4
L -4.35 -16.45
Q -6.55 -15.9 -8.55 -14.75
L -9.9 -16.1
Q -10.25 -16.45 -10.75 -16.45 -11.25 -16.45 -11.6 -16.1
L -16.1 -11.6
Q -16.45 -11.25 -16.45 -10.75 -16.45 -10.25 -16.1 -9.9
L -14.75 -8.55
Q -15.9 -6.55 -16.5 -4.35
L -18.4 -4.35
Q -18.9 -4.35 -19.25 -4 -19.6 -3.65 -19.6 -3.15
L -19.6 3.2
Q -19.6 3.7 -19.25 4.05 -18.9 4.4 -18.4 4.4
L -16.5 4.4
Q -15.9 6.6 -14.75 8.6
L -16.1 9.95
Q -16.45 10.3 -16.45 10.8 -16.45 11.3 -16.1 11.65
L -11.6 16.15
Q -11.25 16.5 -10.75 16.5 -10.25 16.5 -9.9 16.15
L -8.55 14.8
Q -6.55 15.95 -4.35 16.5
L -4.35 18.45
Q -4.35 18.95 -4 19.3 -3.65 19.6 -3.15 19.6
L 3.2 19.6
Q 3.7 19.6 4.05 19.3 4.4 18.95 4.4 18.45
L 4.4 16.5
Q 6.6 15.95 8.6 14.8
L 9.95 16.15
Q 10.3 16.5 10.8 16.5 11.3 16.5 11.65 16.15
L 16.1 11.65
Q 16.45 11.3 16.45 10.8 16.45 10.3 16.1 9.95
L 14.75 8.6
Q 15.9 6.6 16.5 4.4
L 18.45 4.4
Q 18.9 4.4 19.25 4.05 19.6 3.7 19.6 3.2
L 19.6 -3.15
Q 19.6 -3.65 19.25 -4 18.9 -4.35 18.45 -4.35
L 16.5 -4.35
Q 15.95 -6.55 14.75 -8.55
L 16.1 -9.9
Q 16.45 -10.25 16.45 -10.75 16.45 -11.25 16.1 -11.6
L 11.65 -16.1
M 2 -17.2
L 2 -15.55
Q 2 -15.1 2.25 -14.75 2.55 -14.45 2.95 -14.35 5.75 -13.8 8.1 -12.2 8.45 -12 8.9 -12.05 9.3 -12.05 9.6 -12.35
L 10.8 -13.55 13.6 -10.75 12.4 -9.55
Q 12.1 -9.25 12.05 -8.85 12 -8.4 12.25 -8.05 13.85 -5.7 14.4 -2.9 14.5 -2.5 14.8 -2.25 15.15 -1.95 15.55 -1.95
L 17.25 -1.95 17.25 2 15.55 2
Q 15.15 2 14.8 2.25 14.5 2.55 14.4 2.95 13.85 5.75 12.25 8.1 12 8.45 12.05 8.9 12.1 9.3 12.4 9.6
L 13.6 10.8 10.8 13.6 9.6 12.4
Q 9.3 12.1 8.9 12.1 8.45 12.05 8.1 12.25 5.75 13.85 2.95 14.4 2.55 14.5 2.25 14.85 2 15.15 2 15.6
L 2 17.25 -1.95 17.25 -1.95 15.6
Q -1.95 15.15 -2.25 14.85 -2.5 14.5 -2.95 14.4 -5.7 13.85 -8.1 12.25 -8.45 12.05 -8.85 12.1 -9.3 12.1 -9.6 12.4
L -10.75 13.6 -13.55 10.8 -12.4 9.6
Q -12.1 9.3 -12.05 8.9 -12 8.45 -12.25 8.1 -13.8 5.75 -14.35 2.95 -14.45 2.55 -14.8 2.3 -15.1 2 -15.55 2
L -17.2 2 -17.2 -1.95 -15.55 -1.95
Q -15.1 -1.95 -14.8 -2.25 -14.45 -2.5 -14.35 -2.9 -13.8 -5.7 -12.25 -8.05 -12 -8.4 -12.05 -8.85 -12.1 -9.25 -12.4 -9.55
L -13.55 -10.75 -10.75 -13.55 -9.6 -12.35
Q -9.3 -12.05 -8.85 -12.05 -8.45 -12 -8.1 -12.2 -5.7 -13.8 -2.95 -14.35 -2.5 -14.45 -2.25 -14.75 -1.95 -15.1 -1.95 -15.55
L -1.95 -17.2 2 -17.2
M 7.6 -7.55
Q 4.45 -10.7 0 -10.7 -4.4 -10.7 -7.55 -7.55 -10.7 -4.4 -10.7 0 -10.7 4.45 -7.55 7.6 -4.4 10.75 0 10.75 4.45 10.75 7.6 7.6 10.75 4.45 10.75 0 10.75 -4.4 7.6 -7.55
M 0 -8.3
Q 3.45 -8.3 5.9 -5.85 8.35 -3.4 8.35 0 8.35 3.45 5.9 5.9 3.45 8.35 0 8.35 -3.45 8.35 -5.85 5.9 -8.3 3.45 -8.3 0 -8.3 -3.4 -5.85 -5.85 -3.45 -8.3 0 -8.3
M 4 -3.95
Q 2.35 -5.6 0 -5.6 -2.3 -5.6 -3.95 -3.95 -5.6 -2.3 -5.6 0 -5.6 2.35 -3.95 4 -2.3 5.65 0 5.65 2.35 5.65 4 4 5.65 2.35 5.65 0 5.65 -2.3 4 -3.95
M 0 -3.25
Q 1.35 -3.25 2.3 -2.3 3.25 -1.3 3.25 0 3.25 1.35 2.3 2.3 1.35 3.25 0 3.25 -1.35 3.25 -2.3 2.3 -3.25 1.35 -3.25 0 -3.25 -1.35 -2.3 -2.3 -1.35 -3.25 0 -3.25 Z"/>
</g>
</defs>

<g transform="matrix( 1, 0, 0, 1, 20,22) ">
<g transform="matrix( 1, 0, 0, 1, 0,0) ">
<use xlink:href="#gCog_black_0_Layer0_0_FILL"/>
</g>
</g>
</svg>
