
<svg xmlns="http://www.w3.org/2000/svg" version="1.1" xmlns:xlink="http://www.w3.org/1999/xlink" preserveAspectRatio="none" x="0px" y="0px" width="1081px" height="138px" viewBox="0 0 1081 138">
<defs>
<filter id="Filter_1" x="-20%" y="-20%" width="140%" height="140%" color-interpolation-filters="sRGB">
<feColorMatrix in="SourceGraphic" type="matrix" values="0 0 0 0 0 0 0 0 0 0 0 0 0 0 0 0 0 0 1 0" result="result1"/>
</filter>

<g id="gDeck_0_Layer0_0_FILL">
<path fill="#FFFFFF" stroke="none" d="
M 26.85 18.15
L 26.85 -57.5 -48.8 -32.75 -48.8 42.9 26.85 18.15
M 3.9 -37.55
Q 9.7 -33.8 9.7 -25.6 9.7 -25.3 9.7 -25.05
L -10.1 -17.7 -10.1 -38.05 -10.05 -38.1
Q -1.85 -41.15 3.9 -37.55
M 6.4 7.3
Q 6.05 8 5.25 8.3
L -28.5 20.05
Q -29.3 20.3 -30 19.95 -30.75 19.6 -31 18.85 -31.3 18.05 -30.95 17.3 -30.6 16.55 -29.8 16.25
L 3.95 4.5
Q 4.75 4.25 5.5 4.6 6.2 4.95 6.5 5.75 6.75 6.5 6.4 7.3
M 6.4 14.35
Q 6.05 15.05 5.25 15.35
L -28.5 27.1
Q -29.3 27.35 -30 27 -30.75 26.65 -31 25.9 -31.3 25.1 -30.95 24.35 -30.6 23.6 -29.8 23.3
L 3.95 11.55
Q 4.75 11.3 5.5 11.65 6.2 12 6.5 12.8 6.75 13.55 6.4 14.35
M -33.8 -5.5
Q -33.8 -5.75 -33.8 -6.05 -33.8 -14.25 -28.05 -22.2 -22.25 -30.1 -14.1 -33.15
L -14.1 -12.85 5.7 -20.2
Q 5.5 -12.25 -0.05 -4.6 -3.3 -0.15 -7.35 2.75 -14.05 7.2 -20.75 7.75 -24.75 7.8 -28.05 5.8 -33.65 2.25 -33.8 -5.5
M 48.85 -42.85
L 34.2 -38.1 34.2 25.5 -26.85 45.45 -26.85 57.55 48.85 32.8 48.85 -42.85 Z"/>
</g>

<g id="gDeck_0_Layer0_0_MEMBER_0_FILL">
<path fill="#FFFFFF" stroke="none" d="
M 465.4 164.8
Q 460.75 165.75 457.2 169.3 452.4 174.1 452.4 180.95 452.4 181.25 452.4 181.45 452.45 183.35 452.85 185.1 453.9 189.35 457.2 192.65 459.95 195.35 463.3 196.55 468.9 198.15 474.5 196.55 477.85 195.35 480.55 192.65 483.85 189.35 484.9 185.1
L 465.4 185.1 465.4 164.8 Z"/>
</g>

<g id="gDeck_0_Layer0_0_MEMBER_1_FILL">
<path fill="#FFFFFF" stroke="none" d="
M 491.55 173.55
Q 491.55 167.65 487.4 163.5 483.3 159.35 477.4 159.35
L 477.4 173.95 491.55 173.95
Q 491.55 173.75 491.55 173.55 Z"/>
</g>

<g id="gLogo_0_Layer0_0_FILL">
<path fill="#FFFFFF" stroke="none" d="
M 181.8 35.05
Q 177.55 32.6 170.05 32.6
L 130.15 32.6
Q 131.9 35.3 132.55 38.9
L 132.85 44.65 132.85 123.1 132.55 128.95
Q 132 132.4 130.15 135.15 143.65 135.15 158.55 126.8 173.4 118.4 183.1 105.75 193.45 92.3 193.45 79.35 193.45 71.5 188.7 65.35 184.35 59.6 178 57.9 182.65 56 184.95 52.8 187.3 49.5 187.3 45.35 187.3 38.3 181.8 35.05
M 171.3 45.6
Q 172.5 46.4 172.5 47.9 172.5 49.55 171.3 50.6 170.05 51.6 168 51.6
L 146.15 51.6 146.15 44.8 168 44.8
Q 170.05 44.8 171.3 45.6
M 178.65 81
Q 178.65 88.8 172.95 97 167.95 104.1 159.85 109.85 152.35 115.2 146.15 116.55
L 146.15 64.35 161.85 64.35
Q 169.1 64.35 173.9 69.2 178.65 74.05 178.65 81
M 260.95 32.6
L 256.7 32.35
Q 243.7 32.35 230.1 43.95 217.4 54.85 210 72.4 202.55 89.9 202.55 107.65
L 202.55 123.1
Q 202.55 126.05 201.65 129.15 200.7 132.2 198.75 135.15
L 217.9 135.15
Q 216.25 132.05 215.7 127.35
L 215.3 104 245.1 104 245.1 123.1 244.75 128.95
Q 244.2 132.4 242.35 135.15
L 260.95 135.15
Q 259.3 132.15 258.7 128.7
L 258.35 123.1 258.35 44.25 258.9 38.2
Q 259.35 35.35 260.95 32.6
M 245.1 47.5
L 245.1 91.25 217.25 91.25
Q 218.65 84.45 222.05 76.55 226.1 67.2 231.6 59.9 237.95 51.35 245.1 47.5
M 334.75 30.3
Q 331.5 31.2 329.5 31.7 325.8 32.6 322.05 32.6
L 269.7 32.6 269.7 48.75
Q 276.25 45.05 281.7 45.05
L 294.15 45.05 294.15 123.1 293.8 128.95
Q 293.25 132.4 291.4 135.15
L 310 135.15
Q 308.35 132.15 307.75 128.7
L 307.4 123.05 307.4 45.05 318.35 45.05
Q 324.85 45.05 329.85 40.75 334.75 36.45 334.75 30.3
M 400.35 30.3
Q 397.1 31.2 395.1 31.7 391.4 32.6 387.65 32.6
L 335.3 32.6 335.3 48.75
Q 341.85 45.05 347.3 45.05
L 359.75 45.05 359.75 123.1 359.4 128.95
Q 358.85 132.4 357 135.15
L 375.6 135.15
Q 373.95 132.15 373.35 128.7
L 373 123.05 373 45.05 383.95 45.05
Q 390.45 45.05 395.45 40.75 400.35 36.45 400.35 30.3
M 409.45 38.9
L 409.75 44.65 409.75 123.1 409.45 128.95
Q 408.9 132.4 407.05 135.15
L 460.35 135.15 460.35 118.2
Q 453.8 121.9 448.3 121.9
L 423.05 121.9 423.05 44.65
Q 423.05 39.15 426.7 32.6
L 407.05 32.6
Q 408.8 35.3 409.45 38.9
M 511.85 45.85
Q 515.95 45.85 518.55 46.75
L 523.9 49.55 523.9 32.6 469.9 32.6
Q 471.65 35.3 472.3 38.9
L 472.6 44.65 472.6 123.1 472.3 128.95
Q 471.75 132.4 469.9 135.15
L 529.65 135.15 529.65 118.2 525.3 120.5
Q 522.1 121.9 517.6 121.9
L 485.9 121.9 485.9 64.6 520.05 64.6 520.05 51.35 485.9 51.35 485.9 45.85 511.85 45.85
M 585.9 36.45
Q 580.8 33.15 576.3 31.95 571.75 30.7 565.85 30.7 557.4 30.7 552.2 35.15 546.4 40.15 546.4 49.55 546.4 55.3 549.7 60.65 552.15 64.6 557.75 69.95
L 567.8 78.75 575.6 86.2
Q 579.35 90.35 581.35 94.75 583.6 99.6 583.6 104.8 583.6 113.75 578.4 118.55 573.7 122.85 565.85 122.85 559.55 122.85 553.75 119.85 547.85 116.85 544.65 111.5
L 533.85 126.55 544.2 131.95
Q 549.5 134.25 554.6 135.5 559.65 136.65 565.85 136.65 579.35 136.65 588.5 128.3 598.1 119.55 598.1 105.6 598.1 98.35 595.45 91.65 593.1 85.85 588.65 80.1 585.25 75.75 579.75 70.5
L 566.8 58.6
Q 560.35 52.65 560.35 49 560.35 43.55 567.45 43.55 569.95 43.55 572.55 45
L 577.3 48.2 585.9 36.45
M 661.65 135.15
L 661.65 118.2
Q 655.1 121.9 649.6 121.9
L 624.35 121.9 624.35 44.65
Q 624.35 39.15 628 32.6
L 608.35 32.6
Q 610.1 35.3 610.75 38.9
L 611.05 44.65 611.05 123.1 610.75 128.95
Q 610.2 132.4 608.35 135.15
L 661.65 135.15
M 673.6 38.9
L 673.9 44.65 673.9 123.1 673.6 128.95
Q 673.05 132.4 671.2 135.15
L 689.8 135.15
Q 688.15 132.15 687.5 128.7
L 687.2 123.1 687.2 44.65 687.75 38.5
Q 688.2 35.5 689.8 32.6
L 671.2 32.6
Q 672.95 35.3 673.6 38.9
M 758.35 67.4
Q 748.95 52.8 733.95 42.85 719 32.95 704.65 31.6 706.4 34.45 707.05 38.15
L 707.35 43.9 707.35 123.1 707.05 128.95
Q 706.5 132.4 704.65 135.15
L 739.9 135.15
Q 752.85 135.15 760.75 125.85 768.6 116.55 768.6 99.9 768.6 83.4 758.35 67.4
M 755.1 100
Q 755.1 110.75 750 116.5 745.4 121.75 737.6 121.75
L 720.65 121.75 720.65 52.1
Q 733.3 56.4 743.85 70.3 755.1 84.95 755.1 100
M 823.15 45.85
Q 827.25 45.85 829.85 46.75
L 835.2 49.55 835.2 32.6 781.2 32.6
Q 782.95 35.3 783.6 38.9
L 783.9 44.65 783.9 123.1 783.6 128.95
Q 783.05 132.4 781.2 135.15
L 840.95 135.15 840.95 118.2 836.6 120.5
Q 833.4 121.9 828.9 121.9
L 797.2 121.9 797.2 64.6 831.35 64.6 831.35 51.35 797.2 51.35 797.2 45.85 823.15 45.85
M 913.1 47.25
L 913.1 31.95 903.25 31.1
Q 893.45 31.1 887.3 37.45 881.65 43.35 881.65 51.75 881.65 56.8 883.7 65.15
L 887.4 80.6
Q 889.3 88.65 889.3 96.05 889.3 107.35 883.2 114.9 876.65 123.1 865.5 123.1
L 858.25 122.45 850.75 119.7 850.75 135.3 857.5 136.45 864.15 136.8
Q 881.3 136.8 892.85 125.6 904.35 114.3 904.35 96.85 904.35 89.5 902.35 81.2
L 898.4 65.2
Q 896.4 57.45 896.4 52.55 896.4 49.35 898.25 46.75 900.35 43.8 903.8 43.8 906.25 43.8 908.25 44.65
L 913.1 47.25 Z"/>
</g>
</defs>

<g transform="matrix( 1, 0, 0, 1, 540.8,69.5) ">
<g transform="matrix( 1.2074432373046875, 0, 0, 1.2074432373046875, -561.65,-96.55) ">
<g transform="matrix( 1, 0, 0, 1, 66.05,79.95) ">
<g transform="matrix( 1, 0, 0, 1, 0,0) ">
<use filter="url(#Filter_1)" xlink:href="#gDeck_0_Layer0_0_FILL"/>
</g>

<g transform="matrix( 0.882354736328125, -0.3275146484375, 0, 0.882354736328125, -428.75,-18.6) ">
<use filter="url(#Filter_1)" xlink:href="#gDeck_0_Layer0_0_MEMBER_0_FILL"/>
</g>

<g transform="matrix( 0.882354736328125, -0.3275146484375, 0, 0.882354736328125, -428,-19.15) ">
<use filter="url(#Filter_1)" xlink:href="#gDeck_0_Layer0_0_MEMBER_1_FILL"/>
</g>
</g>

<g transform="matrix( 1, 0, 0, 1, 0,0) ">
<use filter="url(#Filter_1)" xlink:href="#gLogo_0_Layer0_0_FILL"/>
</g>
</g>
</g>
</svg>
